<svg xmlns="http://www.w3.org/2000/svg" xmlns:xlink="http://www.w3.org/1999/xlink" width="200" height="200" viewBox="0 0 200 200" fill="none">
<path d="M179.625 183.75L20.375 183.75C20.0667 183.748 19.7586 183.738 19.4507 183.721C19.1428 183.704 18.8355 183.68 18.5288 183.648C18.2221 183.616 17.9164 183.577 17.6116 183.53C17.3069 183.483 17.0034 183.428 16.7013 183.367C16.3991 183.305 16.0987 183.236 15.7999 183.16C15.5012 183.084 15.2044 183 14.9097 182.91C14.615 182.819 14.3227 182.721 14.0327 182.616C13.7428 182.511 13.4556 182.399 13.1711 182.28C12.8866 182.161 12.6052 182.035 12.3268 181.903C12.0484 181.77 11.7735 181.631 11.5019 181.485C11.2303 181.339 10.9624 181.186 10.6983 181.027C10.4341 180.868 10.174 180.703 9.91787 180.531C9.66178 180.359 9.41 180.181 9.16256 179.997C8.91512 179.813 8.67229 179.624 8.43408 179.428C8.1959 179.232 7.9626 179.03 7.73422 178.823C7.50582 178.616 7.2826 178.403 7.06457 178.185C6.84654 177.967 6.63393 177.744 6.42676 177.516C6.21959 177.287 6.01809 177.054 5.82229 176.816C5.62648 176.578 5.43658 176.335 5.25258 176.087C5.06859 175.84 4.89074 175.588 4.719 175.332C4.54727 175.076 4.38188 174.816 4.22281 174.552C4.06373 174.287 3.91119 174.02 3.76518 173.748C3.61914 173.476 3.4798 173.202 3.34717 172.923C3.21454 172.645 3.08876 172.363 2.96982 172.079C2.85089 171.794 2.73895 171.507 2.63398 171.217C2.52904 170.927 2.43121 170.635 2.34049 170.34C2.24977 170.045 2.16628 169.749 2.09 169.45C2.01372 169.151 1.94477 168.851 1.88313 168.549C1.82149 168.246 1.76723 167.943 1.72036 167.638C1.67349 167.334 1.63406 167.028 1.60208 166.721C1.5701 166.414 1.54559 166.107 1.52857 165.799C1.51154 165.491 1.50202 165.183 1.5 164.875L1.5 31C1.50606 30.6951 1.51951 30.3904 1.54034 30.0861C1.56117 29.7817 1.58936 29.4781 1.62491 29.1752C1.66046 28.8722 1.70333 28.5703 1.75352 28.2693C1.80371 27.9686 1.86115 27.6691 1.92586 27.3709C1.99057 27.0728 2.06247 26.7765 2.14154 26.4818C2.22062 26.1873 2.30678 25.8948 2.40004 25.6043C2.49329 25.3139 2.59354 25.026 2.70076 24.7404C2.80797 24.4547 2.92205 24.1719 3.04299 23.892C3.16391 23.6119 3.29156 23.335 3.42592 23.0611C3.56027 22.7873 3.70119 22.5169 3.84865 22.2498C3.99613 21.9828 4.14998 21.7195 4.31021 21.46C4.47045 21.2004 4.63688 20.9449 4.80949 20.6934C4.98213 20.4419 5.16074 20.1948 5.34535 19.952C5.52994 19.7091 5.72033 19.4709 5.91648 19.2373C6.11264 19.0037 6.31434 18.7749 6.52158 18.5511C6.72883 18.3273 6.94137 18.1086 7.15922 17.8951C7.37705 17.6816 7.59994 17.4735 7.82787 17.2708C8.05582 17.0681 8.28854 16.871 8.52602 16.6796C8.7635 16.4881 9.00549 16.3026 9.25197 16.1229C9.49846 15.9432 9.74916 15.7696 10.0041 15.602C10.259 15.4345 10.5178 15.2732 10.7805 15.1182C11.0432 14.9632 11.3095 14.8147 11.5795 14.6726C11.8494 14.5305 12.1226 14.3951 12.3991 14.2662C12.6756 14.1374 12.955 14.0153 13.2374 13.9001C13.5198 13.7848 13.8049 13.6764 14.0925 13.5749C14.3802 13.4734 14.6701 13.379 14.9624 13.2916C15.2546 13.2042 15.5488 13.1239 15.8449 13.0508C16.1411 12.9776 16.4388 12.9117 16.7381 12.853C17.0375 12.7942 17.338 12.7428 17.6399 12.6987C17.9417 12.6545 18.2444 12.6177 18.548 12.5883C18.8516 12.5588 19.1558 12.5367 19.4604 12.522C19.7651 12.5073 20.0699 12.4999 20.375 12.5L75 12.5C75.1691 12.4989 75.3383 12.5001 75.5074 12.5036C75.6766 12.5072 75.8455 12.513 76.0145 12.5212C76.1834 12.5295 76.3523 12.54 76.5209 12.5529C76.6897 12.5658 76.8582 12.581 77.0264 12.5985C77.1945 12.616 77.3625 12.6359 77.5303 12.658C77.698 12.6802 77.8652 12.7047 78.0322 12.7315C78.1992 12.7582 78.366 12.7873 78.5322 12.8187C78.6984 12.8501 78.8641 12.8838 79.0295 12.9198C79.1947 12.9557 79.3594 12.994 79.5236 13.0345C79.6879 13.075 79.8516 13.1178 80.0146 13.1628C80.1777 13.2078 80.34 13.2551 80.5018 13.3046C80.6637 13.3542 80.8246 13.4059 80.985 13.4599C81.1453 13.5139 81.3047 13.57 81.4635 13.6284C81.6223 13.6868 81.7803 13.7473 81.9373 13.8101C82.0945 13.8728 82.2506 13.9377 82.4059 14.0047C82.5611 14.0718 82.7156 14.141 82.8689 14.2123C83.0223 14.2836 83.1748 14.357 83.3262 14.4325C83.4775 14.5081 83.6277 14.5857 83.777 14.6653C83.9262 14.745 84.0742 14.8267 84.2213 14.9105C84.3682 14.9942 84.5139 15.08 84.6586 15.1678C84.8031 15.2556 84.9465 15.3454 85.0887 15.4371C85.2307 15.5288 85.3715 15.6225 85.5111 15.7182C85.6506 15.8138 85.7887 15.9113 85.9256 16.0108C86.0625 16.1103 86.1979 16.2116 86.3318 16.3148C86.466 16.4179 86.5986 16.523 86.7297 16.6298C86.8607 16.7367 86.9904 16.8453 87.1186 16.9558C87.2467 17.0662 87.3732 17.1784 87.4982 17.2923C87.6234 17.4062 87.7469 17.5219 87.8686 17.6392C87.9904 17.7566 88.1107 17.8756 88.2293 17.9962C88.3479 18.1169 88.4646 18.2391 88.5799 18.363C88.6949 18.4869 88.8084 18.6124 88.9201 18.7394C89.0318 18.8664 89.1418 18.9949 89.25 19.125L100.375 31.625C100.448 31.7099 100.524 31.7926 100.601 31.8732C100.679 31.954 100.759 32.0324 100.841 32.1088C100.922 32.1851 101.006 32.2592 101.093 32.3308C101.179 32.4025 101.267 32.4719 101.356 32.5387C101.446 32.6056 101.538 32.6699 101.631 32.7318C101.725 32.7937 101.82 32.8529 101.916 32.9095C102.013 32.9662 102.111 33.0201 102.21 33.0715C102.31 33.1228 102.411 33.1713 102.513 33.217C102.615 33.2627 102.719 33.3056 102.823 33.3457C102.928 33.3857 103.034 33.423 103.14 33.4572C103.247 33.4914 103.354 33.5228 103.463 33.5512C103.571 33.5795 103.68 33.6049 103.79 33.6273C103.899 33.6498 104.01 33.6691 104.121 33.6853C104.231 33.7017 104.342 33.715 104.454 33.7254C104.565 33.7355 104.677 33.7428 104.789 33.7469C104.901 33.751 105.013 33.7521 105.125 33.75L179.25 33C179.558 33 179.865 33.0074 180.172 33.0224C180.479 33.0375 180.786 33.0601 181.092 33.09C181.398 33.1201 181.704 33.1576 182.008 33.2025C182.312 33.2474 182.615 33.2998 182.917 33.3596C183.219 33.4193 183.519 33.4865 183.817 33.5609C184.116 33.6353 184.412 33.717 184.707 33.8058C185.001 33.8947 185.293 33.9908 185.583 34.0941C185.873 34.1972 186.16 34.3074 186.444 34.4248C186.729 34.542 187.01 34.666 187.288 34.7971C187.567 34.9281 187.842 35.0658 188.113 35.2101C188.385 35.3547 188.653 35.5056 188.917 35.6633C189.181 35.8207 189.441 35.9846 189.698 36.1549C189.954 36.3252 190.206 36.5015 190.453 36.6842C190.701 36.8668 190.944 37.0553 191.182 37.2496C191.421 37.4441 191.654 37.6443 191.882 37.8502C192.111 38.056 192.334 38.2674 192.553 38.4842C192.771 38.7008 192.984 38.9228 193.191 39.15C193.398 39.3771 193.6 39.6094 193.796 39.8465C193.992 40.0834 194.182 40.3252 194.367 40.5715C194.551 40.8178 194.729 41.0685 194.901 41.3236C195.073 41.5787 195.239 41.8379 195.398 42.101C195.557 42.364 195.71 42.631 195.855 42.9015C196.003 43.1721 196.143 43.4461 196.275 43.7236C196.408 44.0012 196.534 44.2816 196.652 44.5652C196.772 44.8488 196.885 45.1351 196.988 45.4242C197.094 45.7133 197.191 46.0047 197.283 46.2986C197.375 46.5926 197.457 46.8885 197.533 47.1865C197.609 47.4844 197.68 47.784 197.74 48.0853C197.803 48.3867 197.857 48.6894 197.904 48.9933C197.951 49.2974 197.99 49.6023 198.023 49.9084C198.055 50.2142 198.078 50.5207 198.096 50.8279C198.113 51.1351 198.123 51.4424 198.125 51.75L198.125 164.25C198.133 164.561 198.133 164.872 198.127 165.183C198.121 165.494 198.105 165.804 198.084 166.115C198.061 166.425 198.031 166.735 197.994 167.044C197.957 167.352 197.912 167.66 197.859 167.967C197.807 168.273 197.746 168.578 197.678 168.882C197.609 169.186 197.535 169.488 197.453 169.788C197.371 170.088 197.281 170.386 197.184 170.681C197.088 170.977 196.982 171.27 196.871 171.56C196.76 171.85 196.642 172.138 196.516 172.423C196.391 172.707 196.258 172.989 196.119 173.267C195.98 173.545 195.834 173.82 195.682 174.09C195.528 174.361 195.368 174.628 195.203 174.892C195.037 175.155 194.865 175.414 194.686 175.668C194.507 175.923 194.322 176.173 194.131 176.419C193.941 176.664 193.744 176.905 193.541 177.141C193.338 177.377 193.13 177.608 192.916 177.833C192.701 178.059 192.482 178.279 192.257 178.494C192.032 178.709 191.802 178.918 191.567 179.122C191.332 179.326 191.092 179.523 190.847 179.715C190.602 179.907 190.352 180.093 190.098 180.272C189.844 180.452 189.586 180.625 189.323 180.792C189.061 180.959 188.794 181.119 188.524 181.273C188.253 181.426 187.979 181.573 187.702 181.714C187.424 181.854 187.143 181.988 186.859 182.114C186.575 182.241 186.288 182.36 185.998 182.472C185.708 182.585 185.415 182.69 185.12 182.788C184.824 182.886 184.527 182.977 184.227 183.06C183.928 183.144 183.626 183.22 183.323 183.288C183.019 183.357 182.714 183.418 182.408 183.472C182.101 183.526 181.794 183.572 181.485 183.61C181.176 183.649 180.867 183.68 180.557 183.703C180.246 183.726 179.936 183.742 179.625 183.75ZM20.375 25C20.272 25 20.169 25.0025 20.066 25.0074C19.9631 25.0124 19.8604 25.0199 19.7578 25.0299C19.6552 25.0398 19.5529 25.0522 19.4511 25.0672C19.3491 25.082 19.2476 25.0994 19.1464 25.1193C19.0453 25.1391 18.9448 25.1614 18.8447 25.1861C18.7447 25.2109 18.6453 25.2379 18.5466 25.2674C18.4479 25.2969 18.3499 25.3288 18.2528 25.3631C18.1556 25.3975 18.0593 25.4341 17.9639 25.473C17.8685 25.512 17.7741 25.5532 17.6807 25.5967C17.5873 25.6403 17.4951 25.6861 17.4039 25.734C17.3127 25.782 17.2227 25.8322 17.134 25.8846C17.0453 25.9369 16.9578 25.9914 16.8717 26.048C16.7856 26.1047 16.701 26.1633 16.6177 26.224C16.5344 26.2847 16.4527 26.3474 16.3725 26.4121C16.2923 26.4768 16.2137 26.5434 16.1367 26.6119C16.0597 26.6804 15.9844 26.7507 15.9108 26.8228C15.8372 26.895 15.7654 26.9688 15.6954 27.0443C15.6254 27.12 15.5573 27.1973 15.4911 27.2762C15.4248 27.3551 15.3605 27.4355 15.2982 27.5176C15.2358 27.5996 15.1755 27.6831 15.1172 27.7682C15.0589 27.8532 15.0027 27.9395 14.9486 28.0271C14.8945 28.1148 14.8425 28.2037 14.7927 28.2939C14.7429 28.3842 14.6954 28.4756 14.65 28.5682C14.6046 28.6606 14.5615 28.7542 14.5207 28.8488C14.4798 28.9434 14.4413 29.0389 14.4051 29.1353C14.3689 29.2318 14.3351 29.3292 14.3036 29.4273C14.2721 29.5254 14.243 29.6242 14.2163 29.7236C14.1896 29.8232 14.1654 29.9234 14.1436 30.024C14.1217 30.1248 14.1023 30.226 14.0854 30.3275C14.0685 30.4292 14.054 30.5312 14.042 30.6336C14.0301 30.7359 14.0206 30.8385 14.0136 30.9412C14.0065 31.0441 14.002 31.147 14 31.25L14 164.875C14 164.979 14.0026 165.084 14.0077 165.188C14.0128 165.292 14.0205 165.396 14.0307 165.5C14.0409 165.604 14.0537 165.707 14.069 165.81C14.0843 165.914 14.1021 166.016 14.1225 166.119C14.1429 166.221 14.1657 166.323 14.1911 166.424C14.2164 166.525 14.2442 166.626 14.2745 166.726C14.3048 166.825 14.3375 166.924 14.3727 167.023C14.4078 167.121 14.4453 167.218 14.4853 167.315C14.5252 167.411 14.5675 167.506 14.6121 167.601C14.6567 167.695 14.7036 167.788 14.7528 167.88C14.8019 167.972 14.8533 168.063 14.907 168.152C14.9606 168.242 15.0164 168.33 15.0744 168.417C15.1323 168.503 15.1924 168.589 15.2546 168.673C15.3167 168.756 15.3809 168.839 15.4471 168.919C15.5132 169 15.5814 169.079 15.6514 169.156C15.7215 169.233 15.7934 169.309 15.8672 169.383C15.941 169.456 16.0165 169.528 16.0938 169.599C16.1711 169.669 16.2501 169.737 16.3307 169.803C16.4114 169.869 16.4936 169.933 16.5774 169.995C16.6612 170.058 16.7465 170.118 16.8332 170.176C16.92 170.234 17.0081 170.289 17.0976 170.343C17.1871 170.397 17.2778 170.448 17.3698 170.497C17.4619 170.546 17.555 170.593 17.6493 170.638C17.7437 170.683 17.839 170.725 17.9354 170.765C18.0318 170.805 18.1291 170.842 18.2273 170.877C18.3255 170.912 18.4246 170.945 18.5244 170.975C18.6243 171.006 18.7248 171.034 18.826 171.059C18.9272 171.084 19.029 171.107 19.1313 171.128C19.2336 171.148 19.3364 171.166 19.4396 171.181C19.5428 171.196 19.6463 171.209 19.7502 171.219C19.854 171.229 19.9579 171.237 20.0621 171.242C20.1664 171.247 20.2707 171.25 20.375 171.25L179.625 171.25C179.729 171.25 179.834 171.247 179.938 171.242C180.042 171.237 180.146 171.229 180.25 171.219C180.354 171.209 180.457 171.196 180.56 171.181C180.664 171.166 180.766 171.148 180.869 171.128C180.971 171.107 181.073 171.084 181.174 171.059C181.275 171.034 181.376 171.006 181.476 170.975C181.575 170.945 181.674 170.912 181.773 170.877C181.871 170.842 181.968 170.805 182.065 170.765C182.161 170.725 182.256 170.683 182.351 170.638C182.445 170.593 182.538 170.546 182.63 170.497C182.722 170.448 182.813 170.397 182.902 170.343C182.992 170.289 183.08 170.234 183.167 170.176C183.254 170.118 183.339 170.058 183.423 169.995C183.506 169.933 183.589 169.869 183.669 169.803C183.75 169.737 183.829 169.669 183.906 169.599C183.983 169.528 184.059 169.456 184.133 169.383C184.207 169.309 184.279 169.233 184.349 169.156C184.419 169.079 184.487 169 184.553 168.919C184.619 168.839 184.683 168.756 184.746 168.672C184.808 168.589 184.868 168.503 184.926 168.417C184.984 168.33 185.039 168.242 185.093 168.152C185.147 168.063 185.198 167.972 185.247 167.88C185.296 167.788 185.343 167.695 185.388 167.601C185.433 167.506 185.475 167.411 185.515 167.315C185.555 167.218 185.592 167.121 185.627 167.023C185.663 166.924 185.695 166.825 185.725 166.726C185.756 166.626 185.784 166.525 185.809 166.424C185.834 166.323 185.857 166.221 185.878 166.119C185.898 166.016 185.916 165.914 185.931 165.81C185.946 165.707 185.959 165.604 185.969 165.5C185.979 165.396 185.987 165.292 185.992 165.188C185.997 165.084 186 164.979 186 164.875L186 52.375C185.998 52.272 185.993 52.1691 185.987 52.0662C185.979 51.9635 185.97 51.8609 185.958 51.7586C185.946 51.6562 185.932 51.5543 185.915 51.4525C185.898 51.351 185.878 51.2498 185.856 51.149C185.835 51.0484 185.81 50.9482 185.784 50.8486C185.757 50.7492 185.728 50.6504 185.696 50.5523C185.665 50.4541 185.631 50.3568 185.595 50.2603C185.559 50.1638 185.52 50.0683 185.479 49.9738C185.438 49.8791 185.395 49.7855 185.35 49.6929C185.305 49.6006 185.257 49.5092 185.207 49.4189C185.157 49.3287 185.105 49.2398 185.051 49.1521C184.997 49.0644 184.941 48.9781 184.883 48.8931C184.824 48.8082 184.764 48.7246 184.702 48.6426C184.639 48.5605 184.575 48.4801 184.509 48.4011C184.443 48.3222 184.375 48.2449 184.304 48.1693C184.235 48.0937 184.163 48.0199 184.089 47.9478C184.016 47.8758 183.94 47.8054 183.863 47.7369C183.786 47.6683 183.708 47.6017 183.628 47.5371C183.547 47.4724 183.466 47.4097 183.382 47.349C183.299 47.2883 183.214 47.2297 183.128 47.173C183.042 47.1164 182.955 47.0619 182.866 47.0095C182.777 46.9572 182.687 46.907 182.596 46.859C182.505 46.8111 182.413 46.7652 182.319 46.7217C182.226 46.6781 182.131 46.6369 182.036 46.598C181.941 46.5592 181.844 46.5224 181.747 46.4881C181.65 46.4539 181.552 46.4219 181.453 46.3924C181.355 46.3629 181.255 46.3359 181.155 46.3111C181.055 46.2863 180.955 46.264 180.854 46.2443C180.753 46.2244 180.651 46.207 180.549 46.1922C180.447 46.1771 180.345 46.1648 180.242 46.1549C180.14 46.1449 180.037 46.1373 179.934 46.1324C179.831 46.1275 179.728 46.125 179.625 46.125L105.625 46.875C105.453 46.874 105.28 46.8705 105.108 46.8644C104.936 46.8586 104.764 46.8504 104.592 46.8396C104.421 46.8289 104.249 46.8158 104.077 46.8004C103.906 46.7849 103.734 46.767 103.563 46.7467C103.392 46.7263 103.222 46.7037 103.051 46.6787C102.881 46.6535 102.711 46.6262 102.541 46.5965C102.371 46.5666 102.202 46.5345 102.034 46.5C101.865 46.4654 101.697 46.4285 101.529 46.3892C101.361 46.35 101.194 46.3086 101.028 46.2646C100.861 46.2207 100.695 46.1746 100.53 46.126C100.364 46.0775 100.2 46.0267 100.036 45.9736C99.8723 45.9205 99.7092 45.865 99.5469 45.8074C99.3846 45.7498 99.2232 45.6898 99.0625 45.6275C98.902 45.5654 98.7422 45.501 98.5834 45.4344C98.4246 45.3678 98.2666 45.2988 98.1098 45.2277C97.9529 45.1568 97.7971 45.0836 97.6422 45.0082C97.4873 44.9328 97.3336 44.8553 97.1809 44.7754C97.0283 44.6957 96.8768 44.6138 96.7264 44.5301C96.576 44.4461 96.4268 44.3601 96.2787 44.272C96.1307 44.184 95.984 44.0937 95.8385 44.0015C95.693 43.9094 95.5488 43.8152 95.4061 43.7189C95.2633 43.6226 95.1217 43.5244 94.9816 43.4242C94.8416 43.324 94.7027 43.222 94.5654 43.1179C94.4281 43.0138 94.2924 42.908 94.1582 42.8002C94.024 42.6922 93.8912 42.5826 93.76 42.4711C93.6287 42.3596 93.499 42.2461 93.3709 42.1308C93.243 42.0158 93.1164 41.8988 92.9916 41.7801C92.8668 41.6615 92.7438 41.541 92.6223 41.4189C92.501 41.2967 92.3812 41.1728 92.2633 41.0474C92.1453 40.9219 92.0291 40.7947 91.9146 40.666C91.8002 40.5373 91.6875 40.407 91.5768 40.2752C91.466 40.1433 91.357 40.0099 91.25 39.875L80.25 27.375C80.1729 27.277 80.0928 27.1813 80.0098 27.0881C79.9268 26.9947 79.8412 26.904 79.7529 26.8158C79.6645 26.7277 79.5736 26.6422 79.4801 26.5596C79.3867 26.4769 79.2908 26.3971 79.1926 26.3201C79.0943 26.2432 78.9938 26.1693 78.8912 26.0984C78.7885 26.0275 78.6838 25.9596 78.577 25.8949C78.4701 25.8303 78.3615 25.7689 78.2512 25.7107C78.1408 25.6527 78.0287 25.5979 77.915 25.5463C77.8014 25.4949 77.6861 25.4469 77.5695 25.4023C77.4529 25.3578 77.3352 25.3168 77.2162 25.2793C77.0973 25.2418 76.9771 25.2079 76.8561 25.1777C76.735 25.1474 76.6131 25.1208 76.4904 25.0979C76.3678 25.0748 76.2445 25.0555 76.1207 25.0398C75.9969 25.0242 75.8727 25.0124 75.748 25.0043C75.6236 24.9961 75.499 24.9916 75.3742 24.9908C75.2494 24.9902 75.1246 24.9932 75 25L20.375 25Z"   fill="#FFCF48" >
</path>
<path d="M89.25 147.75L87.5 147.5C86.7301 147.27 85.9668 147.019 85.2102 146.749C84.4537 146.478 83.7049 146.187 82.9641 145.876C82.223 145.565 81.491 145.234 80.7678 144.884C80.0445 144.533 79.3311 144.164 78.6277 143.776C77.9242 143.387 77.2316 142.98 76.55 142.555C75.8684 142.129 75.1986 141.685 74.5406 141.224C73.8828 140.763 73.2378 140.284 72.6055 139.788C71.9733 139.292 71.3548 138.779 70.75 138.25C70.6619 138.177 70.5758 138.102 70.4918 138.024C70.4078 137.946 70.326 137.866 70.2465 137.784C70.1668 137.701 70.0895 137.617 70.0146 137.531C69.9397 137.444 69.8671 137.356 69.7971 137.265C69.7269 137.175 69.6593 137.082 69.5943 136.988C69.5292 136.894 69.4668 136.798 69.407 136.7C69.3474 136.603 69.2904 136.504 69.2359 136.403C69.1816 136.302 69.1301 136.2 69.0814 136.096C69.0328 135.993 68.987 135.888 68.9441 135.782C68.9012 135.676 68.8612 135.568 68.8242 135.46C68.7871 135.352 68.7531 135.243 68.7221 135.132C68.691 135.022 68.6629 134.911 68.6381 134.8C68.6131 134.688 68.5912 134.576 68.5725 134.463C68.5537 134.35 68.538 134.236 68.5254 134.123C68.5129 134.009 68.5035 133.895 68.4973 133.781C68.4909 133.666 68.4877 133.552 68.4877 133.438C68.4877 133.323 68.4909 133.209 68.4973 133.094C68.5035 132.98 68.5129 132.866 68.5254 132.752C68.538 132.639 68.5537 132.525 68.5725 132.412C68.5912 132.299 68.6131 132.187 68.6381 132.075C68.6629 131.964 68.691 131.853 68.7221 131.743C68.7531 131.632 68.7871 131.523 68.8242 131.415C68.8612 131.307 68.9012 131.199 68.9441 131.093C68.987 130.987 69.0328 130.882 69.0814 130.779C69.1301 130.675 69.1816 130.573 69.2359 130.472C69.2904 130.371 69.3475 130.272 69.4072 130.175C69.4669 130.077 69.5292 129.981 69.5943 129.887C69.6593 129.793 69.7269 129.7 69.7971 129.61C69.8671 129.519 69.9397 129.431 70.0146 129.344C70.0895 129.258 70.1668 129.173 70.2465 129.091C70.326 129.009 70.4078 128.929 70.4918 128.851C70.5758 128.773 70.6619 128.698 70.75 128.625C70.8262 128.572 70.9008 128.517 70.9738 128.459C71.0469 128.402 71.1183 128.343 71.1881 128.281C71.2578 128.22 71.3257 128.157 71.392 128.092C71.4583 128.027 71.5227 127.96 71.5852 127.891C71.6477 127.822 71.7082 127.752 71.7668 127.68C71.8254 127.608 71.8819 127.534 71.9363 127.459C71.9908 127.384 72.0431 127.307 72.0934 127.229C72.1436 127.151 72.1916 127.072 72.2373 126.991C72.2831 126.91 72.3266 126.828 72.3678 126.745C72.4091 126.662 72.4479 126.577 72.4844 126.492C72.521 126.407 72.5551 126.32 72.5867 126.233C72.6185 126.146 72.6478 126.057 72.6746 125.969C72.7013 125.88 72.7256 125.79 72.7475 125.7C72.7692 125.61 72.7885 125.519 72.8053 125.427C72.8221 125.336 72.8363 125.244 72.8479 125.152C72.8595 125.06 72.8685 124.968 72.875 124.875C72.8809 124.821 72.8858 124.767 72.8898 124.713C72.8939 124.658 72.8969 124.604 72.8988 124.55C72.9009 124.495 72.902 124.441 72.9021 124.387C72.9024 124.332 72.9016 124.278 72.8998 124.223C72.8981 124.169 72.8954 124.115 72.8916 124.061C72.888 124.006 72.8833 123.952 72.8777 123.898C72.8721 123.844 72.8656 123.79 72.8582 123.736C72.8506 123.682 72.8422 123.628 72.8328 123.575C72.8234 123.521 72.8131 123.468 72.8018 123.415C72.7906 123.362 72.7784 123.308 72.7652 123.256C72.7521 123.203 72.738 123.15 72.723 123.098C72.7079 123.046 72.692 122.994 72.6752 122.942C72.6584 122.89 72.6407 122.839 72.6221 122.788C72.6033 122.737 72.5838 122.686 72.5635 122.636C72.543 122.585 72.5217 122.535 72.4994 122.486C72.4773 122.436 72.4542 122.387 72.4303 122.338C72.4063 122.289 72.3815 122.241 72.3559 122.193C72.3302 122.145 72.3037 122.097 72.2764 122.05C72.249 122.003 72.2209 121.957 72.192 121.911C72.1631 121.865 72.1333 121.819 72.1027 121.774C72.0721 121.729 72.0408 121.685 72.0086 121.641C71.9766 121.597 71.9437 121.554 71.91 121.511C71.8763 121.468 71.8419 121.426 71.8068 121.385C71.7717 121.343 71.7358 121.302 71.6992 121.262C71.6626 121.222 71.6253 121.182 71.5873 121.143C71.5493 121.104 71.5106 121.066 71.4713 121.029C71.432 120.991 71.392 120.954 71.3514 120.918C71.3107 120.882 71.2695 120.846 71.2275 120.812C71.1856 120.777 71.1432 120.743 71.1002 120.71C71.0571 120.677 71.0134 120.644 70.9691 120.613C70.9249 120.581 70.8801 120.55 70.8348 120.52C70.7895 120.49 70.7437 120.461 70.6975 120.432C70.6511 120.404 70.6042 120.376 70.5568 120.349C70.5096 120.322 70.4618 120.296 70.4135 120.271C70.3653 120.246 70.3167 120.222 70.2676 120.199C70.2185 120.175 70.169 120.153 70.1191 120.131C70.0691 120.109 70.0189 120.089 69.9684 120.069C69.9177 120.049 69.8667 120.03 69.8154 120.012C69.7641 119.994 69.7125 119.976 69.6605 119.96C69.6087 119.944 69.5566 119.929 69.5041 119.914C69.4516 119.9 69.399 119.886 69.3461 119.874C69.2932 119.861 69.2401 119.849 69.1867 119.839C69.1335 119.828 69.0799 119.818 69.0262 119.81C68.9725 119.801 68.9187 119.793 68.8648 119.786C68.8109 119.779 68.7569 119.773 68.7027 119.768C68.6486 119.763 68.5943 119.759 68.54 119.756C68.4857 119.753 68.4314 119.751 68.377 119.749C68.3225 119.748 68.2682 119.748 68.2139 119.749C68.1594 119.75 68.1051 119.751 68.0508 119.754C67.9965 119.757 67.9422 119.76 67.8881 119.765C67.8338 119.769 67.7797 119.775 67.7258 119.782C67.6717 119.788 67.6178 119.795 67.5641 119.804C67.5104 119.812 67.4568 119.822 67.4033 119.832C67.3499 119.842 67.2967 119.853 67.2438 119.865C67.1908 119.878 67.1379 119.891 67.0854 119.905C67.0329 119.919 66.9806 119.933 66.9285 119.949C66.8766 119.965 66.8249 119.982 66.7734 120C66.722 120.017 66.6709 120.036 66.6201 120.056C66.5693 120.075 66.5189 120.095 66.4688 120.117C66.4187 120.138 66.3691 120.16 66.3199 120.183C66.2706 120.206 66.2217 120.23 66.1732 120.255C66.1248 120.279 66.0768 120.305 66.0293 120.331C65.9818 120.358 65.9347 120.385 65.8881 120.413C65.8416 120.441 65.7956 120.47 65.75 120.5C65.6443 120.546 65.5375 120.589 65.4297 120.63C65.3217 120.67 65.2129 120.707 65.1031 120.742C64.9934 120.777 64.8828 120.809 64.7713 120.838C64.6598 120.867 64.5477 120.894 64.435 120.917C64.3222 120.94 64.2088 120.961 64.0949 120.979C63.9811 120.996 63.8669 121.011 63.7523 121.023C63.6378 121.035 63.5229 121.043 63.4078 121.049C63.2928 121.055 63.1777 121.058 63.0625 121.058C62.9473 121.058 62.8322 121.055 62.7172 121.049C62.6021 121.043 62.4872 121.035 62.3727 121.023C62.2581 121.011 62.1439 120.996 62.0301 120.979C61.9162 120.961 61.8028 120.94 61.69 120.917C61.5773 120.894 61.4652 120.867 61.3537 120.838C61.2422 120.809 61.1316 120.777 61.0219 120.742C60.9121 120.707 60.8033 120.67 60.6953 120.63C60.5875 120.589 60.4807 120.546 60.375 120.5C60.268 120.454 60.1623 120.404 60.058 120.351C59.9537 120.299 59.8511 120.243 59.75 120.185C59.6488 120.126 59.5495 120.065 59.452 120.001C59.3543 119.937 59.2586 119.87 59.1648 119.801C59.0711 119.731 58.9794 119.659 58.8898 119.584C58.8003 119.509 58.7128 119.432 58.6275 119.352C58.5424 119.272 58.4595 119.19 58.3789 119.105C58.2984 119.021 58.2204 118.934 58.1449 118.845C58.0694 118.756 57.9965 118.665 57.9262 118.572C57.8557 118.478 57.7881 118.383 57.7232 118.286C57.6584 118.189 57.5964 118.09 57.5371 117.99C57.4779 117.889 57.4215 117.787 57.3682 117.683C57.3148 117.579 57.2644 117.474 57.217 117.367C57.1696 117.26 57.1253 117.152 57.0842 117.043C57.0429 116.934 57.0048 116.823 56.9699 116.712C56.9352 116.601 56.9035 116.488 56.875 116.375C56.5865 115.424 56.3331 114.463 56.115 113.494C55.8969 112.524 55.7146 111.548 55.5682 110.564C55.4218 109.581 55.3117 108.594 55.2377 107.603C55.1636 106.612 55.126 105.619 55.125 104.625C55.1353 103.718 55.1744 102.812 55.2424 101.907C55.3104 101.002 55.407 100.101 55.5324 99.2022C55.6578 98.3036 55.8117 97.41 55.9939 96.5213C56.1762 95.6325 56.3866 94.7504 56.625 93.8751C56.6467 93.7696 56.6714 93.6649 56.699 93.561C56.7266 93.4569 56.757 93.3536 56.7902 93.2512C56.8234 93.1489 56.8594 93.0475 56.8982 92.9471C56.937 92.8467 56.9786 92.7475 57.0229 92.6495C57.0671 92.5512 57.114 92.4544 57.1635 92.359C57.2131 92.2633 57.2652 92.1692 57.3199 92.0766C57.3747 91.984 57.432 91.8928 57.4918 91.8034C57.5516 91.7139 57.6137 91.626 57.6783 91.5399C57.7428 91.4538 57.8096 91.3696 57.8789 91.2872C57.948 91.2047 58.0195 91.1243 58.0932 91.0458C58.1667 90.9672 58.2424 90.8909 58.3203 90.8167C58.3982 90.7422 58.478 90.67 58.5598 90.6001C58.6415 90.5301 58.7252 90.4624 58.8107 90.3971C58.8963 90.3317 58.9835 90.2688 59.0725 90.2083C59.1614 90.1477 59.252 90.0895 59.3441 90.034C59.4363 89.9784 59.5299 89.9254 59.625 89.8751C59.7251 89.829 59.8264 89.7856 59.9287 89.745C60.0312 89.7044 60.1346 89.6665 60.2391 89.6315C60.3435 89.5963 60.4488 89.5641 60.5551 89.5348C60.6613 89.5053 60.7682 89.4788 60.8758 89.4553C60.9835 89.4317 61.0917 89.411 61.2004 89.3934C61.3091 89.3755 61.4182 89.3606 61.5277 89.3489C61.6374 89.337 61.7472 89.328 61.8572 89.3221C61.9672 89.3163 62.0773 89.3133 62.1875 89.3133C62.2977 89.3133 62.4078 89.3163 62.5178 89.3221C62.6278 89.328 62.7376 89.337 62.8471 89.3489C62.9567 89.3606 63.0659 89.3755 63.1746 89.3934C63.2833 89.411 63.3915 89.4317 63.4992 89.4553C63.6068 89.4788 63.7137 89.5053 63.8199 89.5348C63.9262 89.5641 64.0315 89.5963 64.1359 89.6315C64.2404 89.6665 64.3438 89.7044 64.4463 89.745C64.5486 89.7856 64.6499 89.829 64.75 89.8751C64.8427 89.9069 64.9363 89.936 65.0307 89.9624C65.1251 89.9887 65.2201 90.0124 65.3158 90.0333C65.4117 90.054 65.508 90.0717 65.6049 90.087C65.7018 90.102 65.799 90.1143 65.8965 90.1239C65.994 90.1333 66.0917 90.1397 66.1897 90.1434C66.2877 90.1469 66.3857 90.1477 66.4836 90.1458C66.5816 90.1434 66.6795 90.1385 66.7771 90.1307C66.8749 90.1229 66.9723 90.1122 67.0693 90.0985C67.1665 90.0848 67.2631 90.0684 67.3592 90.0493C67.4553 90.0299 67.5507 90.0079 67.6455 89.9831C67.7403 89.9581 67.8343 89.9305 67.9275 89.9001C68.0206 89.8696 68.1128 89.8364 68.2041 89.8006C68.2954 89.7647 68.3855 89.7262 68.4744 89.6852C68.5634 89.644 68.6511 89.6003 68.7375 89.5542C68.8238 89.5077 68.9088 89.4588 68.9924 89.4077C69.0758 89.3563 69.1578 89.3026 69.2381 89.2467C69.3186 89.1905 69.3972 89.1321 69.474 89.0714C69.551 89.0106 69.6261 88.9477 69.6994 88.8825C69.7726 88.8172 69.8438 88.7501 69.9131 88.6809C69.9824 88.6114 70.0496 88.5401 70.1146 88.4669C70.1798 88.3934 70.2426 88.3184 70.3033 88.2415C70.364 88.1645 70.4223 88.0858 70.4783 88.0053C70.5344 87.9249 70.5881 87.8428 70.6393 87.7594C70.6904 87.6758 70.7391 87.5907 70.7854 87.5044C70.8316 87.4178 70.8752 87.3301 70.9162 87.2413C70.9574 87.1522 70.9958 87.062 71.0314 86.9708C71.0672 86.8794 71.1003 86.7872 71.1307 86.694C71.161 86.6008 71.1885 86.5069 71.2133 86.412C71.2381 86.317 71.2602 86.2217 71.2793 86.1256C71.2984 86.0295 71.3148 85.9329 71.3283 85.8358C71.3419 85.7385 71.3525 85.6413 71.3604 85.5436C71.368 85.446 71.3729 85.3481 71.375 85.2501C71.374 85.1633 71.3705 85.0768 71.3646 84.9905C71.3589 84.904 71.3508 84.8178 71.3402 84.7319C71.3297 84.646 71.3169 84.5602 71.3018 84.4751C71.2865 84.3897 71.269 84.3049 71.2492 84.2206C71.2294 84.1362 71.2073 84.0526 71.1828 83.9694C71.1585 83.8862 71.1318 83.804 71.1027 83.7223C71.0738 83.6407 71.0427 83.5598 71.0094 83.4799C70.976 83.3999 70.9406 83.321 70.9029 83.243C70.8653 83.1649 70.8255 83.0881 70.7836 83.0124C70.7418 82.9364 70.6979 82.8618 70.652 82.7883C70.606 82.7149 70.5581 82.6428 70.5082 82.5721C70.4583 82.5012 70.4065 82.4319 70.3527 82.3639C70.2991 82.296 70.2436 82.2294 70.1863 82.1645C70.129 82.0995 70.07 82.0362 70.0092 81.9745C69.9484 81.9128 69.8859 81.8528 69.8219 81.7946C69.7578 81.7362 69.6922 81.6797 69.625 81.625C69.543 81.5528 69.4628 81.4786 69.3846 81.4023C69.3064 81.3262 69.2303 81.2479 69.1562 81.1676C69.0822 81.0872 69.0102 81.0051 68.9404 80.9211C68.8706 80.837 68.8031 80.7512 68.7379 80.6637C68.6727 80.576 68.6097 80.4868 68.549 80.3959C68.4885 80.305 68.4304 80.2126 68.3746 80.1186C68.3189 80.0247 68.2656 79.9294 68.2148 79.8326C68.1642 79.7359 68.116 79.6379 68.0703 79.5387C68.0247 79.4393 67.9818 79.3389 67.9414 79.2375C67.901 79.1359 67.8634 79.0334 67.8285 78.9299C67.7935 78.8265 67.7613 78.7222 67.7318 78.617C67.7023 78.5118 67.6755 78.4059 67.6516 78.2994C67.6276 78.1928 67.6065 78.0856 67.5883 77.9779C67.5699 77.8703 67.5544 77.7622 67.5418 77.6537C67.529 77.5451 67.5192 77.4363 67.5123 77.3273C67.5053 77.2184 67.5012 77.1092 67.5 77C67.5001 76.8921 67.5031 76.7842 67.5088 76.6764C67.5145 76.5686 67.5229 76.461 67.534 76.3537C67.5452 76.2463 67.5591 76.1393 67.5756 76.0326C67.5922 75.926 67.6115 75.8198 67.6334 75.7141C67.6554 75.6083 67.6801 75.5032 67.7074 75.3988C67.7348 75.2944 67.7647 75.1907 67.7973 75.0879C67.8298 74.985 67.865 74.883 67.9027 74.7818C67.9405 74.6807 67.9808 74.5805 68.0236 74.4814C68.0665 74.3824 68.1118 74.2844 68.1596 74.1877C68.2075 74.091 68.2578 73.9954 68.3103 73.9012C68.3631 73.807 68.4181 73.7143 68.4754 73.6228C68.5328 73.5313 68.5925 73.4414 68.6545 73.3531C68.7165 73.2647 68.7806 73.1779 68.8469 73.0928C68.9133 73.0076 68.9818 72.9242 69.0523 72.8426C69.1229 72.7609 69.1956 72.6811 69.2703 72.6031C69.3449 72.5251 69.4215 72.4491 69.5 72.375C69.8199 72.0853 70.1441 71.8003 70.4725 71.5199C70.8007 71.2396 71.1331 70.9641 71.4695 70.6936C71.8059 70.4231 72.1461 70.1575 72.4902 69.8969C72.8344 69.6363 73.1823 69.3809 73.534 69.1305C73.8857 68.8799 74.2409 68.6347 74.5996 68.3947C74.9584 68.1547 75.3207 67.9201 75.6863 67.6906C76.0521 67.4612 76.4211 67.2372 76.7934 67.0186C77.1654 66.7999 77.5408 66.5868 77.9193 66.3791C78.2979 66.1714 78.6793 65.9694 79.0637 65.773C79.448 65.5766 79.8352 65.3857 80.2252 65.2006C80.6152 65.0154 81.0078 64.836 81.4029 64.6623C81.7982 64.4887 82.1959 64.3209 82.5961 64.1588C82.9963 63.9968 83.3986 63.8407 83.8033 63.6904C84.208 63.5402 84.6148 63.3959 85.0236 63.2576C85.4326 63.1193 85.8436 62.987 86.2562 62.8607C86.6691 62.7344 87.0838 62.6142 87.5 62.5C87.5971 62.4737 87.6949 62.4497 87.7934 62.4281C87.8916 62.4065 87.9904 62.3873 88.0896 62.3705C88.1889 62.3536 88.2885 62.3391 88.3885 62.3271C88.4885 62.3152 88.5887 62.3056 88.6891 62.2984C88.7896 62.2913 88.8902 62.2865 88.9908 62.2842C89.0914 62.2818 89.1922 62.2819 89.2928 62.2844C89.3934 62.287 89.4939 62.292 89.5943 62.2994C89.6947 62.3068 89.7949 62.3167 89.8947 62.3289C89.9947 62.3411 90.0943 62.3558 90.1936 62.3728C90.2928 62.3899 90.3916 62.4094 90.4898 62.4312C90.5881 62.453 90.6859 62.4771 90.783 62.5037C90.8801 62.5303 90.9766 62.5592 91.0723 62.5904C91.168 62.6217 91.2629 62.6552 91.3568 62.691C91.451 62.7267 91.5441 62.7647 91.6365 62.8051C91.7287 62.8454 91.8199 62.888 91.9102 62.9326C92.0004 62.9773 92.0895 63.0241 92.1773 63.0732C92.2654 63.1222 92.3521 63.1733 92.4375 63.2266C92.523 63.2798 92.6072 63.335 92.69 63.3922C92.7729 63.4495 92.8543 63.5087 92.9342 63.5699C93.0141 63.6311 93.0926 63.6943 93.1693 63.7594C93.2463 63.8243 93.3215 63.8911 93.3951 63.9598C93.4688 64.0284 93.5408 64.0988 93.6111 64.1709C93.6813 64.243 93.7498 64.3168 93.8166 64.3922C93.8832 64.4676 93.948 64.5446 94.0109 64.6232C94.074 64.7018 94.135 64.7818 94.1941 64.8633C94.2533 64.9448 94.3103 65.0277 94.3654 65.1119C94.4205 65.1962 94.4736 65.2817 94.5246 65.3686C94.5756 65.4554 94.6244 65.5434 94.6711 65.6326C94.7178 65.7218 94.7623 65.812 94.8047 65.9033C94.8471 65.9947 94.8871 66.087 94.925 66.1803C94.9629 66.2736 94.9984 66.3678 95.0318 66.4627C95.0652 66.5577 95.0963 66.6535 95.125 66.75C95.1502 66.8082 95.1766 66.8659 95.2041 66.9232C95.2316 66.9804 95.2602 67.0371 95.2898 67.0934C95.3195 67.1495 95.3502 67.205 95.382 67.26C95.4139 67.3149 95.4467 67.3693 95.4805 67.423C95.5143 67.4767 95.5492 67.5297 95.585 67.5822C95.6207 67.6346 95.6576 67.6863 95.6955 67.7373C95.7332 67.7882 95.7721 67.8385 95.8119 67.8881C95.8516 67.9376 95.8922 67.9863 95.9338 68.0342C95.9754 68.0822 96.018 68.1294 96.0613 68.1758C96.1047 68.2221 96.149 68.2676 96.1941 68.3123C96.2393 68.357 96.2852 68.4007 96.332 68.4436C96.3787 68.4865 96.4264 68.5285 96.4748 68.5695C96.5232 68.6107 96.5725 68.6508 96.6223 68.69C96.6721 68.7292 96.7229 68.7675 96.7742 68.8049C96.8256 68.8421 96.8777 68.8784 96.9305 68.9137C96.9832 68.9491 97.0367 68.9834 97.0908 69.0166C97.1449 69.0499 97.1996 69.0821 97.2549 69.1133C97.3102 69.1445 97.366 69.1747 97.4225 69.2037C97.4789 69.2327 97.5357 69.2607 97.5934 69.2877C97.651 69.3145 97.709 69.3403 97.7674 69.365C97.8258 69.3898 97.8848 69.4133 97.9441 69.4357C98.0037 69.4581 98.0635 69.4794 98.1236 69.4996C98.1838 69.5198 98.2443 69.5388 98.3053 69.5566C98.3662 69.5745 98.4275 69.5911 98.4891 69.6066C98.5506 69.6221 98.6125 69.6365 98.6746 69.6498C98.7367 69.6629 98.799 69.6749 98.8615 69.6855C98.9242 69.6964 98.9869 69.706 99.0498 69.7145C99.1129 69.7228 99.176 69.7299 99.2391 69.7359C99.3021 69.7419 99.3654 69.7467 99.4289 69.7504C99.4924 69.7539 99.5559 69.7562 99.6193 69.7574C99.6828 69.7586 99.7463 69.7586 99.8098 69.7574C99.8732 69.7561 99.9365 69.7537 100 69.75C100.065 69.7505 100.13 69.7497 100.195 69.7477C100.26 69.7456 100.325 69.7422 100.39 69.7375C100.454 69.7327 100.519 69.7266 100.584 69.7193C100.648 69.7119 100.713 69.7031 100.777 69.693C100.841 69.6829 100.905 69.6716 100.969 69.659C101.033 69.6463 101.096 69.6324 101.159 69.617C101.222 69.6018 101.285 69.5852 101.348 69.5674C101.41 69.5494 101.472 69.5303 101.534 69.51C101.596 69.4895 101.657 69.4678 101.718 69.4449C101.779 69.422 101.839 69.3979 101.899 69.3725C101.959 69.3471 102.018 69.3204 102.077 69.2926C102.136 69.2647 102.194 69.2357 102.251 69.2055C102.309 69.1753 102.366 69.1439 102.422 69.1113C102.478 69.0788 102.534 69.0451 102.588 69.0102C102.643 68.9753 102.697 68.9393 102.751 68.9023C102.804 68.8652 102.857 68.8271 102.909 68.7879C102.961 68.7487 103.012 68.7084 103.062 68.667C103.112 68.6257 103.161 68.5834 103.21 68.54C103.258 68.4967 103.306 68.4524 103.352 68.4072C103.399 68.3619 103.445 68.3156 103.489 68.2684C103.534 68.2212 103.578 68.1732 103.621 68.1242C103.663 68.0753 103.705 68.0255 103.746 67.9748C103.786 67.9241 103.826 67.8727 103.865 67.8203C103.903 67.768 103.941 67.7149 103.977 67.6611C104.013 67.6072 104.049 67.5527 104.083 67.4975C104.117 67.4421 104.15 67.3861 104.182 67.3295C104.214 67.2729 104.245 67.2156 104.274 67.1576C104.304 67.0998 104.332 67.0413 104.359 66.9822C104.386 66.9231 104.412 66.8635 104.437 66.8033C104.462 66.7433 104.485 66.6827 104.507 66.6215C104.529 66.5604 104.55 66.4989 104.57 66.4369C104.59 66.3751 104.608 66.3128 104.625 66.25C104.66 66.1556 104.697 66.0622 104.736 65.9697C104.776 65.8771 104.817 65.7856 104.861 65.6951C104.905 65.6045 104.951 65.515 104.999 65.4268C105.047 65.3385 105.097 65.2514 105.15 65.1654C105.202 65.0795 105.256 64.9949 105.313 64.9117C105.369 64.8284 105.428 64.7465 105.488 64.666C105.548 64.5857 105.611 64.5068 105.675 64.4293C105.739 64.3518 105.805 64.276 105.873 64.2018C105.941 64.1274 106.01 64.0548 106.082 63.984C106.153 63.913 106.226 63.8439 106.301 63.7766C106.375 63.7091 106.452 63.6436 106.529 63.5799C106.607 63.5162 106.687 63.4544 106.767 63.3945C106.848 63.3348 106.93 63.2769 107.014 63.2209C107.098 63.165 107.183 63.1112 107.269 63.0594C107.355 63.0077 107.442 62.958 107.531 62.9103C107.62 62.8628 107.709 62.8174 107.8 62.7742C107.891 62.731 107.983 62.69 108.076 62.6512C108.168 62.6124 108.262 62.5758 108.357 62.5414C108.451 62.5072 108.546 62.4752 108.643 62.4455C108.739 62.4158 108.835 62.3885 108.933 62.3635C109.03 62.3385 109.128 62.3158 109.227 62.2955C109.325 62.2752 109.424 62.2573 109.524 62.2418C109.623 62.2263 109.723 62.2132 109.823 62.2025C109.923 62.1919 110.023 62.1836 110.123 62.1777C110.224 62.1719 110.324 62.1684 110.425 62.1674C110.525 62.1663 110.626 62.1678 110.726 62.1717C110.827 62.1755 110.927 62.1817 111.028 62.1904C111.128 62.1991 111.228 62.2103 111.327 62.2238C111.427 62.2372 111.526 62.2531 111.625 62.2715C111.724 62.2898 111.822 62.3105 111.92 62.3336C112.018 62.3566 112.115 62.382 112.212 62.4098C112.309 62.4375 112.405 62.4676 112.5 62.5C112.915 62.6147 113.329 62.7357 113.74 62.8629C114.152 62.9901 114.562 63.1234 114.97 63.2629C115.377 63.4025 115.783 63.5481 116.186 63.6998C116.589 63.8515 116.99 64.0092 117.389 64.1729C117.787 64.3366 118.183 64.5064 118.577 64.682C118.97 64.8577 119.361 65.0392 119.749 65.2266C120.137 65.4139 120.522 65.6071 120.904 65.8063C121.287 66.0052 121.666 66.2098 122.042 66.4201C122.418 66.6305 122.79 66.8465 123.16 67.0682C123.529 67.2896 123.896 67.5167 124.258 67.7494C124.621 67.9819 124.98 68.2199 125.336 68.4633C125.691 68.7066 126.043 68.9553 126.391 69.2094C126.739 69.4633 127.084 69.7224 127.424 69.9867C127.764 70.251 128.1 70.5204 128.433 70.7947C128.765 71.0692 129.093 71.3486 129.417 71.6328C129.74 71.9171 130.06 72.2061 130.375 72.5C130.454 72.5741 130.53 72.6501 130.605 72.7281C130.679 72.8061 130.752 72.8859 130.823 72.9676C130.893 73.0492 130.962 73.1326 131.028 73.2178C131.094 73.3029 131.159 73.3896 131.221 73.4779C131.282 73.5663 131.342 73.6563 131.4 73.7478C131.457 73.8393 131.512 73.932 131.565 74.0262C131.617 74.1204 131.668 74.2159 131.715 74.3127C131.763 74.4094 131.809 74.5073 131.851 74.6064C131.894 74.7055 131.935 74.8057 131.972 74.9068C132.01 75.008 132.045 75.11 132.078 75.2129C132.11 75.3158 132.14 75.4194 132.168 75.5238C132.195 75.6283 132.22 75.7333 132.242 75.8391C132.263 75.9448 132.283 76.051 132.299 76.1576C132.316 76.2643 132.33 76.3713 132.341 76.4787C132.352 76.586 132.361 76.6936 132.366 76.8014C132.372 76.9092 132.375 77.0171 132.375 77.125C132.371 77.2338 132.364 77.3424 132.355 77.4508C132.346 77.5592 132.334 77.6674 132.319 77.7754C132.304 77.8832 132.287 77.9906 132.267 78.0977C132.247 78.2047 132.225 78.3111 132.2 78.417C132.174 78.523 132.146 78.6282 132.116 78.7328C132.086 78.8372 132.053 78.941 132.017 79.0439C131.982 79.1468 131.944 79.2487 131.903 79.3498C131.863 79.4508 131.82 79.5508 131.774 79.6498C131.729 79.7486 131.681 79.8463 131.631 79.943C131.581 80.0395 131.528 80.1347 131.473 80.2287C131.418 80.3227 131.361 80.4153 131.301 80.5064C131.242 80.5976 131.18 80.6872 131.116 80.7752C131.052 80.8633 130.986 80.9498 130.918 81.0346C130.85 81.1195 130.779 81.2026 130.707 81.284C130.635 81.3653 130.561 81.4449 130.484 81.5227C130.408 81.6004 130.33 81.6762 130.25 81.7501C130.183 81.8047 130.117 81.8612 130.053 81.9196C129.989 81.9778 129.927 82.0378 129.866 82.0995C129.805 82.1612 129.746 82.2245 129.689 82.2895C129.631 82.3544 129.576 82.421 129.522 82.4889C129.469 82.5569 129.417 82.6262 129.367 82.6971C129.317 82.7678 129.269 82.8399 129.223 82.9133C129.177 82.9868 129.133 83.0614 129.091 83.1372C129.049 83.213 129.01 83.2899 128.972 83.368C128.934 83.446 128.899 83.5249 128.866 83.6049C128.832 83.6848 128.801 83.7657 128.772 83.8473C128.743 83.929 128.717 84.0112 128.692 84.0944C128.668 84.1776 128.646 84.2612 128.626 84.3456C128.606 84.4299 128.588 84.5147 128.573 84.6001C128.558 84.6852 128.545 84.771 128.535 84.8569C128.524 84.9428 128.516 85.029 128.51 85.1155C128.504 85.2018 128.501 85.2883 128.5 85.3751C128.5 85.4567 128.502 85.5385 128.506 85.6204C128.51 85.702 128.516 85.7837 128.524 85.8651C128.532 85.9465 128.542 86.0278 128.554 86.1087C128.566 86.1895 128.58 86.2702 128.596 86.3504C128.612 86.4307 128.63 86.5106 128.65 86.5899C128.67 86.6692 128.692 86.7481 128.715 86.8264C128.739 86.9047 128.765 86.9825 128.792 87.0594C128.82 87.1364 128.849 87.2128 128.881 87.2885C128.912 87.3639 128.945 87.4387 128.98 87.5128C129.015 87.5866 129.052 87.6598 129.09 87.7321C129.129 87.8042 129.169 87.8753 129.211 87.9456C129.253 88.0157 129.297 88.0848 129.343 88.153C129.388 88.221 129.435 88.2878 129.484 88.3536C129.533 88.4192 129.583 88.4837 129.635 88.5469C129.687 88.6102 129.74 88.6721 129.795 88.7329C129.85 88.7934 129.907 88.8528 129.964 88.9106C130.022 88.9684 130.081 89.0247 130.142 89.0797C130.203 89.1346 130.265 89.1881 130.328 89.2401C130.391 89.2921 130.456 89.3422 130.521 89.3911C130.587 89.4397 130.654 89.4868 130.722 89.5325C130.79 89.5778 130.859 89.6215 130.929 89.6637C131 89.7057 131.071 89.746 131.143 89.7846C131.215 89.8231 131.288 89.8598 131.362 89.895C131.436 89.9299 131.511 89.9631 131.587 89.9944C131.662 90.0256 131.738 90.0551 131.816 90.0829C131.893 90.1102 131.97 90.136 132.049 90.1598C132.127 90.1835 132.206 90.2053 132.285 90.2253C132.364 90.245 132.444 90.2629 132.525 90.279C132.605 90.295 132.685 90.3088 132.766 90.321C132.847 90.3329 132.929 90.3428 133.01 90.351C133.091 90.3588 133.173 90.3649 133.255 90.369C133.336 90.3729 133.418 90.3751 133.5 90.3751L135.125 90.3751C135.222 90.3292 135.321 90.286 135.421 90.2458C135.521 90.2053 135.621 90.1676 135.723 90.1329C135.825 90.0981 135.928 90.0661 136.031 90.037C136.135 90.0077 136.239 89.9813 136.344 89.9579C136.449 89.9344 136.555 89.9137 136.661 89.8961C136.767 89.8786 136.874 89.8637 136.981 89.852C137.088 89.8401 137.195 89.8313 137.302 89.8254C137.41 89.8196 137.517 89.8167 137.625 89.8167C137.733 89.8167 137.84 89.8196 137.948 89.8254C138.055 89.8313 138.162 89.8401 138.269 89.852C138.376 89.8637 138.483 89.8786 138.589 89.8961C138.695 89.9137 138.801 89.9344 138.906 89.9579C139.011 89.9813 139.115 90.0077 139.219 90.037C139.322 90.0661 139.425 90.0981 139.527 90.1329C139.629 90.1676 139.729 90.2053 139.829 90.2458C139.929 90.286 140.028 90.3292 140.125 90.3751C140.224 90.4217 140.322 90.4713 140.419 90.5237C140.515 90.576 140.61 90.6313 140.703 90.6893C140.796 90.7471 140.887 90.8079 140.977 90.8712C141.067 90.9344 141.154 91.0005 141.24 91.069C141.326 91.1374 141.41 91.2083 141.491 91.2817C141.573 91.3549 141.653 91.4305 141.73 91.5087C141.807 91.5866 141.882 91.6669 141.954 91.7493C142.027 91.8315 142.097 91.9159 142.164 92.0026C142.232 92.0889 142.297 92.1774 142.359 92.2676C142.422 92.3579 142.481 92.4499 142.538 92.5438C142.595 92.6376 142.65 92.7329 142.701 92.8299C142.752 92.9268 142.801 93.0251 142.847 93.1251C142.892 93.2247 142.935 93.3258 142.975 93.4282C143.014 93.5303 143.051 93.6337 143.085 93.7381C143.119 93.8424 143.149 93.9479 143.177 94.0542C143.204 94.1604 143.229 94.2672 143.25 94.3751C143.488 95.2504 143.699 96.1325 143.881 97.0213C144.063 97.91 144.217 98.8036 144.343 99.7022C144.468 100.601 144.565 101.502 144.633 102.407C144.701 103.312 144.74 104.218 144.75 105.125C144.738 106.063 144.698 107 144.629 107.935C144.56 108.871 144.463 109.803 144.338 110.733C144.212 111.663 144.059 112.588 143.878 113.508C143.696 114.428 143.487 115.342 143.25 116.25C143.22 116.354 143.188 116.458 143.153 116.561C143.119 116.663 143.081 116.765 143.042 116.866C143.002 116.967 142.96 117.067 142.916 117.166C142.871 117.265 142.824 117.362 142.775 117.459C142.726 117.556 142.675 117.651 142.621 117.745C142.567 117.84 142.511 117.932 142.453 118.024C142.395 118.115 142.334 118.205 142.272 118.294C142.209 118.382 142.145 118.469 142.078 118.555C142.011 118.64 141.942 118.724 141.871 118.806C141.801 118.888 141.728 118.969 141.653 119.048C141.579 119.126 141.502 119.203 141.424 119.278C141.345 119.353 141.265 119.426 141.183 119.497C141.102 119.568 141.018 119.637 140.933 119.704C140.847 119.771 140.761 119.836 140.672 119.899C140.584 119.962 140.494 120.023 140.403 120.081C140.312 120.14 140.219 120.196 140.125 120.25C140.026 120.289 139.925 120.325 139.824 120.359C139.723 120.393 139.622 120.425 139.519 120.455C139.417 120.484 139.313 120.511 139.21 120.536C139.106 120.56 139.002 120.582 138.897 120.602C138.792 120.622 138.687 120.639 138.581 120.654C138.476 120.669 138.37 120.681 138.264 120.691C138.158 120.701 138.051 120.708 137.945 120.713C137.838 120.718 137.732 120.721 137.625 120.721C137.518 120.721 137.412 120.718 137.305 120.713C137.199 120.708 137.092 120.701 136.986 120.691C136.88 120.681 136.774 120.669 136.669 120.654C136.563 120.639 136.458 120.622 136.353 120.602C136.248 120.582 136.144 120.56 136.04 120.536C135.937 120.511 135.833 120.484 135.731 120.455C135.628 120.425 135.527 120.393 135.426 120.359C135.325 120.325 135.224 120.289 135.125 120.25C135.033 120.21 134.939 120.173 134.844 120.139C134.749 120.105 134.654 120.074 134.557 120.047C134.46 120.019 134.363 119.994 134.264 119.972C134.166 119.951 134.067 119.932 133.968 119.917C133.868 119.901 133.768 119.889 133.668 119.88C133.568 119.871 133.467 119.865 133.367 119.863C133.266 119.86 133.165 119.861 133.065 119.865C132.964 119.868 132.864 119.875 132.764 119.885C132.663 119.896 132.564 119.909 132.465 119.925C132.365 119.942 132.267 119.961 132.169 119.984C132.071 120.007 131.973 120.033 131.877 120.062C131.78 120.091 131.685 120.123 131.591 120.158C131.496 120.193 131.403 120.231 131.311 120.272C131.219 120.313 131.129 120.356 131.039 120.403C130.95 120.45 130.863 120.499 130.777 120.552C130.69 120.604 130.606 120.659 130.524 120.716C130.441 120.774 130.361 120.834 130.282 120.897C130.203 120.96 130.126 121.025 130.052 121.092C129.977 121.16 129.905 121.23 129.835 121.302C129.765 121.374 129.697 121.449 129.631 121.525C129.566 121.602 129.503 121.681 129.443 121.761C129.382 121.841 129.325 121.924 129.27 122.008C129.214 122.092 129.162 122.178 129.112 122.266C129.062 122.353 129.015 122.442 128.971 122.533C128.928 122.623 128.886 122.715 128.848 122.808C128.81 122.901 128.775 122.996 128.742 123.091C128.71 123.186 128.681 123.283 128.655 123.38C128.629 123.477 128.606 123.575 128.586 123.674C128.566 123.773 128.549 123.872 128.536 123.972C128.522 124.071 128.512 124.171 128.505 124.272C128.498 124.372 128.494 124.473 128.493 124.573C128.492 124.674 128.494 124.774 128.5 124.875C128.503 124.96 128.508 125.045 128.515 125.129C128.521 125.214 128.53 125.298 128.542 125.382C128.553 125.466 128.566 125.55 128.581 125.634C128.596 125.717 128.613 125.8 128.632 125.883C128.651 125.966 128.672 126.048 128.696 126.13C128.719 126.212 128.744 126.293 128.771 126.373C128.798 126.454 128.827 126.533 128.858 126.612C128.889 126.691 128.922 126.77 128.956 126.847C128.991 126.924 129.028 127.001 129.066 127.077C129.105 127.153 129.145 127.227 129.187 127.301C129.229 127.375 129.273 127.447 129.318 127.519C129.364 127.59 129.411 127.661 129.46 127.731C129.509 127.8 129.56 127.868 129.612 127.935C129.664 128.002 129.718 128.067 129.774 128.131C129.829 128.196 129.887 128.258 129.945 128.32C130.004 128.381 130.063 128.441 130.125 128.5C130.209 128.566 130.291 128.634 130.371 128.705C130.451 128.776 130.529 128.849 130.604 128.925C130.679 129 130.753 129.078 130.823 129.158C130.894 129.239 130.962 129.321 131.028 129.405C131.094 129.489 131.157 129.575 131.217 129.663C131.277 129.751 131.335 129.841 131.39 129.933C131.445 130.024 131.497 130.117 131.546 130.212C131.596 130.307 131.642 130.403 131.685 130.501C131.729 130.598 131.769 130.697 131.806 130.798C131.844 130.898 131.878 130.999 131.909 131.101C131.94 131.203 131.969 131.306 131.993 131.41C132.018 131.514 132.04 131.618 132.058 131.723C132.077 131.829 132.092 131.934 132.104 132.04C132.116 132.147 132.125 132.253 132.131 132.36C132.136 132.466 132.139 132.573 132.138 132.68C132.137 132.787 132.132 132.893 132.125 133C132.129 133.108 132.129 133.217 132.127 133.325C132.125 133.434 132.12 133.542 132.112 133.651C132.104 133.759 132.092 133.867 132.078 133.974C132.064 134.082 132.047 134.189 132.027 134.296C132.007 134.402 131.983 134.508 131.957 134.614C131.931 134.719 131.903 134.824 131.871 134.927C131.839 135.031 131.804 135.134 131.767 135.236C131.729 135.338 131.689 135.438 131.646 135.538C131.603 135.638 131.557 135.736 131.509 135.833C131.46 135.93 131.409 136.025 131.355 136.12C131.301 136.214 131.245 136.307 131.186 136.398C131.127 136.489 131.065 136.578 131.002 136.666C130.938 136.754 130.871 136.84 130.803 136.924C130.734 137.008 130.663 137.09 130.59 137.17C130.517 137.25 130.441 137.328 130.364 137.404C130.286 137.48 130.207 137.554 130.125 137.625C129.811 137.909 129.493 138.189 129.172 138.464C128.85 138.739 128.524 139.01 128.195 139.276C127.865 139.541 127.531 139.802 127.194 140.058C126.857 140.314 126.516 140.565 126.172 140.812C125.828 141.058 125.479 141.299 125.128 141.536C124.777 141.772 124.422 142.003 124.064 142.229C123.706 142.455 123.345 142.676 122.98 142.891C122.616 143.107 122.248 143.317 121.878 143.522C121.507 143.727 121.134 143.927 120.758 144.121C120.381 144.315 120.003 144.504 119.621 144.687C119.239 144.87 118.855 145.048 118.468 145.22C118.081 145.392 117.692 145.559 117.3 145.72C116.909 145.881 116.515 146.036 116.119 146.185C115.722 146.335 115.324 146.479 114.924 146.617C114.524 146.755 114.122 146.887 113.718 147.013C113.313 147.14 112.908 147.26 112.5 147.375C112.393 147.406 112.285 147.434 112.177 147.459C112.069 147.484 111.96 147.507 111.85 147.526C111.74 147.546 111.63 147.562 111.52 147.576C111.41 147.589 111.299 147.599 111.188 147.607C111.077 147.615 110.966 147.619 110.854 147.621C110.743 147.623 110.632 147.621 110.521 147.617C110.409 147.613 110.298 147.606 110.188 147.595C110.077 147.585 109.966 147.572 109.856 147.556C109.746 147.54 109.637 147.521 109.527 147.499C109.418 147.477 109.31 147.452 109.202 147.424C109.094 147.396 108.987 147.366 108.881 147.332C108.775 147.299 108.67 147.263 108.566 147.223C108.462 147.184 108.358 147.142 108.256 147.098C108.154 147.053 108.054 147.006 107.954 146.956C107.855 146.906 107.757 146.853 107.66 146.798C107.563 146.743 107.469 146.685 107.375 146.625C107.281 146.568 107.188 146.508 107.097 146.446C107.005 146.384 106.916 146.32 106.828 146.253C106.741 146.186 106.655 146.116 106.571 146.045C106.487 145.973 106.405 145.899 106.325 145.824C106.245 145.748 106.167 145.669 106.091 145.589C106.016 145.509 105.942 145.427 105.871 145.343C105.799 145.258 105.73 145.172 105.664 145.084C105.597 144.997 105.533 144.907 105.471 144.816C105.409 144.724 105.35 144.631 105.293 144.537C105.236 144.442 105.182 144.346 105.13 144.248C105.079 144.151 105.03 144.052 104.984 143.952C104.938 143.852 104.894 143.75 104.853 143.648C104.812 143.545 104.774 143.442 104.739 143.337C104.704 143.233 104.672 143.127 104.642 143.021C104.613 142.915 104.586 142.808 104.562 142.7C104.539 142.592 104.518 142.484 104.5 142.375C104.489 142.306 104.476 142.238 104.462 142.17C104.447 142.101 104.432 142.033 104.414 141.966C104.397 141.898 104.378 141.831 104.358 141.765C104.338 141.698 104.316 141.632 104.293 141.566C104.27 141.5 104.245 141.435 104.219 141.37C104.193 141.306 104.166 141.241 104.137 141.178C104.108 141.115 104.078 141.052 104.046 140.99C104.015 140.928 103.982 140.866 103.948 140.806C103.913 140.745 103.878 140.685 103.841 140.626C103.804 140.567 103.766 140.508 103.726 140.451C103.687 140.394 103.646 140.337 103.604 140.282C103.562 140.226 103.519 140.171 103.474 140.117C103.43 140.064 103.384 140.011 103.338 139.959C103.291 139.907 103.243 139.857 103.194 139.807C103.145 139.758 103.095 139.709 103.044 139.662C102.993 139.614 102.941 139.568 102.888 139.523C102.835 139.478 102.78 139.434 102.726 139.391C102.671 139.348 102.614 139.307 102.558 139.267C102.501 139.226 102.443 139.187 102.384 139.149C102.326 139.112 102.266 139.075 102.206 139.04C102.146 139.005 102.085 138.971 102.023 138.939C101.962 138.907 101.899 138.875 101.836 138.846C101.773 138.816 101.71 138.788 101.645 138.761C101.581 138.734 101.516 138.708 101.451 138.684C101.385 138.66 101.319 138.638 101.253 138.617C101.187 138.596 101.12 138.576 101.052 138.558C100.985 138.539 100.917 138.523 100.849 138.508C100.781 138.492 100.713 138.479 100.644 138.466C100.576 138.454 100.507 138.443 100.438 138.434C100.369 138.425 100.299 138.417 100.23 138.411C100.161 138.405 100.091 138.401 100.021 138.398C99.9518 138.395 99.8822 138.393 99.8125 138.393C99.7428 138.393 99.6732 138.395 99.6035 138.398C99.5338 138.401 99.4643 138.405 99.3949 138.411C99.3256 138.417 99.2562 138.425 99.1871 138.434C99.1182 138.443 99.0492 138.454 98.9807 138.466C98.9121 138.479 98.8438 138.492 98.7756 138.508C98.7076 138.523 98.64 138.539 98.5727 138.558C98.5053 138.576 98.4385 138.596 98.3721 138.617C98.3057 138.638 98.2398 138.66 98.1744 138.684C98.109 138.708 98.0441 138.734 97.9799 138.761C97.9156 138.788 97.8518 138.816 97.7887 138.846C97.7256 138.875 97.6633 138.907 97.6016 138.939C97.54 138.971 97.4791 139.005 97.4187 139.04C97.3586 139.075 97.2992 139.112 97.2406 139.149C97.182 139.187 97.1242 139.226 97.0674 139.267C97.0105 139.307 96.9545 139.348 96.8994 139.391C96.8445 139.434 96.7904 139.478 96.7373 139.523C96.6842 139.568 96.632 139.614 96.5809 139.662C96.5299 139.709 96.4799 139.758 96.4309 139.807C96.3818 139.857 96.3342 139.907 96.2875 139.959C96.2408 140.011 96.1951 140.064 96.1508 140.117C96.1064 140.171 96.0631 140.226 96.0211 140.282C95.9791 140.337 95.9385 140.394 95.899 140.451C95.8594 140.508 95.8213 140.567 95.7844 140.626C95.7475 140.685 95.7117 140.745 95.6775 140.806C95.6432 140.866 95.6102 140.928 95.5785 140.99C95.5471 141.052 95.5168 141.115 95.4879 141.178C95.4592 141.241 95.4316 141.306 95.4057 141.37C95.3797 141.435 95.3551 141.5 95.332 141.566C95.3088 141.632 95.2871 141.698 95.267 141.765C95.2467 141.831 95.2279 141.898 95.2107 141.966C95.1934 142.033 95.1775 142.101 95.1633 142.17C95.149 142.238 95.1363 142.306 95.125 142.375C95.1027 142.482 95.0777 142.589 95.0502 142.695C95.0227 142.801 94.9926 142.907 94.96 143.012C94.9273 143.116 94.8922 143.22 94.8545 143.323C94.8168 143.426 94.7766 143.528 94.7338 143.629C94.691 143.73 94.6459 143.83 94.5984 143.929C94.551 144.028 94.501 144.125 94.4486 144.222C94.3963 144.318 94.3416 144.413 94.2848 144.507C94.2277 144.601 94.1686 144.693 94.107 144.784C94.0455 144.875 93.982 144.964 93.9162 145.052C93.8504 145.14 93.7826 145.226 93.7125 145.31C93.6424 145.394 93.5705 145.477 93.4965 145.558C93.4225 145.639 93.3465 145.718 93.2686 145.795C93.1906 145.872 93.1109 145.948 93.0295 146.021C92.9479 146.094 92.8645 146.166 92.7795 146.235C92.6945 146.304 92.6078 146.371 92.5195 146.436C92.4313 146.501 92.3414 146.564 92.25 146.625C92.14 146.703 92.0275 146.778 91.9125 146.849C91.7977 146.92 91.6807 146.987 91.5613 147.05C91.442 147.114 91.3209 147.173 91.1977 147.229C91.0746 147.284 90.9498 147.336 90.8232 147.383C90.6969 147.43 90.5689 147.474 90.4397 147.513C90.3105 147.552 90.1801 147.587 90.0486 147.618C89.9172 147.648 89.7848 147.674 89.6514 147.697C89.5182 147.719 89.3844 147.737 89.25 147.75ZM83.75 132.375L85.75 133.5C85.9432 133.202 86.1455 132.909 86.357 132.624C86.5684 132.338 86.7885 132.059 87.0174 131.787C87.2461 131.515 87.4832 131.25 87.7285 130.992C87.9736 130.735 88.2268 130.485 88.4877 130.244C88.7484 130.002 89.0166 129.769 89.2918 129.544C89.5672 129.319 89.8492 129.103 90.1381 128.896C90.427 128.689 90.7219 128.49 91.023 128.301C91.3242 128.112 91.6311 127.933 91.9434 127.763C92.2557 127.593 92.573 127.433 92.8953 127.283C93.2176 127.133 93.5441 126.993 93.8752 126.864C94.2063 126.734 94.541 126.614 94.8795 126.506C95.218 126.397 95.5594 126.298 95.9039 126.211C96.2484 126.123 96.5953 126.046 96.9447 125.98C97.2941 125.914 97.6451 125.859 97.998 125.815C98.3508 125.771 98.7045 125.738 99.0594 125.715C99.4143 125.693 99.7693 125.682 100.125 125.682C100.48 125.682 100.836 125.693 101.191 125.715C101.546 125.738 101.899 125.771 102.252 125.815C102.605 125.859 102.956 125.914 103.305 125.98C103.655 126.046 104.002 126.123 104.346 126.211C104.691 126.298 105.032 126.397 105.371 126.506C105.709 126.614 106.044 126.734 106.375 126.864C106.706 126.993 107.032 127.133 107.355 127.283C107.677 127.433 107.994 127.593 108.307 127.763C108.619 127.933 108.926 128.112 109.227 128.301C109.528 128.49 109.823 128.689 110.112 128.896C110.401 129.103 110.683 129.319 110.958 129.544C111.233 129.769 111.502 130.002 111.762 130.244C112.023 130.485 112.276 130.735 112.521 130.992C112.767 131.25 113.004 131.515 113.233 131.787C113.462 132.059 113.682 132.338 113.893 132.624C114.104 132.909 114.307 133.202 114.5 133.5L117.375 131.875C117.252 131.606 117.137 131.334 117.029 131.059C116.921 130.784 116.82 130.507 116.726 130.226C116.633 129.946 116.547 129.663 116.469 129.378C116.391 129.093 116.32 128.807 116.257 128.518C116.194 128.229 116.139 127.939 116.091 127.647C116.044 127.356 116.004 127.063 115.972 126.769C115.94 126.475 115.916 126.181 115.9 125.886C115.884 125.591 115.876 125.295 115.875 125C115.876 124.728 115.883 124.456 115.897 124.184C115.91 123.912 115.93 123.641 115.956 123.37C115.982 123.099 116.015 122.829 116.053 122.559C116.092 122.29 116.137 122.022 116.188 121.754C116.239 121.487 116.296 121.221 116.36 120.956C116.423 120.692 116.492 120.429 116.568 120.167C116.644 119.906 116.725 119.646 116.813 119.389C116.9 119.131 116.994 118.875 117.093 118.622C117.193 118.369 117.298 118.118 117.409 117.869C117.52 117.621 117.637 117.375 117.759 117.132C117.882 116.889 118.01 116.649 118.143 116.412C118.277 116.174 118.416 115.94 118.56 115.71C118.704 115.479 118.854 115.252 119.009 115.028C119.164 114.805 119.324 114.584 119.489 114.368C119.654 114.152 119.824 113.939 119.999 113.731C120.174 113.522 120.354 113.318 120.538 113.118C120.723 112.918 120.912 112.722 121.105 112.531C121.299 112.339 121.496 112.152 121.699 111.97C121.901 111.788 122.107 111.611 122.317 111.438C122.528 111.265 122.742 111.097 122.96 110.935C123.178 110.772 123.4 110.614 123.626 110.462C123.851 110.309 124.08 110.162 124.312 110.02C124.544 109.878 124.78 109.742 125.018 109.611C125.257 109.48 125.498 109.355 125.743 109.235C125.987 109.115 126.234 109.001 126.484 108.893C126.733 108.784 126.985 108.682 127.24 108.585C127.494 108.489 127.751 108.398 128.009 108.313C128.268 108.228 128.529 108.149 128.791 108.077C129.053 108.004 129.317 107.938 129.582 107.877C129.848 107.816 130.114 107.762 130.382 107.714C130.65 107.666 130.919 107.624 131.188 107.588C131.458 107.553 131.729 107.523 132 107.5C132.062 106.625 132.062 105.75 132 104.875C132.059 104.083 132.059 103.292 132 102.5C131.645 102.476 131.292 102.442 130.939 102.397C130.587 102.351 130.236 102.295 129.887 102.229C129.537 102.162 129.19 102.085 128.846 101.997C128.502 101.909 128.16 101.811 127.822 101.702C127.483 101.594 127.148 101.475 126.817 101.346C126.486 101.217 126.159 101.078 125.836 100.929C125.513 100.78 125.195 100.622 124.882 100.453C124.569 100.285 124.262 100.107 123.959 99.9204C123.657 99.7333 123.361 99.5372 123.07 99.3321C122.78 99.127 122.496 98.9131 122.219 98.6909C121.942 98.4684 121.671 98.2377 121.408 97.9989C121.145 97.76 120.889 97.5133 120.641 97.259C120.393 97.0043 120.152 96.7426 119.92 96.4737C119.688 96.2045 119.464 95.9286 119.249 95.646C119.033 95.3631 118.827 95.0741 118.629 94.7788C118.431 94.4835 118.242 94.1823 118.063 93.8756C117.883 93.5686 117.713 93.2567 117.553 92.9395C117.392 92.6223 117.241 92.3004 117.101 91.9743C116.96 91.6479 116.829 91.3176 116.708 90.9833C116.588 90.6489 116.477 90.3112 116.377 89.9702C116.277 89.629 116.187 89.2852 116.108 88.9387C116.029 88.5922 115.96 88.2436 115.902 87.8928C115.844 87.5421 115.797 87.1899 115.76 86.8364C115.724 86.4829 115.698 86.1284 115.683 85.7733C115.668 85.418 115.664 85.0628 115.671 84.7075C115.678 84.352 115.695 83.9971 115.724 83.6428C115.752 83.2885 115.791 82.9354 115.841 82.5835C115.891 82.2315 115.951 81.8813 116.023 81.533C116.094 81.1848 116.176 80.8391 116.268 80.4957C116.36 80.1525 116.463 79.8123 116.576 79.4752C116.689 79.1382 116.812 78.8049 116.945 78.4754C117.079 78.146 117.222 77.8208 117.375 77.5C116.124 76.7172 114.833 76.0089 113.5 75.375C113.291 75.6131 113.076 75.8456 112.854 76.0725C112.633 76.2993 112.406 76.52 112.173 76.7346C111.94 76.9493 111.701 77.1577 111.457 77.3598C111.213 77.5617 110.964 77.757 110.709 77.9457C110.455 78.1345 110.195 78.3163 109.931 78.4912C109.667 78.6662 109.398 78.834 109.125 78.9947C108.852 79.1554 108.575 79.3087 108.293 79.4545C108.012 79.6004 107.727 79.7388 107.438 79.8695C107.15 80.0003 106.858 80.1232 106.563 80.2385C106.268 80.3537 105.97 80.461 105.669 80.5603C105.368 80.6598 105.064 80.7512 104.759 80.8344C104.453 80.9176 104.145 80.9926 103.836 81.0596C103.526 81.1265 103.214 81.1851 102.902 81.2354C102.589 81.2857 102.275 81.3277 101.96 81.3613C101.645 81.3949 101.329 81.4202 101.012 81.4371C100.696 81.4539 100.379 81.4623 100.062 81.4623C99.7455 81.4623 99.4289 81.4539 99.1125 81.4371C98.7961 81.4202 98.4803 81.3949 98.1652 81.3613C97.8502 81.3277 97.5361 81.2857 97.2234 81.2354C96.9105 81.1851 96.5992 81.1265 96.2895 81.0596C95.9797 80.9926 95.6719 80.9176 95.3662 80.8344C95.0605 80.7512 94.7572 80.6598 94.4563 80.5603C94.1553 80.461 93.8572 80.3537 93.5621 80.2385C93.267 80.1232 92.975 80.0003 92.6865 79.8695C92.3979 79.7388 92.1129 79.6004 91.8316 79.4545C91.5502 79.3087 91.273 79.1554 91 78.9947C90.7268 78.834 90.4582 78.6662 90.1939 78.4912C89.9297 78.3163 89.6703 78.1345 89.4158 77.9457C89.1613 77.757 88.9119 77.5617 88.6678 77.3598C88.4236 77.1577 88.185 76.9493 87.952 76.7346C87.7189 76.52 87.4918 76.2993 87.2705 76.0725C87.0492 75.8456 86.834 75.6131 86.625 75.375C85.2381 75.9824 83.9047 76.6908 82.625 77.5C82.7781 77.8208 82.9213 78.146 83.0547 78.4754C83.1881 78.8049 83.3111 79.1382 83.4242 79.4752C83.5373 79.8123 83.6398 80.1525 83.732 80.4957C83.8244 80.8391 83.9061 81.1848 83.9773 81.533C84.0486 81.8813 84.1092 82.2315 84.159 82.5835C84.2088 82.9354 84.248 83.2885 84.2764 83.6428C84.3047 83.9971 84.3223 84.352 84.3289 84.7075C84.3357 85.0628 84.3316 85.418 84.3168 85.7733C84.3018 86.1284 84.2762 86.4829 84.2396 86.8364C84.2031 87.1899 84.1559 87.5421 84.0979 87.8928C84.0398 88.2436 83.9713 88.5922 83.8922 88.9387C83.8129 89.2852 83.7232 89.629 83.623 89.9702C83.5229 90.3112 83.4125 90.6489 83.2918 90.9833C83.1709 91.3174 83.04 91.6477 82.8992 91.9743C82.7584 92.3004 82.6076 92.6223 82.4473 92.9395C82.2869 93.2567 82.1168 93.5686 81.9373 93.8756C81.7578 94.1823 81.5691 94.4835 81.3713 94.7788C81.1734 95.0741 80.9668 95.3631 80.7514 95.646C80.5359 95.9286 80.3121 96.2045 80.0799 96.4737C79.8477 96.7426 79.6074 97.0043 79.3592 97.259C79.1109 97.5133 78.8551 97.76 78.592 97.9989C78.3287 98.2377 78.0584 98.4684 77.7811 98.6909C77.5037 98.9131 77.2199 99.127 76.9297 99.3321C76.6393 99.5372 76.343 99.7333 76.0408 99.9204C75.7385 100.107 75.4307 100.285 75.1176 100.453C74.8045 100.622 74.4867 100.78 74.1639 100.929C73.8411 101.078 73.5141 101.217 73.1828 101.346C72.8516 101.475 72.5167 101.594 72.1783 101.702C71.8398 101.811 71.4983 101.909 71.1539 101.997C70.8095 102.085 70.4627 102.162 70.1135 102.229C69.7643 102.295 69.4134 102.351 69.0609 102.397C68.7083 102.442 68.3547 102.476 68 102.5C67.941 103.292 67.941 104.083 68 104.875C67.9378 105.75 67.9378 106.625 68 107.5C68.2876 107.498 68.5752 107.503 68.8627 107.515C69.1502 107.527 69.4372 107.546 69.7236 107.573C70.0101 107.599 70.2958 107.632 70.5807 107.673C70.8656 107.713 71.1493 107.76 71.4318 107.815C71.7143 107.869 71.9953 107.93 72.2748 107.999C72.5544 108.067 72.832 108.142 73.1078 108.224C73.3836 108.306 73.6572 108.395 73.9285 108.49C74.2 108.585 74.4689 108.687 74.7354 108.796C75.0018 108.905 75.2652 109.02 75.526 109.142C75.7867 109.263 76.0441 109.391 76.2986 109.526C76.5531 109.66 76.8039 109.8 77.0514 109.947C77.2988 110.094 77.5426 110.247 77.7826 110.406C78.0225 110.564 78.2584 110.729 78.4902 110.899C78.7221 111.07 78.9494 111.246 79.1727 111.428C79.3957 111.609 79.6143 111.796 79.8281 111.989C80.042 112.181 80.2512 112.379 80.4553 112.581C80.6594 112.784 80.8584 112.992 81.0523 113.204C81.2463 113.417 81.4348 113.634 81.6182 113.856C81.8014 114.077 81.9789 114.304 82.151 114.534C82.323 114.765 82.4893 114.999 82.6498 115.238C82.8102 115.477 82.9646 115.72 83.1133 115.966C83.2617 116.213 83.4041 116.463 83.5402 116.716C83.6764 116.969 83.8063 117.226 83.9299 117.486C84.0535 117.746 84.1705 118.008 84.2811 118.274C84.3916 118.54 84.4955 118.808 84.593 119.079C84.6902 119.349 84.7809 119.622 84.8646 119.898C84.9486 120.173 85.0258 120.45 85.0959 120.729C85.166 121.008 85.2293 121.288 85.2857 121.571C85.3422 121.853 85.3916 122.136 85.434 122.421C85.4764 122.705 85.5117 122.991 85.54 123.277C85.5684 123.563 85.5895 123.85 85.6037 124.137C85.618 124.425 85.625 124.712 85.625 125C85.6228 125.32 85.6109 125.64 85.5893 125.96C85.5676 126.279 85.5365 126.598 85.4957 126.916C85.4549 127.233 85.4043 127.549 85.3443 127.864C85.2844 128.179 85.2148 128.491 85.1359 128.802C85.057 129.112 84.9688 129.42 84.8713 129.725C84.7738 130.03 84.667 130.332 84.5512 130.63C84.4353 130.929 84.3107 131.224 84.177 131.515C84.0434 131.806 83.901 132.093 83.75 132.375Z"   fill="#2A82E4" >
</path>
<path d="M100 120.875C99.7361 120.875 99.4723 120.869 99.2088 120.856C98.9453 120.843 98.6822 120.823 98.4195 120.797C98.1569 120.771 97.8951 120.739 97.634 120.7C97.3729 120.662 97.1129 120.617 96.8541 120.565C96.5954 120.514 96.338 120.456 96.082 120.392C95.826 120.328 95.5717 120.257 95.3191 120.181C95.0667 120.104 94.8162 120.021 94.5676 119.932C94.3191 119.844 94.073 119.748 93.8293 119.647C93.5854 119.546 93.3442 119.44 93.1057 119.327C92.8671 119.214 92.6314 119.095 92.3986 118.971C92.166 118.846 91.9365 118.717 91.7102 118.581C91.4837 118.445 91.2608 118.304 91.0414 118.157C90.822 118.011 90.6063 117.859 90.3943 117.702C90.1824 117.545 89.9744 117.382 89.7703 117.215C89.5664 117.047 89.3667 116.875 89.1711 116.698C88.9755 116.521 88.7844 116.339 88.5979 116.152C88.4113 115.966 88.2294 115.774 88.0521 115.579C87.8749 115.383 87.7026 115.184 87.5352 114.979C87.3677 114.776 87.2054 114.568 87.0482 114.356C86.8911 114.144 86.7392 113.928 86.5926 113.709C86.446 113.489 86.3048 113.266 86.1691 113.04C86.0335 112.813 85.9035 112.584 85.7791 112.351C85.6546 112.119 85.536 111.883 85.4232 111.644C85.3103 111.406 85.2034 111.165 85.1023 110.921C85.0014 110.677 84.9065 110.431 84.8176 110.182C84.7286 109.934 84.6459 109.683 84.5693 109.431C84.4928 109.178 84.4224 108.924 84.3582 108.668C84.2941 108.412 84.2363 108.155 84.1848 107.896C84.1333 107.637 84.0883 107.377 84.0496 107.116C84.0108 106.855 83.9785 106.593 83.9527 106.33C83.9268 106.068 83.9074 105.805 83.8943 105.541C83.8814 105.278 83.875 105.014 83.875 104.75C83.875 104.486 83.8814 104.222 83.8943 103.959C83.9074 103.695 83.9268 103.432 83.9527 103.17C83.9785 102.907 84.0108 102.645 84.0496 102.384C84.0883 102.123 84.1333 101.863 84.1848 101.604C84.2363 101.345 84.2941 101.088 84.3582 100.832C84.4224 100.576 84.4928 100.322 84.5693 100.069C84.6459 99.8167 84.7286 99.5661 84.8176 99.3176C84.9065 99.0691 85.0014 98.823 85.1023 98.5793C85.2034 98.3354 85.3103 98.0942 85.4232 97.8557C85.536 97.6171 85.6546 97.3814 85.7791 97.1486C85.9035 96.9159 86.0335 96.6865 86.1691 96.4602C86.3048 96.2337 86.446 96.0108 86.5926 95.7914C86.7392 95.572 86.8911 95.3563 87.0482 95.1443C87.2054 94.9324 87.3677 94.7244 87.5352 94.5203C87.7026 94.3164 87.8749 94.1167 88.0521 93.9211C88.2294 93.7255 88.4113 93.5344 88.5979 93.3479C88.7844 93.1612 88.9755 92.9794 89.1711 92.8021C89.3667 92.6249 89.5664 92.4526 89.7703 92.2852C89.9744 92.1177 90.1824 91.9554 90.3943 91.7982C90.6063 91.6411 90.822 91.4892 91.0414 91.3426C91.2608 91.196 91.4837 91.0548 91.7102 90.9191C91.9365 90.7835 92.166 90.6535 92.3986 90.5291C92.6314 90.4046 92.8671 90.286 93.1057 90.1732C93.3442 90.0603 93.5854 89.9534 93.8293 89.8523C94.073 89.7514 94.3191 89.6565 94.5676 89.5676C94.8162 89.4786 95.0667 89.3959 95.3191 89.3193C95.5717 89.2428 95.826 89.1724 96.082 89.1082C96.338 89.0441 96.5954 88.9863 96.8541 88.9348C97.1129 88.8833 97.3729 88.8383 97.634 88.7996C97.8951 88.7608 98.1569 88.7285 98.4195 88.7027C98.6822 88.6768 98.9453 88.6574 99.2088 88.6443C99.4723 88.6314 99.7361 88.625 100 88.625C100.264 88.625 100.528 88.6314 100.791 88.6443C101.055 88.6574 101.318 88.6768 101.58 88.7027C101.843 88.7285 102.105 88.7608 102.366 88.7996C102.627 88.8383 102.887 88.8833 103.146 88.9348C103.405 88.9863 103.662 89.0441 103.918 89.1082C104.174 89.1724 104.428 89.2428 104.681 89.3193C104.933 89.3959 105.184 89.4786 105.432 89.5676C105.681 89.6565 105.927 89.7514 106.171 89.8523C106.415 89.9534 106.656 90.0603 106.894 90.1732C107.133 90.286 107.369 90.4046 107.601 90.5291C107.834 90.6535 108.063 90.7835 108.29 90.9191C108.516 91.0548 108.739 91.196 108.959 91.3426C109.178 91.4892 109.394 91.6411 109.606 91.7982C109.818 91.9554 110.026 92.1177 110.229 92.2852C110.434 92.4526 110.633 92.6249 110.829 92.8021C111.024 92.9794 111.215 93.1612 111.402 93.3479C111.589 93.5344 111.771 93.7255 111.948 93.9211C112.125 94.1167 112.297 94.3164 112.465 94.5203C112.632 94.7244 112.795 94.9324 112.952 95.1443C113.109 95.3563 113.261 95.572 113.407 95.7914C113.554 96.0108 113.695 96.2337 113.831 96.4602C113.967 96.6865 114.096 96.9159 114.221 97.1486C114.345 97.3814 114.464 97.6171 114.577 97.8557C114.69 98.0942 114.796 98.3354 114.897 98.5793C114.998 98.823 115.094 99.0691 115.182 99.3176C115.271 99.5661 115.354 99.8167 115.431 100.069C115.507 100.322 115.578 100.576 115.642 100.832C115.706 101.088 115.764 101.345 115.815 101.604C115.867 101.863 115.912 102.123 115.95 102.384C115.989 102.645 116.021 102.907 116.047 103.17C116.073 103.432 116.093 103.695 116.106 103.959C116.119 104.222 116.125 104.486 116.125 104.75C116.125 105.014 116.119 105.278 116.106 105.541C116.093 105.805 116.073 106.068 116.047 106.33C116.021 106.593 115.989 106.855 115.95 107.116C115.912 107.377 115.867 107.637 115.815 107.896C115.764 108.155 115.706 108.412 115.642 108.668C115.578 108.924 115.507 109.178 115.431 109.431C115.354 109.683 115.271 109.934 115.182 110.182C115.094 110.431 114.998 110.677 114.897 110.921C114.796 111.165 114.69 111.406 114.577 111.644C114.464 111.883 114.345 112.119 114.221 112.351C114.096 112.584 113.967 112.813 113.831 113.04C113.695 113.266 113.554 113.489 113.407 113.709C113.261 113.928 113.109 114.144 112.952 114.356C112.795 114.568 112.632 114.776 112.465 114.979C112.297 115.184 112.125 115.383 111.948 115.579C111.771 115.774 111.589 115.966 111.402 116.152C111.215 116.339 111.024 116.521 110.829 116.698C110.633 116.875 110.434 117.047 110.229 117.215C110.026 117.382 109.818 117.545 109.606 117.702C109.394 117.859 109.178 118.011 108.959 118.157C108.739 118.304 108.516 118.445 108.29 118.581C108.063 118.717 107.834 118.846 107.601 118.971C107.369 119.095 107.133 119.214 106.894 119.327C106.656 119.44 106.415 119.546 106.171 119.647C105.927 119.748 105.681 119.844 105.432 119.932C105.184 120.021 104.933 120.104 104.681 120.181C104.428 120.257 104.174 120.328 103.918 120.392C103.662 120.456 103.405 120.514 103.146 120.565C102.887 120.617 102.627 120.662 102.366 120.7C102.105 120.739 101.843 120.771 101.58 120.797C101.318 120.823 101.055 120.843 100.791 120.856C100.528 120.869 100.264 120.875 100 120.875ZM100 101.125C99.9406 101.125 99.8813 101.126 99.8221 101.129C99.7628 101.132 99.7037 101.137 99.6447 101.142C99.5856 101.148 99.5268 101.156 99.4682 101.164C99.4094 101.173 99.351 101.183 99.2928 101.195C99.2346 101.206 99.1767 101.219 99.1191 101.234C99.0616 101.248 99.0044 101.264 98.9477 101.281C98.8909 101.298 98.8346 101.317 98.7787 101.337C98.7229 101.357 98.6675 101.378 98.6127 101.401C98.5579 101.424 98.5037 101.448 98.4502 101.473C98.3965 101.498 98.3436 101.525 98.2912 101.553C98.2389 101.581 98.1872 101.61 98.1363 101.641C98.0854 101.671 98.0354 101.703 97.9861 101.736C97.9368 101.769 97.8883 101.803 97.8406 101.838C97.793 101.874 97.7462 101.91 97.7004 101.948C97.6544 101.985 97.6095 102.024 97.5656 102.064C97.5216 102.104 97.4787 102.145 97.4367 102.187C97.3948 102.229 97.3539 102.272 97.3141 102.316C97.2742 102.36 97.2355 102.404 97.1979 102.45C97.1602 102.496 97.1237 102.543 97.0883 102.591C97.053 102.638 97.0189 102.687 96.9859 102.736C96.953 102.785 96.9213 102.835 96.8908 102.886C96.8602 102.937 96.8309 102.989 96.8029 103.041C96.7751 103.094 96.7484 103.147 96.723 103.2C96.6977 103.254 96.6736 103.308 96.651 103.363C96.6282 103.418 96.6068 103.473 96.5869 103.529C96.5669 103.585 96.5482 103.641 96.5311 103.698C96.5139 103.754 96.498 103.812 96.4836 103.869C96.4691 103.927 96.4562 103.985 96.4447 104.043C96.4331 104.101 96.423 104.159 96.4143 104.218C96.4055 104.277 96.3982 104.336 96.3924 104.395C96.3867 104.454 96.3823 104.513 96.3793 104.572C96.3764 104.631 96.375 104.691 96.375 104.75C96.375 104.809 96.3764 104.869 96.3793 104.928C96.3823 104.987 96.3867 105.046 96.3924 105.105C96.3982 105.164 96.4055 105.223 96.4143 105.282C96.423 105.341 96.4331 105.399 96.4447 105.457C96.4562 105.515 96.4691 105.573 96.4836 105.631C96.498 105.688 96.5139 105.746 96.5311 105.802C96.5482 105.859 96.5669 105.915 96.5869 105.971C96.6068 106.027 96.6282 106.082 96.651 106.137C96.6736 106.192 96.6977 106.246 96.723 106.3C96.7484 106.353 96.7751 106.406 96.8029 106.459C96.8309 106.511 96.8602 106.563 96.8906 106.614C96.9212 106.665 96.953 106.715 96.9859 106.764C97.0189 106.813 97.053 106.862 97.0883 106.909C97.1237 106.957 97.1602 107.004 97.1979 107.05C97.2355 107.096 97.2742 107.14 97.3141 107.184C97.3539 107.228 97.3948 107.271 97.4367 107.313C97.4787 107.355 97.5216 107.396 97.5656 107.436C97.6095 107.476 97.6544 107.515 97.7004 107.552C97.7462 107.59 97.793 107.626 97.8406 107.662C97.8883 107.697 97.9368 107.731 97.9861 107.764C98.0354 107.797 98.0854 107.829 98.1363 107.859C98.1872 107.89 98.2389 107.919 98.2912 107.947C98.3436 107.975 98.3965 108.002 98.4502 108.027C98.5037 108.052 98.5579 108.076 98.6127 108.099C98.6675 108.122 98.7229 108.143 98.7787 108.163C98.8346 108.183 98.8909 108.202 98.9477 108.219C99.0044 108.236 99.0616 108.252 99.1191 108.266C99.1767 108.281 99.2346 108.294 99.2928 108.305C99.351 108.317 99.4094 108.327 99.4682 108.336C99.5268 108.345 99.5856 108.352 99.6447 108.358C99.7037 108.363 99.7628 108.368 99.8221 108.371C99.8813 108.374 99.9406 108.375 100 108.375C100.059 108.375 100.119 108.374 100.178 108.371C100.237 108.368 100.296 108.363 100.355 108.358C100.414 108.352 100.473 108.345 100.532 108.336C100.591 108.327 100.649 108.317 100.707 108.305C100.765 108.294 100.823 108.281 100.881 108.266C100.938 108.252 100.996 108.236 101.052 108.219C101.109 108.202 101.165 108.183 101.221 108.163C101.277 108.143 101.332 108.122 101.387 108.099C101.442 108.076 101.496 108.052 101.55 108.027C101.603 108.002 101.656 107.975 101.709 107.947C101.761 107.919 101.813 107.89 101.864 107.859C101.914 107.829 101.965 107.797 102.014 107.764C102.063 107.731 102.112 107.697 102.159 107.662C102.207 107.626 102.254 107.59 102.3 107.552C102.345 107.515 102.39 107.476 102.434 107.436C102.478 107.396 102.521 107.355 102.563 107.313C102.605 107.271 102.646 107.228 102.686 107.184C102.726 107.14 102.765 107.096 102.802 107.05C102.84 107.004 102.876 106.957 102.912 106.909C102.947 106.862 102.981 106.813 103.014 106.764C103.047 106.715 103.079 106.665 103.109 106.614C103.14 106.563 103.169 106.511 103.197 106.459C103.225 106.406 103.252 106.353 103.277 106.3C103.302 106.246 103.326 106.192 103.349 106.137C103.372 106.082 103.393 106.027 103.413 105.971C103.433 105.915 103.452 105.859 103.469 105.802C103.486 105.746 103.502 105.688 103.516 105.631C103.531 105.573 103.544 105.515 103.555 105.457C103.567 105.399 103.577 105.341 103.586 105.282C103.595 105.223 103.602 105.164 103.608 105.105C103.613 105.046 103.618 104.987 103.621 104.928C103.624 104.869 103.625 104.809 103.625 104.75C103.625 104.691 103.624 104.631 103.621 104.572C103.618 104.513 103.613 104.454 103.608 104.395C103.602 104.336 103.595 104.277 103.586 104.218C103.577 104.159 103.567 104.101 103.555 104.043C103.544 103.985 103.531 103.927 103.516 103.869C103.502 103.812 103.486 103.754 103.469 103.698C103.452 103.641 103.433 103.585 103.413 103.529C103.393 103.473 103.372 103.418 103.349 103.363C103.326 103.308 103.302 103.254 103.277 103.2C103.252 103.147 103.225 103.094 103.197 103.041C103.169 102.989 103.14 102.937 103.109 102.886C103.079 102.835 103.047 102.785 103.014 102.736C102.981 102.687 102.947 102.638 102.912 102.591C102.876 102.543 102.84 102.496 102.802 102.45C102.765 102.404 102.726 102.36 102.686 102.316C102.646 102.272 102.605 102.229 102.563 102.187C102.521 102.145 102.478 102.104 102.434 102.064C102.39 102.024 102.345 101.985 102.3 101.948C102.254 101.91 102.207 101.874 102.159 101.838C102.112 101.803 102.063 101.769 102.014 101.736C101.965 101.703 101.914 101.671 101.864 101.641C101.813 101.61 101.761 101.581 101.709 101.553C101.656 101.525 101.603 101.498 101.55 101.473C101.496 101.448 101.442 101.424 101.387 101.401C101.332 101.378 101.277 101.357 101.221 101.337C101.165 101.317 101.109 101.298 101.052 101.281C100.996 101.264 100.938 101.248 100.881 101.234C100.823 101.219 100.765 101.206 100.707 101.195C100.649 101.183 100.591 101.173 100.532 101.164C100.473 101.156 100.414 101.148 100.355 101.142C100.296 101.137 100.237 101.132 100.178 101.129C100.119 101.126 100.059 101.125 100 101.125Z"   fill="#2A82E4" >
</path>
</svg>
