<svg xmlns="http://www.w3.org/2000/svg" xmlns:xlink="http://www.w3.org/1999/xlink" width="200" height="200" viewBox="0 0 200 200" fill="none">
<g  clip-path="url(#clip-path-7nfSv-_ysi5Ak7caBif95)">
<path d="M1.41665 137.786C1.88449 138.855 2.37119 139.915 2.87676 140.966C3.38231 142.017 3.90639 143.059 4.44903 144.091C4.99164 145.124 5.55246 146.147 6.13149 147.159C6.71049 148.172 7.30733 149.174 7.92201 150.165C8.53666 151.156 9.16877 152.136 9.8183 153.105C10.4678 154.074 11.1344 155.031 11.818 155.976C12.5016 156.921 13.2018 157.854 13.9186 158.774C14.6353 159.694 15.3683 160.602 16.1173 161.496C16.254 161.655 16.3933 161.812 16.5353 161.967C16.6773 162.122 16.8218 162.274 16.9689 162.424C17.116 162.574 17.2656 162.721 17.4178 162.866C17.5698 163.01 17.7243 163.153 17.8812 163.292C18.0381 163.432 18.1973 163.569 18.3589 163.703C18.5204 163.837 18.6841 163.968 18.8501 164.097C19.016 164.226 19.1841 164.351 19.3543 164.474C19.5245 164.598 19.6968 164.717 19.8711 164.835C20.0453 164.952 20.2214 165.066 20.3996 165.177C20.5777 165.288 20.7578 165.397 20.9394 165.502C21.1213 165.607 21.3047 165.709 21.4898 165.808C21.6752 165.907 21.8621 166.003 22.0504 166.095C22.2388 166.188 22.4289 166.277 22.6203 166.364C22.8117 166.45 23.0047 166.533 23.1988 166.612C23.3931 166.692 23.5886 166.768 23.7855 166.841C23.9824 166.915 24.1804 166.984 24.3797 167.051C24.5789 167.117 24.7793 167.18 24.9804 167.24C25.1818 167.299 25.3841 167.356 25.5873 167.408C25.7906 167.461 25.9947 167.511 26.1996 167.557C26.4045 167.602 26.6101 167.645 26.8164 167.684C27.0228 167.723 27.2297 167.758 27.4373 167.79C27.6449 167.822 27.8529 167.851 28.0613 167.876C28.2697 167.901 28.4787 167.922 28.6879 167.94C28.8972 167.958 29.1066 167.972 29.3162 167.983C29.5259 167.994 29.7357 168.001 29.9457 168.005C30.1558 168.009 30.3656 168.009 30.5756 168.006C30.7855 168.002 30.9955 167.995 31.205 167.985C31.4148 167.974 31.6244 167.96 31.8336 167.943C32.0427 167.925 32.2517 167.904 32.4603 167.88C32.6687 167.855 32.8769 167.827 33.0845 167.796C33.2922 167.764 33.499 167.729 33.7054 167.69C33.9119 167.652 34.1177 167.61 34.3226 167.564C34.5576 167.514 34.7931 167.467 35.0291 167.422C35.2652 167.377 35.5017 167.335 35.7386 167.296C35.9755 167.256 36.2131 167.219 36.4507 167.185C36.6884 167.151 36.9265 167.119 37.165 167.09C37.4035 167.061 37.6422 167.034 37.8812 167.01C38.1203 166.986 38.3595 166.965 38.599 166.946C38.8386 166.928 39.0783 166.911 39.3181 166.898C39.558 166.885 39.798 166.874 40.038 166.866C40.2781 166.857 40.5183 166.852 40.7584 166.849C40.9986 166.846 41.2388 166.846 41.4791 166.848C41.7193 166.85 41.9595 166.855 42.1996 166.863C42.4396 166.871 42.6798 166.881 42.9197 166.894C43.1595 166.907 43.3992 166.922 43.6388 166.94C43.8783 166.958 44.1177 166.979 44.3568 167.002C44.5959 167.025 44.8347 167.051 45.0732 167.08C45.3117 167.108 45.55 167.14 45.7877 167.174C46.0256 167.207 46.2631 167.243 46.5 167.283C46.7371 167.321 46.9738 167.363 47.2099 167.407C47.4461 167.451 47.6816 167.498 47.9168 167.547C48.1519 167.597 48.3865 167.649 48.6205 167.703C48.8545 167.757 49.0877 167.814 49.3205 167.874C49.5531 167.933 49.7851 167.995 50.0166 168.06C50.248 168.124 50.4787 168.192 50.7086 168.262C50.9384 168.331 51.1675 168.403 51.3959 168.478C51.6244 168.553 51.8517 168.63 52.0783 168.709C52.305 168.789 52.5308 168.871 52.7556 168.956C52.9806 169.04 53.2045 169.127 53.4273 169.217C53.6502 169.307 53.8722 169.398 54.0931 169.493C54.314 169.587 54.5339 169.684 54.7527 169.783C54.9714 169.882 55.1892 169.984 55.4058 170.088C55.6224 170.192 55.8379 170.298 56.0519 170.407C56.2664 170.515 56.4795 170.626 56.6912 170.74C56.8929 170.847 57.0935 170.956 57.2927 171.068C57.4918 171.179 57.6896 171.293 57.8863 171.41C58.0828 171.526 58.2779 171.645 58.4716 171.766C58.6652 171.887 58.8576 172.01 59.0484 172.136C59.2392 172.261 59.4285 172.389 59.6162 172.519C59.8041 172.649 59.9904 172.781 60.175 172.916C60.3595 173.05 60.5425 173.187 60.724 173.325C60.9054 173.464 61.0853 173.605 61.2634 173.748C61.4414 173.891 61.6177 174.036 61.7925 174.183C61.9672 174.331 62.14 174.48 62.3113 174.631C62.4824 174.782 62.6517 174.935 62.8193 175.091C62.9869 175.246 63.1525 175.403 63.3164 175.562C63.4802 175.721 63.642 175.882 63.8019 176.046C63.9619 176.208 64.1201 176.373 64.2761 176.54C64.4324 176.707 64.5865 176.875 64.7386 177.046C64.8908 177.216 65.0408 177.388 65.1888 177.562C65.3369 177.736 65.483 177.912 65.6269 178.089C65.7709 178.266 65.9127 178.445 66.0523 178.626C66.192 178.807 66.3295 178.989 66.4648 179.173C66.6004 179.357 66.7334 179.543 66.8644 179.73C66.9955 179.917 67.1242 180.106 67.2507 180.296C67.3773 180.486 67.5013 180.677 67.6234 180.871C67.7455 181.064 67.8652 181.258 67.9826 181.454C68.1 181.65 68.2152 181.847 68.3279 182.046C68.4406 182.244 68.5509 182.444 68.659 182.646C68.7672 182.847 68.8726 183.049 68.9759 183.253C69.0793 183.457 69.18 183.662 69.2785 183.868C69.3767 184.074 69.4728 184.281 69.5664 184.49C69.6599 184.698 69.7509 184.908 69.8394 185.118C69.9281 185.329 70.014 185.54 70.0976 185.753C70.181 185.965 70.2621 186.179 70.3406 186.393C70.4191 186.608 70.4951 186.823 70.5685 187.04C70.6355 187.239 70.7058 187.436 70.7796 187.633C70.8535 187.83 70.9308 188.025 71.0117 188.219C71.0925 188.412 71.1765 188.605 71.264 188.796C71.3517 188.987 71.4427 189.176 71.5369 189.364C71.6312 189.551 71.7289 189.737 71.8297 189.921C71.9304 190.105 72.0345 190.288 72.1418 190.468C72.2492 190.649 72.3595 190.827 72.4732 191.004C72.5869 191.181 72.7035 191.355 72.8232 191.528C72.9429 191.7 73.0658 191.87 73.1918 192.039C73.3175 192.207 73.4463 192.373 73.5779 192.536C73.7097 192.7 73.8443 192.861 73.9816 193.02C74.1189 193.178 74.2591 193.335 74.4021 193.489C74.5449 193.642 74.6906 193.794 74.8388 193.942C74.9871 194.091 75.138 194.237 75.2914 194.381C75.4449 194.524 75.6007 194.665 75.7591 194.802C75.9175 194.94 76.0785 195.075 76.2416 195.208C76.4048 195.34 76.5705 195.469 76.7381 195.596C76.9058 195.723 77.0759 195.846 77.248 195.965C77.4201 196.084 77.5943 196.201 77.7705 196.316C77.9468 196.432 78.125 196.543 78.3052 196.65C78.4855 196.758 78.6675 196.861 78.8515 196.963C79.0355 197.065 79.2211 197.162 79.4084 197.258C79.5957 197.354 79.7847 197.443 79.9754 197.531C80.166 197.619 80.3582 197.705 80.5517 197.787C80.7453 197.867 80.9404 197.945 81.1367 198.02C81.333 198.094 81.5306 198.164 81.7295 198.232C81.9283 198.301 82.1283 198.363 82.3295 198.424C82.5306 198.484 82.7328 198.541 82.9359 198.594C83.139 198.647 83.3431 198.697 83.548 198.744C83.7529 198.789 83.9586 198.832 84.165 198.871C84.3714 198.908 84.5783 198.943 84.7859 198.977C84.9935 199.008 85.2017 199.035 85.4103 199.059C86.616 199.215 87.824 199.352 89.034 199.471C90.2441 199.588 91.4558 199.686 92.6691 199.764C93.8824 199.844 95.0966 199.902 96.3117 199.941C97.5269 199.981 98.7423 200 99.9582 200C101.174 200 102.389 199.981 103.605 199.941C104.82 199.902 106.034 199.844 107.247 199.764C108.461 199.686 109.672 199.588 110.882 199.471C112.093 199.352 113.3 199.215 114.506 199.059C114.715 199.035 114.923 199.008 115.131 198.977C115.339 198.945 115.546 198.91 115.753 198.871C115.96 198.834 116.166 198.791 116.371 198.746C116.576 198.701 116.78 198.65 116.984 198.598C117.187 198.545 117.39 198.488 117.591 198.428C117.793 198.367 117.993 198.305 118.192 198.236C118.391 198.168 118.589 198.098 118.786 198.024C118.982 197.949 119.178 197.871 119.371 197.791C119.565 197.711 119.758 197.625 119.949 197.537C120.14 197.449 120.329 197.357 120.516 197.264C120.704 197.168 120.89 197.07 121.074 196.969C121.259 196.867 121.441 196.762 121.621 196.654C121.802 196.547 121.98 196.438 122.157 196.322C122.334 196.207 122.508 196.09 122.68 195.971C122.853 195.852 123.023 195.729 123.191 195.602C123.359 195.475 123.525 195.346 123.688 195.213C123.852 195.081 124.013 194.946 124.172 194.808C124.33 194.67 124.487 194.53 124.64 194.386C124.794 194.243 124.945 194.097 125.094 193.948C125.242 193.799 125.388 193.648 125.531 193.494C125.674 193.34 125.815 193.184 125.952 193.025C126.09 192.866 126.225 192.705 126.357 192.541C126.489 192.377 126.618 192.211 126.744 192.043C126.87 191.875 126.993 191.704 127.113 191.532C127.233 191.359 127.35 191.184 127.463 191.008C127.577 190.831 127.688 190.652 127.795 190.472C127.903 190.291 128.007 190.108 128.108 189.924C128.209 189.74 128.307 189.554 128.401 189.366C128.496 189.178 128.587 188.989 128.675 188.798C128.762 188.607 128.847 188.414 128.928 188.22C129.008 188.026 129.086 187.83 129.16 187.634C129.234 187.437 129.304 187.239 129.371 187.04C129.446 186.822 129.524 186.606 129.604 186.39C129.685 186.174 129.768 185.96 129.853 185.746C129.939 185.532 130.027 185.32 130.117 185.108C130.208 184.896 130.301 184.686 130.396 184.477C130.492 184.267 130.589 184.059 130.69 183.852C130.79 183.645 130.893 183.439 130.999 183.234C131.104 183.03 131.212 182.827 131.322 182.625C131.432 182.423 131.545 182.222 131.66 182.023C131.775 181.823 131.892 181.625 132.012 181.429C132.131 181.232 132.253 181.037 132.378 180.843C132.502 180.65 132.629 180.458 132.758 180.267C132.886 180.076 133.018 179.887 133.151 179.7C133.285 179.512 133.42 179.326 133.558 179.142C133.696 178.958 133.836 178.775 133.978 178.594C134.12 178.413 134.264 178.234 134.411 178.057C134.557 177.879 134.706 177.703 134.856 177.529C135.007 177.355 135.16 177.183 135.315 177.013C135.469 176.842 135.626 176.674 135.785 176.507C135.944 176.341 136.104 176.176 136.267 176.013C136.43 175.85 136.594 175.69 136.761 175.531C136.927 175.372 137.095 175.215 137.266 175.06C137.436 174.905 137.608 174.753 137.782 174.602C137.956 174.451 138.131 174.302 138.309 174.156C138.486 174.009 138.665 173.865 138.846 173.723C139.027 173.58 139.209 173.44 139.394 173.302C139.578 173.164 139.763 173.028 139.951 172.895C140.138 172.761 140.327 172.63 140.518 172.501C140.708 172.372 140.9 172.245 141.094 172.121C141.287 171.996 141.482 171.874 141.679 171.754C141.875 171.634 142.073 171.517 142.272 171.402C142.472 171.286 142.672 171.174 142.874 171.063C143.076 170.953 143.279 170.845 143.484 170.74C143.696 170.626 143.908 170.516 144.122 170.407C144.336 170.299 144.552 170.192 144.768 170.089C144.984 169.985 145.202 169.883 145.42 169.784C145.639 169.685 145.859 169.589 146.079 169.495C146.3 169.4 146.522 169.308 146.744 169.219C146.967 169.13 147.191 169.043 147.415 168.958C147.64 168.874 147.866 168.792 148.092 168.712C148.319 168.633 148.546 168.556 148.774 168.481C149.002 168.407 149.231 168.334 149.46 168.265C149.69 168.195 149.92 168.128 150.152 168.064C150.383 167.999 150.615 167.937 150.847 167.878C151.079 167.818 151.313 167.761 151.546 167.707C151.78 167.652 152.014 167.601 152.249 167.551C152.484 167.502 152.719 167.455 152.955 167.411C153.191 167.367 153.428 167.326 153.664 167.287C153.901 167.248 154.138 167.211 154.376 167.178C154.613 167.144 154.851 167.113 155.09 167.084C155.328 167.056 155.566 167.03 155.805 167.006C156.044 166.983 156.283 166.962 156.522 166.944C156.762 166.926 157.001 166.911 157.241 166.898C157.48 166.885 157.72 166.874 157.96 166.867C158.2 166.859 158.44 166.854 158.68 166.852C158.92 166.849 159.16 166.849 159.4 166.852C159.64 166.855 159.879 166.861 160.119 166.869C160.359 166.877 160.599 166.888 160.838 166.901C161.078 166.914 161.318 166.93 161.557 166.949C161.796 166.967 162.035 166.989 162.274 167.012C162.513 167.036 162.751 167.063 162.989 167.092C163.228 167.121 163.465 167.152 163.703 167.186C163.94 167.221 164.178 167.257 164.414 167.297C164.651 167.336 164.887 167.378 165.123 167.423C165.359 167.467 165.594 167.514 165.829 167.564C166.034 167.61 166.24 167.652 166.447 167.691C166.653 167.729 166.861 167.765 167.068 167.796C167.276 167.828 167.485 167.856 167.693 167.881C167.902 167.906 168.111 167.927 168.321 167.944C168.53 167.962 168.74 167.976 168.95 167.986C169.16 167.997 169.37 168.004 169.58 168.007C169.79 168.011 170.001 168.011 170.211 168.007C170.421 168.003 170.631 167.996 170.841 167.985C171.051 167.974 171.261 167.96 171.47 167.942C171.679 167.924 171.889 167.903 172.097 167.878C172.306 167.853 172.514 167.825 172.722 167.793C172.93 167.761 173.137 167.726 173.344 167.687C173.55 167.648 173.756 167.605 173.961 167.559C174.167 167.514 174.371 167.464 174.574 167.411C174.778 167.359 174.98 167.302 175.182 167.243C175.384 167.183 175.584 167.12 175.784 167.054C175.983 166.987 176.181 166.918 176.378 166.845C176.576 166.771 176.771 166.695 176.966 166.615C177.16 166.536 177.353 166.453 177.545 166.366C177.737 166.28 177.927 166.191 178.116 166.098C178.305 166.005 178.492 165.909 178.677 165.811C178.862 165.712 179.046 165.609 179.228 165.504C179.41 165.399 179.591 165.291 179.769 165.18C179.947 165.068 180.124 164.954 180.298 164.837C180.473 164.72 180.645 164.6 180.816 164.477C180.986 164.354 181.155 164.228 181.321 164.099C181.487 163.97 181.651 163.839 181.813 163.704C181.974 163.57 182.134 163.433 182.291 163.293C182.448 163.154 182.603 163.012 182.755 162.867C182.908 162.722 183.057 162.574 183.205 162.424C183.352 162.274 183.497 162.122 183.639 161.967C183.781 161.812 183.921 161.655 184.058 161.496C184.807 160.602 185.54 159.694 186.256 158.774C186.973 157.854 187.673 156.921 188.357 155.976C189.041 155.031 189.707 154.074 190.357 153.105C191.006 152.136 191.638 151.156 192.253 150.165C192.868 149.174 193.465 148.172 194.044 147.159C194.623 146.147 195.184 145.124 195.727 144.091C196.268 143.059 196.792 142.017 197.299 140.966C197.803 139.915 198.29 138.855 198.758 137.786C198.844 137.595 198.924 137.402 199.003 137.207C199.081 137.013 199.155 136.816 199.225 136.619C199.295 136.422 199.362 136.223 199.424 136.023C199.487 135.823 199.545 135.622 199.6 135.42C199.655 135.217 199.706 135.014 199.753 134.81C199.799 134.606 199.842 134.401 199.883 134.195C199.922 133.99 199.958 133.783 199.989 133.576C200.02 133.369 200.047 133.161 200.071 132.953C200.094 132.745 200.114 132.536 200.129 132.327C200.145 132.118 200.157 131.909 200.165 131.699C200.172 131.49 200.174 131.281 200.174 131.071C200.174 130.862 200.169 130.652 200.161 130.443C200.153 130.233 200.139 130.024 200.124 129.816C200.108 129.607 200.086 129.398 200.063 129.19C200.038 128.982 200.01 128.774 199.979 128.567C199.946 128.36 199.909 128.154 199.87 127.948C199.829 127.742 199.784 127.538 199.737 127.334C199.688 127.13 199.635 126.927 199.581 126.725C199.526 126.523 199.465 126.322 199.403 126.122C199.338 125.923 199.272 125.724 199.202 125.527C199.129 125.33 199.055 125.134 198.977 124.94C198.899 124.746 198.817 124.553 198.731 124.362C198.645 124.171 198.555 123.981 198.461 123.794C198.368 123.606 198.272 123.42 198.172 123.236C198.071 123.052 197.967 122.87 197.862 122.69C197.753 122.51 197.643 122.332 197.53 122.156C197.415 121.98 197.297 121.806 197.178 121.635C197.057 121.463 196.932 121.294 196.807 121.128C196.678 120.961 196.549 120.797 196.417 120.635C196.284 120.474 196.147 120.314 196.008 120.158C195.868 120.001 195.725 119.848 195.581 119.697C195.436 119.545 195.288 119.397 195.136 119.252C194.818 118.939 194.507 118.618 194.205 118.289C193.902 117.961 193.608 117.625 193.322 117.282C193.036 116.939 192.759 116.589 192.491 116.232C192.222 115.875 191.963 115.511 191.712 115.142C191.462 114.772 191.221 114.396 190.989 114.014C190.757 113.632 190.535 113.245 190.322 112.853C190.11 112.46 189.907 112.062 189.714 111.659C189.522 111.256 189.339 110.849 189.166 110.437C188.994 110.025 188.831 109.609 188.679 109.189C188.527 108.769 188.386 108.346 188.255 107.919C188.124 107.492 188.004 107.062 187.894 106.629C187.784 106.196 187.686 105.761 187.597 105.323C187.509 104.885 187.432 104.445 187.366 104.004C187.3 103.562 187.244 103.119 187.2 102.674C187.156 102.23 187.123 101.785 187.101 101.339C187.079 100.893 187.068 100.446 187.068 99.9999C187.068 99.5532 187.079 99.1069 187.101 98.6608C187.123 98.2147 187.156 97.7696 187.2 97.3253C187.244 96.8807 187.3 96.4378 187.366 95.9962C187.432 95.5544 187.509 95.1147 187.597 94.6768C187.686 94.2389 187.784 93.8034 187.894 93.3706C188.004 92.9376 188.124 92.5077 188.255 92.0807C188.386 91.6538 188.527 91.2303 188.679 90.8104C188.831 90.3905 188.994 89.9745 189.166 89.5626C189.339 89.1507 189.522 88.7432 189.714 88.3405C189.907 87.9378 190.11 87.5399 190.322 87.1471C190.535 86.7544 190.757 86.3671 190.989 85.9854C191.221 85.6036 191.462 85.2278 191.712 84.8581C191.963 84.4882 192.222 84.1249 192.491 83.768C192.759 83.411 193.036 83.061 193.322 82.718C193.608 82.3749 193.902 82.0389 194.205 81.7104C194.507 81.3819 194.818 81.061 195.136 80.7479C195.288 80.6024 195.436 80.4542 195.581 80.3032C195.725 80.152 195.868 79.9983 196.008 79.8419C196.147 79.6852 196.284 79.5262 196.417 79.3645C196.549 79.2028 196.678 79.0386 196.807 78.8719C196.932 78.7052 197.057 78.5362 197.178 78.3649C197.297 78.1934 197.415 78.0198 197.53 77.844C197.643 77.668 197.753 77.4901 197.862 77.31C197.967 77.13 198.071 76.9479 198.172 76.7639C198.272 76.5798 198.368 76.3938 198.461 76.2063C198.555 76.0184 198.645 75.829 198.731 75.638C198.817 75.4468 198.899 75.254 198.977 75.0598C199.055 74.8655 199.129 74.6698 199.202 74.4727C199.272 74.2755 199.338 74.077 199.403 73.8774C199.465 73.6776 199.526 73.4768 199.581 73.2749C199.635 73.0729 199.688 72.8698 199.737 72.6659C199.784 72.462 199.829 72.2571 199.87 72.0516C199.909 71.8458 199.946 71.6395 199.979 71.4325C200.01 71.2255 200.038 71.0179 200.063 70.8098C200.086 70.6016 200.108 70.3932 200.124 70.1844C200.139 69.9755 200.153 69.7663 200.161 69.5569C200.169 69.3475 200.174 69.1382 200.174 68.9286C200.174 68.719 200.172 68.5096 200.165 68.3003C200.157 68.0909 200.145 67.8817 200.129 67.6727C200.114 67.4637 200.094 67.2552 200.071 67.047C200.047 66.8387 200.02 66.6309 199.989 66.4239C199.958 66.2167 199.922 66.0102 199.883 65.8046C199.842 65.5987 199.799 65.3936 199.753 65.1895C199.706 64.9852 199.655 64.7821 199.6 64.58C199.545 64.3776 199.487 64.1766 199.424 63.9766C199.362 63.7766 199.295 63.5778 199.225 63.3805C199.155 63.1831 199.081 62.987 199.003 62.7925C198.924 62.5979 198.844 62.4048 198.758 62.2134C198.286 61.1438 197.795 60.0833 197.286 59.0315C196.774 57.9796 196.245 56.9372 195.698 55.9044C195.151 54.8712 194.585 53.8483 194.001 52.8356C193.418 51.8227 192.816 50.8208 192.196 49.8294C191.577 48.838 190.94 47.8581 190.285 46.8893C189.63 45.9206 188.959 44.9639 188.27 44.0194C187.581 43.0747 186.876 42.1427 186.154 41.2231C185.432 40.3036 184.694 39.3971 183.94 38.504C183.803 38.3446 183.664 38.1876 183.522 38.0329C183.38 37.8782 183.236 37.7259 183.088 37.5761C182.941 37.4261 182.792 37.2788 182.64 37.1341C182.487 36.9891 182.333 36.8471 182.176 36.7077C182.019 36.568 181.86 36.4311 181.699 36.297C181.537 36.1628 181.373 36.0313 181.207 35.9028C181.041 35.7739 180.873 35.6481 180.703 35.5253C180.533 35.4022 180.361 35.2823 180.186 35.1651C180.012 35.0479 179.836 34.9337 179.658 34.8225C179.48 34.7112 179.3 34.603 179.118 34.4979C178.936 34.3928 178.753 34.2907 178.568 34.1919C178.382 34.0928 178.196 33.9971 178.007 33.9046C177.819 33.812 177.629 33.7225 177.437 33.6362C177.246 33.5499 177.053 33.4671 176.859 33.3874C176.664 33.3077 176.469 33.2313 176.272 33.1583C176.075 33.085 175.877 33.0153 175.678 32.9491C175.478 32.8827 175.278 32.8196 175.077 32.76C174.876 32.7003 174.673 32.644 174.47 32.5913C174.267 32.5384 174.063 32.4889 173.858 32.4432C173.653 32.3971 173.447 32.3548 173.241 32.3159C173.035 32.2768 172.828 32.2415 172.62 32.2094C172.413 32.1774 172.205 32.1489 171.996 32.1241C171.788 32.0991 171.579 32.0776 171.369 32.0596C171.16 32.0417 170.951 32.0274 170.741 32.0167C170.531 32.0057 170.322 31.9985 170.112 31.9948C169.902 31.9909 169.692 31.9907 169.482 31.9942C169.272 31.9975 169.062 32.0044 168.852 32.0149C168.643 32.0253 168.433 32.0393 168.224 32.0569C168.015 32.0743 167.806 32.0954 167.597 32.12C167.389 32.1444 167.181 32.1725 166.973 32.2042C166.765 32.2358 166.558 32.2708 166.352 32.3095C166.146 32.3479 165.94 32.3899 165.735 32.4356C165.501 32.4845 165.267 32.5309 165.032 32.5749C164.797 32.6188 164.562 32.6602 164.326 32.6989C164.09 32.7376 163.854 32.7739 163.617 32.8075C163.381 32.8411 163.144 32.8721 162.907 32.9007C162.669 32.9292 162.432 32.955 162.194 32.9784C161.956 33.0016 161.718 33.0223 161.48 33.0405C161.242 33.0585 161.003 33.0741 160.765 33.0872C160.526 33.1001 160.287 33.1104 160.049 33.1182C159.81 33.1259 159.571 33.1309 159.332 33.1335C159.093 33.136 158.854 33.136 158.615 33.1335C158.376 33.1307 158.137 33.1255 157.899 33.1177C157.66 33.1096 157.421 33.0991 157.182 33.0862C156.944 33.0731 156.705 33.0575 156.467 33.0393C156.229 33.021 155.991 33.0001 155.753 32.9766C155.515 32.9532 155.278 32.9272 155.041 32.8987C154.803 32.87 154.567 32.8387 154.33 32.8052C154.094 32.7714 153.857 32.735 153.622 32.6962C153.386 32.6571 153.151 32.6157 152.916 32.5718C152.681 32.5276 152.446 32.4811 152.213 32.4321C151.979 32.3829 151.746 32.3313 151.513 32.277C151.28 32.2227 151.048 32.1661 150.817 32.1069C150.585 32.0475 150.354 31.9858 150.124 31.9218C149.894 31.8573 149.665 31.7905 149.436 31.7214C149.207 31.652 148.979 31.5803 148.752 31.5061C148.525 31.4319 148.299 31.3552 148.073 31.2761C147.848 31.1968 147.623 31.1153 147.4 31.0313C147.176 30.9471 146.953 30.8606 146.732 30.7718C146.51 30.6829 146.289 30.5917 146.069 30.4979C145.849 30.4042 145.631 30.3081 145.413 30.2096C145.195 30.1112 144.979 30.0104 144.763 29.9073C144.548 29.804 144.333 29.6985 144.12 29.5907C143.907 29.4829 143.695 29.3727 143.484 29.2602C143.28 29.1544 143.077 29.0464 142.875 28.936C142.673 28.8255 142.472 28.7124 142.273 28.5971C142.074 28.4819 141.877 28.3641 141.68 28.2442C141.484 28.1243 141.289 28.002 141.095 27.8774C140.902 27.7528 140.71 27.6259 140.52 27.4968C140.329 27.3675 140.14 27.2362 139.953 27.1026C139.766 26.9688 139.58 26.8329 139.396 26.695C139.212 26.5569 139.029 26.4167 138.849 26.2743C138.668 26.1317 138.489 25.9872 138.312 25.8407C138.134 25.694 137.959 25.5454 137.785 25.3946C137.611 25.2438 137.439 25.0909 137.269 24.936C137.099 24.7809 136.931 24.6241 136.764 24.4653C136.598 24.3063 136.433 24.1456 136.271 23.9829C136.108 23.82 135.947 23.6552 135.789 23.4887C135.63 23.322 135.473 23.1536 135.319 22.9833C135.164 22.813 135.011 22.6407 134.861 22.4669C134.71 22.2929 134.561 22.1171 134.415 21.9397C134.269 21.7622 134.124 21.5831 133.982 21.4022C133.84 21.2212 133.7 21.0386 133.562 20.8544C133.424 20.67 133.289 20.4843 133.155 20.297C133.022 20.1095 132.891 19.9204 132.761 19.73C132.633 19.5393 132.506 19.3472 132.382 19.1536C132.257 18.96 132.135 18.765 132.015 18.5685C131.896 18.372 131.778 18.1742 131.663 17.9749C131.548 17.7756 131.436 17.575 131.325 17.3731C131.215 17.1712 131.107 16.968 131.002 16.7635C130.896 16.559 130.793 16.3532 130.692 16.1463C130.592 15.9394 130.494 15.7312 130.398 15.522C130.302 15.3127 130.209 15.1023 130.119 14.8908C130.028 14.6793 129.94 14.4668 129.854 14.2532C129.769 14.0397 129.686 13.8251 129.605 13.6095C129.525 13.394 129.447 13.1775 129.371 12.9601C129.305 12.7614 129.235 12.564 129.161 12.3678C129.087 12.1717 129.01 11.9768 128.93 11.7834C128.849 11.5899 128.765 11.3979 128.678 11.2074C128.591 11.0169 128.5 10.828 128.406 10.6407C128.312 10.4534 128.215 10.2678 128.114 10.0839C128.014 9.90006 127.91 9.71803 127.803 9.53781C127.696 9.35762 127.586 9.17933 127.473 9.00301C127.36 8.82668 127.244 8.65242 127.124 8.48019C127.005 8.30797 126.882 8.13791 126.757 7.97002C126.632 7.80213 126.503 7.63648 126.372 7.47312C126.241 7.30976 126.107 7.14875 125.97 6.99012C125.833 6.83148 125.694 6.67533 125.551 6.52162C125.409 6.36791 125.263 6.21678 125.116 6.06818C124.968 5.91961 124.818 5.77369 124.665 5.63041C124.512 5.48715 124.356 5.34662 124.198 5.20883C124.041 5.07105 123.88 4.93609 123.718 4.80394C123.555 4.67183 123.39 4.54262 123.223 4.41631C123.056 4.29 122.886 4.16668 122.715 4.04635C122.543 3.92603 122.37 3.80877 122.194 3.69457C122.018 3.58039 121.841 3.46931 121.661 3.36138C121.481 3.25347 121.3 3.14875 121.117 3.04722C120.933 2.94572 120.748 2.84748 120.561 2.75248C120.375 2.65752 120.186 2.56586 119.996 2.47752C119.806 2.3892 119.615 2.30424 119.422 2.22265C119.229 2.14109 119.034 2.06297 118.838 1.98824C118.643 1.91354 118.446 1.84232 118.247 1.77457C118.049 1.70682 117.85 1.64259 117.649 1.58188C117.449 1.52117 117.247 1.46402 117.044 1.41042C116.842 1.35683 116.638 1.30683 116.434 1.26042C116.23 1.21401 116.025 1.17122 115.819 1.13205C115.613 1.09289 115.406 1.05736 115.199 1.02548C114.992 0.993608 114.785 0.965395 114.577 0.940844C113.371 0.785227 112.163 0.648992 110.953 0.532139C109.743 0.415285 108.531 0.317873 107.318 0.239902C106.104 0.161934 104.89 0.103448 103.675 0.0644429C102.46 0.0254381 101.244 0.00593567 100.029 0.00593567C98.8129 0.00593567 97.5976 0.0254381 96.3824 0.0644429C95.1673 0.103448 93.9531 0.161934 92.7398 0.239902C91.5265 0.317873 90.3148 0.415285 89.1047 0.532139C87.8947 0.648992 86.6867 0.785227 85.4808 0.940844C85.2714 0.964078 85.0627 0.991022 84.8543 1.02167C84.6459 1.05232 84.4379 1.08666 84.2306 1.12468C84.0236 1.16271 83.8172 1.2044 83.6113 1.24976C83.4056 1.29511 83.2007 1.3441 82.9966 1.39673C82.7927 1.44936 82.5898 1.50559 82.3877 1.56542C82.1857 1.62525 81.9849 1.68865 81.7851 1.75561C81.5855 1.82258 81.3869 1.89306 81.1896 1.96707C80.9923 2.04109 80.7964 2.11857 80.6019 2.19953C80.4076 2.28051 80.2146 2.36488 80.023 2.45269C79.8314 2.54051 79.6416 2.63168 79.4533 2.72623C79.265 2.8208 79.0785 2.91865 78.8937 3.01982C78.7089 3.12099 78.5261 3.22543 78.3449 3.33308C78.1638 3.44076 77.9847 3.5516 77.8076 3.66562C77.6304 3.77965 77.4552 3.89678 77.2824 4.01701C77.1093 4.13726 76.9384 4.26055 76.7699 4.38683C76.6013 4.51314 76.4349 4.6424 76.2711 4.77459C76.107 4.9068 75.9453 5.04187 75.7861 5.1798C75.6269 5.31775 75.4701 5.45847 75.316 5.60199C75.1617 5.74551 75.0099 5.8917 74.8609 6.04058C74.7119 6.18949 74.5656 6.34097 74.4218 6.49504C74.2783 6.64914 74.1375 6.80572 73.9992 6.9648C73.8611 7.12388 73.7257 7.28537 73.5935 7.44926C73.4611 7.61314 73.3318 7.77933 73.2052 7.94781C73.0787 8.11629 72.9552 8.28697 72.8347 8.45982C72.7142 8.63269 72.597 8.80764 72.4828 8.98467C72.3687 9.1617 72.2576 9.34068 72.1498 9.52166C72.042 9.70263 71.9373 9.88545 71.8359 10.0701C71.7345 10.2548 71.6365 10.4412 71.5418 10.6294C71.447 10.8176 71.3556 11.0073 71.2675 11.1987C71.1795 11.3902 71.0951 11.5831 71.0138 11.7775C70.9326 11.9719 70.8548 12.1677 70.7806 12.3648C70.7064 12.562 70.6357 12.7604 70.5685 12.9601C70.4945 13.1767 70.4177 13.3923 70.3384 13.607C70.2593 13.8218 70.1775 14.0355 70.0931 14.2483C70.0089 14.4612 69.9222 14.6729 69.8328 14.8837C69.7435 15.0945 69.6517 15.3041 69.5576 15.5127C69.4634 15.7213 69.3666 15.9287 69.2673 16.135C69.1683 16.3413 69.0668 16.5464 68.9627 16.7503C68.8587 16.9543 68.7523 17.1569 68.6435 17.3583C68.5349 17.5597 68.4238 17.7598 68.3101 17.9585C68.1966 18.1573 68.0808 18.3547 67.9627 18.5507C67.8445 18.7468 67.724 18.9414 67.6013 19.1345C67.4785 19.3277 67.3535 19.5195 67.2261 19.7098C67.099 19.8999 66.9695 20.0886 66.8377 20.2759C66.7058 20.463 66.572 20.6485 66.4359 20.8327C66.2998 21.0167 66.1615 21.1989 66.0211 21.3798C65.8806 21.5604 65.7381 21.7395 65.5933 21.9169C65.4486 22.0942 65.3019 22.27 65.1531 22.4438C65.0043 22.6177 64.8535 22.7899 64.7005 22.9602C64.5478 23.1305 64.3929 23.2991 64.2359 23.4659C64.0791 23.6325 63.9203 23.7973 63.7595 23.9602C63.5988 24.1231 63.4361 24.2841 63.2716 24.4432C63.107 24.6022 62.9406 24.7595 62.7722 24.9147C62.6041 25.0698 62.4339 25.2229 62.2621 25.3741C62.0902 25.5253 61.9166 25.6743 61.7412 25.8216C61.5658 25.9684 61.3886 26.1134 61.2097 26.2563C61.031 26.3991 60.8505 26.5399 60.6683 26.6786C60.4861 26.8171 60.3023 26.9534 60.117 27.0878C59.9316 27.222 59.7447 27.354 59.5562 27.4841C59.3677 27.6137 59.1777 27.7415 58.9861 27.8669C58.7947 27.9921 58.6017 28.1151 58.4072 28.236C58.2129 28.3567 58.017 28.4753 57.8199 28.5915C57.6226 28.7075 57.424 28.8214 57.2242 28.9329C57.0244 29.0444 56.823 29.1536 56.6205 29.2602C56.4089 29.3733 56.1961 29.4841 55.982 29.5927C55.7679 29.7011 55.5527 29.8071 55.3365 29.911C55.1201 30.0147 54.9025 30.1161 54.6839 30.2153C54.4654 30.3143 54.2457 30.411 54.025 30.5052C53.8043 30.5993 53.5826 30.6911 53.3599 30.7805C53.1373 30.87 52.9136 30.9569 52.689 31.0413C52.4644 31.1257 52.239 31.2077 52.0125 31.2874C51.7861 31.3669 51.5588 31.444 51.3306 31.5186C51.1027 31.5932 50.8738 31.6653 50.6441 31.7348C50.4144 31.8044 50.1839 31.8716 49.9529 31.936C49.7218 32.0005 49.49 32.0626 49.2576 32.1221C49.025 32.1815 48.792 32.2386 48.5582 32.2929C48.3246 32.3471 48.0902 32.3991 47.8552 32.4483C47.6203 32.4975 47.3849 32.5442 47.1492 32.5884C46.9132 32.6325 46.6769 32.6739 46.4402 32.713C46.2035 32.7518 45.9662 32.7882 45.7287 32.8221C45.491 32.8557 45.2531 32.887 45.0148 32.9155C44.7765 32.944 44.538 32.97 44.2992 32.9934C44.0605 33.0167 43.8213 33.0374 43.582 33.0555C43.3427 33.0737 43.1033 33.0893 42.8636 33.1022C42.624 33.1151 42.3843 33.1253 42.1445 33.1329C41.9045 33.1405 41.6646 33.1456 41.4248 33.1479C41.1847 33.1503 40.9449 33.1501 40.7048 33.1473C40.4648 33.1444 40.225 33.1389 39.9851 33.1309C39.7453 33.1227 39.5056 33.112 39.266 33.0987C39.0263 33.0854 38.7871 33.0694 38.5476 33.0509C38.3084 33.0323 38.0695 33.0112 37.8306 32.9874C37.5918 32.9636 37.3533 32.937 37.1152 32.9081C36.8769 32.8792 36.639 32.8475 36.4015 32.8134C36.164 32.779 35.9269 32.7423 35.6902 32.703C35.4535 32.6636 35.2172 32.6216 34.9814 32.577C34.7457 32.5325 34.5103 32.4852 34.2756 32.4356C34.0705 32.3895 33.8644 32.3471 33.6578 32.3081C33.4511 32.269 33.2439 32.2337 33.0361 32.2016C32.8283 32.1696 32.6199 32.1413 32.4111 32.1163C32.2023 32.0913 31.9931 32.07 31.7836 32.0522C31.574 32.0343 31.3642 32.0198 31.1543 32.0093C30.9443 31.9983 30.7341 31.9913 30.524 31.9878C30.3136 31.9841 30.1035 31.9841 29.8931 31.9876C29.6828 31.9909 29.4726 31.9979 29.2627 32.0087C29.0527 32.0192 28.8429 32.0333 28.6334 32.0511C28.4238 32.0686 28.2146 32.0899 28.0058 32.1149C27.797 32.1395 27.5886 32.1679 27.3808 32.1999C27.173 32.2315 26.9658 32.2669 26.7591 32.3059C26.5523 32.3448 26.3464 32.3872 26.1412 32.4331C25.9359 32.4788 25.7316 32.5282 25.5281 32.5809C25.3244 32.6337 25.1218 32.6897 24.9203 32.7495C24.7187 32.8091 24.5181 32.8721 24.3185 32.9386C24.1189 33.005 23.9207 33.0747 23.7234 33.1479C23.5263 33.221 23.3304 33.2975 23.1359 33.3772C22.9414 33.4569 22.7482 33.5401 22.5564 33.6264C22.3646 33.7128 22.1744 33.8022 21.9857 33.895C21.797 33.9876 21.6099 34.0835 21.4244 34.1827C21.2388 34.2819 21.055 34.3841 20.8732 34.4893C20.6912 34.5946 20.5111 34.703 20.3326 34.8145C20.1543 34.9259 19.9779 35.0401 19.8033 35.1577C19.6289 35.2751 19.4564 35.3954 19.2861 35.5186C19.1157 35.6417 18.9474 35.7678 18.7813 35.8968C18.6152 36.0257 18.4513 36.1575 18.2896 36.2919C18.128 36.4262 17.9686 36.5636 17.8116 36.7034C17.6546 36.8432 17.4999 36.9858 17.3478 37.1309C17.1956 37.2761 17.0459 37.4237 16.8987 37.5739C16.7515 37.7239 16.6069 37.8766 16.4648 38.0317C16.3228 38.1868 16.1834 38.3442 16.0468 38.504C15.3008 39.3987 14.571 40.3063 13.8572 41.227C13.1435 42.1475 12.4464 43.0805 11.7659 44.0261C11.0853 44.9714 10.4218 45.9284 9.77524 46.8975C9.12869 47.8665 8.49957 48.8466 7.88785 49.838C7.27614 50.8292 6.68223 51.8311 6.10614 52.8436C5.53002 53.8559 4.97207 54.8782 4.43231 55.9106C3.89252 56.9428 3.37125 57.9845 2.86848 59.0352C2.36571 60.086 1.88177 61.1454 1.41665 62.2134C1.33163 62.4048 1.25031 62.5979 1.17266 62.7925C1.09502 62.987 1.02112 63.1831 0.950959 63.3805C0.880801 63.5778 0.814434 63.7766 0.751862 63.9766C0.68929 64.1766 0.630555 64.3776 0.575659 64.58C0.520764 64.7821 0.469749 64.9852 0.42261 65.1895C0.375471 65.3936 0.332247 65.5987 0.292934 65.8046C0.253622 66.0102 0.21825 66.2167 0.186823 66.4239C0.155394 66.6309 0.127929 66.8387 0.10443 67.047C0.0809298 67.2552 0.0614118 67.4637 0.0458753 67.6727C0.0303388 67.8817 0.0187954 68.0909 0.011245 68.3003C0.00369449 68.5096 0.000142488 68.719 0.000588963 68.9286C0.00103544 69.1382 0.00548008 69.3475 0.0139229 69.5569C0.0223655 69.7663 0.0348005 69.9755 0.0512272 70.1844C0.067654 70.3932 0.0880606 70.6016 0.112448 70.8098C0.136834 71.0179 0.165183 71.2255 0.197495 71.4325C0.229805 71.6395 0.266055 71.8458 0.306245 72.0516C0.346434 72.2571 0.390534 72.462 0.43854 72.6659C0.486547 72.8698 0.53843 73.0729 0.594186 73.2749C0.649944 73.4768 0.709536 73.6776 0.772959 73.8774C0.836383 74.077 0.903594 74.2755 0.974594 74.4725C1.04559 74.6698 1.12033 74.8655 1.1988 75.0598C1.27727 75.254 1.35942 75.4468 1.44525 75.638C1.53108 75.829 1.62053 76.0184 1.71359 76.2063C1.80665 76.3938 1.90326 76.5798 2.00342 76.7639C2.10358 76.9479 2.20721 77.13 2.31432 77.31C2.42143 77.4901 2.53194 77.668 2.64584 77.844C2.75975 78.0198 2.87696 78.1934 2.9975 78.3649C3.11803 78.5362 3.24178 78.7052 3.36877 78.8719C3.49576 79.0386 3.62588 79.2028 3.75914 79.3645C3.89239 79.5262 4.02867 79.6852 4.16801 79.8419C4.30735 79.9983 4.44961 80.152 4.59481 80.3032C4.74 80.4542 4.88803 80.6024 5.03889 80.7479C5.19701 80.905 5.35321 81.0641 5.50744 81.2253C5.66166 81.3862 5.81391 81.5491 5.96418 81.7139C6.11442 81.8786 6.26264 82.0452 6.40883 82.2137C6.555 82.3821 6.69908 82.5522 6.84112 82.7241C6.98313 82.896 7.12303 83.0696 7.2608 83.245C7.39858 83.4202 7.53418 83.5971 7.66764 83.7759C7.80108 83.9544 7.93233 84.1346 8.06137 84.3167C8.19039 84.4983 8.31719 84.6817 8.44174 84.8669C8.56629 85.0516 8.68858 85.2382 8.80858 85.4262C8.92856 85.6141 9.04623 85.8034 9.1616 85.9944C9.27696 86.185 9.38996 86.3772 9.50063 86.571C9.61129 86.7645 9.71957 86.9594 9.82547 87.1557C9.93137 87.3518 10.0348 87.5493 10.1359 87.7481C10.237 87.947 10.3356 88.1469 10.4318 88.3481C10.528 88.5493 10.6216 88.7514 10.7129 88.955C10.8041 89.1585 10.8928 89.363 10.9791 89.5686C11.0653 89.7741 11.149 89.9807 11.2302 90.1886C11.3113 90.3962 11.3899 90.6048 11.466 90.8145C11.5421 91.0241 11.6156 91.2346 11.6865 91.4462C11.7574 91.6575 11.8258 91.8696 11.8915 92.0829C11.9572 92.2958 12.0203 92.5096 12.0808 92.7243C12.1413 92.9388 12.1992 93.1542 12.2545 93.3704C12.3097 93.5864 12.3623 93.803 12.4122 94.0204C12.4622 94.2376 12.5094 94.4555 12.554 94.6741C12.5987 94.8925 12.6406 95.1114 12.6798 95.3309C12.7191 95.5505 12.7557 95.7704 12.7896 95.9909C12.8234 96.2112 12.8546 96.4319 12.8831 96.6532C12.9115 96.8743 12.9373 97.0958 12.9604 97.3177C12.9834 97.5393 13.0038 97.7614 13.0214 97.9837C13.039 98.2059 13.054 98.4284 13.0662 98.6511C13.0784 98.8737 13.0878 99.0964 13.0946 99.3194C13.1013 99.5421 13.1053 99.7651 13.1066 99.9882C13.1055 100.211 13.1017 100.434 13.0951 100.658C13.0886 100.881 13.0793 101.104 13.0672 101.327C13.0552 101.549 13.0405 101.772 13.023 101.995C13.0055 102.217 12.9853 102.44 12.9624 102.662C12.9395 102.884 12.9138 103.106 12.8855 103.327C12.8571 103.548 12.8261 103.769 12.7923 103.99C12.7586 104.211 12.7221 104.431 12.683 104.651C12.6438 104.87 12.602 105.09 12.5575 105.308C12.513 105.527 12.4658 105.745 12.4159 105.963C12.3661 106.181 12.3135 106.397 12.2584 106.614C12.2032 106.83 12.1454 107.046 12.0849 107.261C12.0245 107.475 11.9614 107.69 11.8957 107.903C11.83 108.116 11.7618 108.329 11.6909 108.541C11.62 108.752 11.5465 108.963 11.4705 109.173C11.3944 109.382 11.3158 109.591 11.2346 109.799C11.1535 110.007 11.0698 110.214 10.9835 110.42C10.8973 110.626 10.8086 110.831 10.7173 111.035C10.6261 111.238 10.5324 111.441 10.4362 111.642C10.3399 111.844 10.2413 112.044 10.1402 112.243C10.0391 112.442 9.93555 112.64 9.82961 112.836C9.72365 113.033 9.61531 113.228 9.50461 113.422C9.39387 113.616 9.28078 113.808 9.16535 113.999C9.04992 114.19 8.93217 114.38 8.81209 114.568C8.69201 114.756 8.56965 114.943 8.445 115.128C8.32035 115.313 8.19346 115.497 8.06432 115.679C7.93518 115.861 7.80381 116.041 7.67026 116.22C7.53668 116.399 7.40096 116.576 7.26307 116.752C7.12516 116.927 6.98514 117.101 6.84299 117.274C6.70082 117.445 6.55658 117.616 6.41026 117.784C6.26393 117.953 6.11555 118.12 5.96516 118.285C5.81475 118.449 5.66235 118.613 5.50795 118.774C5.35354 118.935 5.19719 119.094 5.03889 119.252C4.88803 119.397 4.74 119.545 4.59481 119.697C4.44961 119.848 4.30735 120.001 4.16801 120.158C4.02867 120.314 3.89239 120.474 3.75914 120.635C3.62588 120.797 3.49576 120.961 3.36877 121.128C3.24178 121.294 3.11803 121.463 2.9975 121.635C2.87696 121.806 2.75975 121.98 2.64584 122.156C2.53194 122.332 2.42143 122.51 2.31432 122.69C2.20721 122.87 2.10358 123.052 2.00342 123.236C1.90326 123.42 1.80665 123.606 1.71359 123.794C1.62053 123.981 1.53108 124.171 1.44525 124.362C1.35942 124.553 1.27727 124.746 1.1988 124.94C1.12033 125.134 1.04559 125.33 0.974592 125.527C0.903592 125.724 0.836379 125.923 0.772956 126.122C0.709532 126.322 0.64994 126.523 0.594184 126.725C0.538428 126.927 0.486545 127.13 0.438538 127.334C0.39053 127.538 0.346432 127.742 0.306243 127.948C0.266053 128.154 0.229803 128.36 0.197493 128.567C0.165181 128.774 0.136832 128.982 0.112445 129.19C0.0880583 129.398 0.0676515 129.607 0.0512247 129.816C0.0347979 130.024 0.0223632 130.233 0.0139205 130.443C0.00547775 130.652 0.00103314 130.862 0.000586701 131.071C0.000140258 131.281 0.0036923 131.49 0.0112428 131.699C0.0187934 131.909 0.0303368 132.118 0.0458733 132.327C0.0614099 132.536 0.0809278 132.745 0.104428 132.953C0.127927 133.161 0.155392 133.369 0.186821 133.576C0.218249 133.783 0.25362 133.99 0.292932 134.195C0.332245 134.401 0.375469 134.606 0.422608 134.81C0.469747 135.014 0.520762 135.217 0.575659 135.42C0.630555 135.622 0.68929 135.823 0.751862 136.023C0.814434 136.223 0.880801 136.422 0.950959 136.619C1.02112 136.816 1.09502 137.013 1.17266 137.207C1.25031 137.402 1.33163 137.595 1.41665 137.786ZM182.952 69.5755C182.451 70.0727 181.963 70.5823 181.487 71.104C181.012 71.6255 180.549 72.1583 180.1 72.7028C179.65 73.2471 179.215 73.8022 178.793 74.368C178.371 74.9339 177.963 75.5098 177.569 76.0958C177.175 76.6817 176.796 77.277 176.432 77.8817C176.068 78.4862 175.719 79.0995 175.385 79.7214C175.051 80.3432 174.732 80.9729 174.429 81.6104C174.126 82.2479 173.839 82.8927 173.568 83.5444C173.296 84.196 173.041 84.854 172.803 85.5184C172.564 86.1825 172.341 86.8522 172.136 87.5276C171.93 88.2028 171.741 88.8827 171.569 89.5675C171.396 90.2518 171.241 90.9403 171.103 91.6325C170.965 92.3247 170.844 93.02 170.739 93.7182C170.636 94.4163 170.549 95.1167 170.479 95.8192C170.41 96.5216 170.358 97.2255 170.323 97.9305C170.288 98.6356 170.271 99.3411 170.271 100.047C170.271 100.753 170.288 101.458 170.323 102.163C170.358 102.868 170.41 103.572 170.479 104.275C170.549 104.977 170.636 105.677 170.739 106.376C170.844 107.074 170.965 107.769 171.103 108.461C171.241 109.153 171.396 109.842 171.569 110.526C171.741 111.211 171.93 111.891 172.136 112.566C172.341 113.241 172.564 113.911 172.803 114.575C173.041 115.24 173.296 115.898 173.568 116.549C173.839 117.201 174.126 117.846 174.429 118.483C174.732 119.121 175.051 119.751 175.385 120.373C175.719 120.994 176.068 121.607 176.432 122.212C176.796 122.817 177.175 123.412 177.569 123.998C177.963 124.584 178.371 125.16 178.793 125.726C179.215 126.292 179.65 126.847 180.1 127.391C180.549 127.935 181.012 128.468 181.487 128.99C181.963 129.511 182.451 130.021 182.952 130.518C183.117 130.683 183.47 131.107 183.305 131.506C182.911 132.399 182.501 133.285 182.076 134.164C181.65 135.042 181.21 135.913 180.754 136.776C180.298 137.639 179.827 138.494 179.341 139.34C178.855 140.187 178.354 141.024 177.839 141.854C177.324 142.682 176.794 143.502 176.25 144.313C175.706 145.123 175.148 145.924 174.576 146.714C174.004 147.505 173.418 148.286 172.819 149.056C172.219 149.826 171.606 150.586 170.98 151.335C170.951 151.361 170.921 151.387 170.89 151.412C170.86 151.437 170.828 151.461 170.796 151.484C170.764 151.507 170.731 151.529 170.697 151.549C170.664 151.57 170.63 151.59 170.595 151.608C170.56 151.627 170.525 151.644 170.489 151.661C170.453 151.677 170.416 151.692 170.379 151.707C170.343 151.72 170.305 151.733 170.267 151.745C170.23 151.757 170.192 151.767 170.153 151.776C170.115 151.785 170.076 151.793 170.037 151.8C169.998 151.807 169.959 151.812 169.92 151.817C169.881 151.821 169.841 151.824 169.802 151.826C169.762 151.827 169.723 151.828 169.683 151.827C169.644 151.826 169.604 151.824 169.565 151.821C169.526 151.818 169.486 151.813 169.447 151.807C169.408 151.802 169.369 151.795 169.331 151.786C169.292 151.778 169.254 151.769 169.216 151.758C168.859 151.683 168.502 151.611 168.143 151.544C167.785 151.476 167.426 151.413 167.066 151.353C166.707 151.293 166.346 151.238 165.986 151.186C165.625 151.134 165.263 151.086 164.901 151.042C164.539 150.999 164.177 150.959 163.814 150.923C163.451 150.887 163.088 150.855 162.724 150.827C162.361 150.799 161.997 150.775 161.633 150.756C161.269 150.735 160.905 150.719 160.54 150.708C160.176 150.695 159.811 150.688 159.447 150.684C159.082 150.68 158.718 150.68 158.353 150.684C157.988 150.688 157.624 150.696 157.26 150.708C156.895 150.72 156.531 150.736 156.167 150.756C155.803 150.776 155.439 150.799 155.075 150.828C154.712 150.855 154.349 150.887 153.986 150.923C153.623 150.959 153.261 150.999 152.899 151.043C152.537 151.087 152.175 151.134 151.814 151.186C151.453 151.238 151.093 151.294 150.733 151.354C150.374 151.413 150.015 151.477 149.656 151.544C149.298 151.612 148.941 151.683 148.584 151.759C148.227 151.834 147.871 151.913 147.516 151.997C147.161 152.08 146.807 152.167 146.454 152.258C146.101 152.349 145.749 152.443 145.398 152.542C145.047 152.641 144.697 152.743 144.348 152.849C144 152.956 143.652 153.066 143.306 153.18C142.959 153.294 142.614 153.412 142.27 153.533C141.927 153.655 141.584 153.78 141.243 153.909C140.902 154.038 140.563 154.17 140.224 154.307C139.886 154.443 139.55 154.583 139.215 154.727C138.88 154.871 138.546 155.019 138.214 155.17C137.883 155.321 137.553 155.475 137.224 155.634C136.896 155.792 136.569 155.954 136.244 156.12C135.919 156.285 135.596 156.454 135.275 156.627C134.959 156.793 134.645 156.964 134.334 157.138C134.022 157.312 133.712 157.49 133.404 157.671C133.097 157.852 132.791 158.037 132.488 158.226C132.185 158.415 131.884 158.607 131.585 158.802C131.287 158.998 130.99 159.198 130.696 159.4C130.402 159.603 130.111 159.809 129.822 160.019C129.533 160.228 129.246 160.441 128.962 160.658C128.678 160.874 128.397 161.094 128.118 161.317C127.839 161.54 127.563 161.766 127.289 161.996C127.016 162.226 126.745 162.458 126.477 162.694C126.209 162.93 125.944 163.17 125.681 163.412C125.419 163.654 125.16 163.899 124.903 164.148C124.647 164.396 124.393 164.648 124.143 164.902C123.892 165.157 123.644 165.414 123.4 165.674C123.155 165.934 122.914 166.198 122.676 166.464C122.438 166.73 122.202 166.999 121.971 167.27C121.739 167.541 121.51 167.816 121.285 168.093C121.059 168.37 120.837 168.649 120.618 168.932C120.4 169.214 120.184 169.499 119.972 169.786C119.76 170.073 119.552 170.363 119.346 170.655C119.141 170.948 118.939 171.242 118.741 171.539C118.543 171.836 118.348 172.135 118.157 172.437C117.966 172.739 117.778 173.042 117.594 173.349C117.41 173.655 117.23 173.963 117.053 174.273C116.877 174.583 116.704 174.896 116.534 175.21C116.365 175.525 116.2 175.841 116.038 176.16C115.876 176.478 115.718 176.798 115.564 177.12C115.41 177.442 115.259 177.766 115.113 178.092C114.966 178.417 114.824 178.745 114.685 179.074C114.546 179.403 114.411 179.733 114.28 180.066C114.149 180.398 114.022 180.732 113.899 181.067C113.776 181.402 113.657 181.739 113.542 182.077C113.532 182.109 113.521 182.141 113.509 182.172C113.497 182.203 113.484 182.234 113.469 182.265C113.455 182.295 113.44 182.325 113.423 182.354C113.407 182.383 113.389 182.412 113.37 182.44C113.352 182.468 113.332 182.495 113.311 182.522C113.291 182.548 113.269 182.574 113.246 182.599C113.224 182.624 113.2 182.648 113.176 182.671C113.152 182.694 113.127 182.716 113.1 182.738C113.075 182.759 113.048 182.78 113.02 182.799C112.993 182.818 112.964 182.837 112.936 182.854C112.907 182.871 112.877 182.887 112.847 182.902C112.817 182.917 112.787 182.931 112.755 182.944C112.725 182.957 112.693 182.969 112.661 182.979C112.629 182.99 112.597 182.999 112.564 183.007C112.532 183.015 112.499 183.022 112.465 183.028C112.432 183.033 112.399 183.038 112.366 183.041C111.343 183.173 110.319 183.289 109.293 183.388C108.266 183.487 107.239 183.57 106.21 183.636C105.181 183.702 104.151 183.752 103.121 183.785C102.09 183.818 101.06 183.835 100.029 183.835C98.9978 183.835 97.967 183.818 96.9365 183.785C95.906 183.752 94.8763 183.702 93.8476 183.636C92.8187 183.57 91.7912 183.487 90.765 183.388C89.7388 183.289 88.7144 183.173 87.692 183.041C87.6586 183.038 87.6252 183.033 87.592 183.028C87.5589 183.022 87.5259 183.015 87.4933 183.007C87.4607 182.999 87.4283 182.99 87.3964 182.979C87.3646 182.969 87.333 182.957 87.3019 182.944C87.2709 182.931 87.2402 182.917 87.2101 182.902C87.1802 182.887 87.1507 182.871 87.1218 182.854C87.0929 182.837 87.0648 182.818 87.0373 182.799C87.0097 182.78 86.983 182.759 86.957 182.738C86.931 182.716 86.9058 182.694 86.8814 182.671C86.8572 182.648 86.8338 182.624 86.8111 182.599C86.7884 182.574 86.7668 182.548 86.7463 182.522C86.7255 182.495 86.7058 182.468 86.6873 182.44C86.6685 182.412 86.6509 182.383 86.6343 182.354C86.6177 182.325 86.6023 182.295 86.5881 182.265C86.5738 182.234 86.5605 182.203 86.5484 182.172C86.5365 182.141 86.5256 182.109 86.5158 182.077C86.4007 181.739 86.2816 181.402 86.1586 181.067C86.0355 180.732 85.9086 180.398 85.7775 180.066C85.6466 179.733 85.5117 179.403 85.3728 179.074C85.2341 178.745 85.0914 178.417 84.9447 178.092C84.7982 177.766 84.6478 177.442 84.4935 177.12C84.3394 176.798 84.1814 176.478 84.0195 176.16C83.8578 175.841 83.6923 175.525 83.523 175.21C83.3537 174.896 83.1808 174.583 83.0041 174.273C82.8273 173.963 82.647 173.655 82.4631 173.349C82.2791 173.042 82.0916 172.739 81.9004 172.437C81.7091 172.135 81.5146 171.836 81.3164 171.539C81.1183 171.242 80.9166 170.948 80.7113 170.655C80.5062 170.363 80.2974 170.073 80.0853 169.786C79.8734 169.499 79.658 169.214 79.439 168.932C79.2203 168.649 78.9982 168.37 78.7728 168.093C78.5472 167.816 78.3187 167.541 78.0869 167.27C77.8548 166.999 77.6197 166.73 77.3816 166.464C77.1433 166.198 76.9019 165.934 76.6574 165.674C76.413 165.414 76.1656 165.157 75.9148 164.902C75.6642 164.648 75.4107 164.396 75.1543 164.148C74.8978 163.899 74.6384 163.654 74.3759 163.412C74.1136 163.17 73.8484 162.93 73.5804 162.694C73.3125 162.458 73.0418 162.226 72.7681 161.996C72.4947 161.766 72.2185 161.54 71.9396 161.317C71.6609 161.094 71.3795 160.874 71.0953 160.658C70.8113 160.441 70.5248 160.228 70.2357 160.019C69.9466 159.809 69.655 159.603 69.3611 159.4C69.0672 159.198 68.7707 158.998 68.472 158.802C68.1734 158.607 67.8724 158.415 67.5693 158.226C67.2662 158.037 66.9607 157.852 66.6529 157.671C66.3453 157.49 66.0357 157.312 65.7238 157.138C65.4121 156.964 65.0984 156.793 64.7824 156.627C64.3326 156.385 63.8793 156.15 63.4222 155.923C62.9654 155.695 62.505 155.474 62.0412 155.26C61.5775 155.046 61.1107 154.84 60.6406 154.641C60.1705 154.441 59.6974 154.249 59.2214 154.064C58.7457 153.879 58.267 153.702 57.7855 153.532C57.3041 153.361 56.8201 153.199 56.3338 153.043C55.8472 152.888 55.3588 152.74 54.8677 152.6C54.3767 152.459 53.8838 152.326 53.3888 152.201C52.8939 152.076 52.397 151.958 51.8982 151.848C51.3996 151.738 50.8996 151.636 50.3976 151.541C49.8959 151.447 49.3929 151.36 48.8884 151.281C48.3839 151.201 47.8785 151.13 47.3718 151.066C46.8652 151.002 46.3578 150.946 45.8494 150.898C45.341 150.85 44.8322 150.81 44.3226 150.777C43.813 150.745 43.3031 150.72 42.7927 150.703C42.2824 150.686 41.772 150.677 41.2613 150.676C39.5304 150.68 37.8041 150.772 36.0824 150.953C34.3609 151.133 32.6531 151.402 30.9591 151.758C30.9211 151.769 30.8828 151.778 30.8441 151.786C30.8054 151.795 30.7666 151.802 30.7275 151.807C30.6884 151.813 30.6492 151.818 30.6099 151.821C30.5707 151.824 30.5312 151.826 30.4916 151.827C30.4521 151.828 30.4127 151.827 30.3732 151.826C30.3338 151.824 30.2943 151.821 30.255 151.817C30.2158 151.812 30.1769 151.807 30.1379 151.8C30.099 151.793 30.0603 151.785 30.0218 151.776C29.9834 151.767 29.9453 151.757 29.9076 151.745C29.8699 151.733 29.8326 151.72 29.7957 151.707C29.7588 151.692 29.7222 151.677 29.6863 151.661C29.6504 151.644 29.615 151.627 29.58 151.608C29.5453 151.59 29.5111 151.57 29.4775 151.549C29.4439 151.529 29.4111 151.507 29.3789 151.484C29.3468 151.461 29.3152 151.437 29.2845 151.412C29.2539 151.387 29.224 151.361 29.1951 151.335C28.5689 150.586 27.956 149.826 27.3566 149.056C26.757 148.286 26.1713 147.505 25.5992 146.714C25.0271 145.924 24.4689 145.123 23.9248 144.313C23.3808 143.502 22.8511 142.682 22.3359 141.854C21.8207 141.024 21.3201 140.187 20.8341 139.34C20.3482 138.494 19.8773 137.639 19.4214 136.776C18.9655 135.913 18.5248 135.042 18.0995 134.164C17.6741 133.285 17.2643 132.399 16.87 131.506C16.7054 131.107 17.0582 130.683 17.2228 130.518C17.4729 130.268 17.7199 130.015 17.9638 129.759C18.2076 129.502 18.4483 129.243 18.6859 128.981C18.9234 128.718 19.1577 128.453 19.3887 128.185C19.6199 127.917 19.8476 127.647 20.0718 127.373C20.2963 127.099 20.5173 126.823 20.7349 126.544C20.9525 126.265 21.1668 125.984 21.3775 125.7C21.5882 125.415 21.7955 125.129 21.9992 124.839C22.2029 124.55 22.4031 124.258 22.5996 123.964C22.7961 123.67 22.989 123.373 23.1783 123.074C23.3677 122.775 23.5533 122.474 23.7351 122.171C23.917 121.867 24.0953 121.562 24.2697 121.254C24.4441 120.946 24.6148 120.636 24.7816 120.324C24.9484 120.012 25.1113 119.698 25.2705 119.382C25.4297 119.066 25.5849 118.748 25.7363 118.429C25.8877 118.109 26.0349 117.787 26.1785 117.464C26.322 117.14 26.4615 116.815 26.597 116.488C26.7324 116.161 26.8638 115.833 26.9914 115.503C27.1189 115.173 27.2423 114.841 27.3617 114.508C27.481 114.175 27.5963 113.841 27.7074 113.505C27.8185 113.169 27.9257 112.832 28.0285 112.493C28.1314 112.155 28.23 111.815 28.3246 111.474C28.4191 111.133 28.5095 110.791 28.5957 110.448C28.6818 110.105 28.7638 109.76 28.8416 109.415C28.9193 109.07 28.9927 108.724 29.0621 108.377C29.1314 108.03 29.1964 107.682 29.2572 107.334C29.3179 106.985 29.3746 106.636 29.4265 106.286C29.4787 105.936 29.5267 105.586 29.5703 105.234C29.6138 104.883 29.6533 104.532 29.6882 104.18C29.7232 103.827 29.7539 103.475 29.7802 103.122C29.8066 102.769 29.8287 102.416 29.8464 102.063C29.8642 101.709 29.8775 101.356 29.8865 101.002C29.8957 100.649 29.9004 100.295 29.9005 99.9411C29.898 99.5884 29.891 99.2358 29.8798 98.8835C29.8687 98.5309 29.8531 98.1788 29.8334 97.8268C29.8136 97.4747 29.7894 97.1229 29.7609 96.7714C29.7326 96.4198 29.7 96.0688 29.6629 95.7182C29.6259 95.3675 29.5845 95.0173 29.539 94.6677C29.4935 94.318 29.4437 93.969 29.3896 93.6206C29.3355 93.2719 29.2773 92.9241 29.2146 92.5772C29.1521 92.2302 29.0853 91.8839 29.0142 91.5386C28.9433 91.1932 28.8681 90.8487 28.7886 90.5052C28.7091 90.1616 28.6254 89.819 28.5377 89.4776C28.45 89.136 28.358 88.7956 28.2617 88.4565C28.1656 88.1171 28.0654 87.779 27.9609 87.4423C27.8566 87.1053 27.7482 86.7698 27.6355 86.4358C27.5228 86.1016 27.4062 85.7688 27.2855 85.4376C27.1648 85.1063 27.04 84.7764 26.9113 84.4481C26.7826 84.1198 26.6498 83.7932 26.5131 83.4682C26.3763 83.1432 26.2357 82.8198 26.091 82.4983C25.9463 82.1766 25.7978 81.8569 25.6453 81.5389C25.4927 81.221 25.3365 80.905 25.1763 80.5909C25.0162 80.2766 24.8523 79.9645 24.6843 79.6544C24.5166 79.3442 24.3451 79.0362 24.1697 78.7303C23.9945 78.4243 23.8154 78.1206 23.6326 77.819C23.4498 77.5175 23.2634 77.218 23.0734 76.9212C22.8834 76.6241 22.6896 76.3294 22.4923 76.0372C22.2951 75.7448 22.0943 75.455 21.89 75.1677C21.6857 74.8802 21.4779 74.5954 21.2666 74.3132C21.0552 74.0307 20.8406 73.7511 20.6224 73.4741C20.4043 73.197 20.1828 72.9225 19.958 72.6511C19.7332 72.3794 19.505 72.1104 19.2736 71.8444C19.0422 71.5784 18.8075 71.3151 18.5697 71.0548C18.3319 70.7944 18.0909 70.537 17.8468 70.2827C17.6027 70.0282 17.3555 69.7768 17.1052 69.5284C16.9406 69.3637 16.5877 68.9403 16.7524 68.5405C17.1467 67.6475 17.5565 66.7618 17.9819 65.8833C18.4072 65.0048 18.8479 64.1339 19.3038 63.271C19.7597 62.4079 20.2306 61.553 20.7166 60.7065C21.2025 59.86 21.7031 59.0221 22.2183 58.1932C22.7336 57.3643 23.2632 56.5446 23.8072 55.7343C24.3513 54.9237 24.9093 54.1231 25.4814 53.3325C26.0535 52.5415 26.6394 51.761 27.2388 50.9907C27.8384 50.2204 28.4513 49.461 29.0773 48.7122C29.106 48.6856 29.1355 48.66 29.1656 48.6354C29.1959 48.6106 29.2267 48.587 29.2584 48.5643C29.2902 48.5417 29.3226 48.52 29.3556 48.4993C29.3886 48.4786 29.4224 48.4591 29.4568 48.4407C29.4912 48.4221 29.5261 48.4048 29.5615 48.3886C29.5968 48.3721 29.6328 48.3571 29.6693 48.3432C29.7058 48.3292 29.7425 48.3165 29.7798 48.305C29.8172 48.2932 29.8547 48.2829 29.8925 48.2737C29.9304 48.2643 29.9685 48.2563 30.007 48.2497C30.0455 48.2429 30.0839 48.2374 30.1226 48.2331C30.1615 48.2286 30.2004 48.2255 30.2392 48.2237C30.2781 48.2218 30.3172 48.2212 30.3562 48.222C30.3951 48.2225 30.4341 48.2245 30.473 48.2276C30.5119 48.2307 30.5507 48.235 30.5892 48.2407C30.6277 48.2462 30.6662 48.253 30.7043 48.261C30.7425 48.269 30.7804 48.2782 30.8179 48.2887C31.175 48.3641 31.5328 48.4356 31.8912 48.5032C32.2498 48.5708 32.6089 48.6345 32.9689 48.6942C33.3289 48.7538 33.6894 48.8095 34.0505 48.8614C34.4119 48.9132 34.7734 48.961 35.1357 49.0048C35.4978 49.0485 35.8605 49.0886 36.2236 49.1245C36.5867 49.1604 36.95 49.1923 37.3138 49.2204C37.6777 49.2481 38.0418 49.2721 38.406 49.2923C38.7703 49.3122 39.1347 49.3282 39.4994 49.3403C39.8642 49.3522 40.2289 49.3602 40.5937 49.3641C40.9586 49.368 41.3234 49.3682 41.6882 49.3643C42.0531 49.3602 42.4177 49.3522 42.7824 49.3403C43.147 49.3282 43.5117 49.3124 43.8759 49.2925C44.2402 49.2723 44.6041 49.2483 44.9679 49.2206C45.3318 49.1925 45.6953 49.1606 46.0584 49.1247C46.4214 49.0887 46.7839 49.0489 47.1463 49.0052C47.5086 48.9612 47.8701 48.9134 48.2312 48.8616C48.5923 48.8098 48.9529 48.7542 49.3129 48.6946C49.6728 48.6348 50.0322 48.5712 50.3906 48.5038C50.7492 48.4362 51.107 48.3647 51.464 48.2893C51.8209 48.2139 52.1769 48.1346 52.5322 48.0514C52.8875 47.9682 53.2418 47.8811 53.5951 47.7903C53.9486 47.6993 54.3007 47.6044 54.6521 47.5059C55.0033 47.4071 55.3535 47.3046 55.7025 47.1983C56.0515 47.0919 56.3994 46.9817 56.7459 46.8679C57.0925 46.7538 57.4379 46.6362 57.7818 46.5147C58.1259 46.3932 58.4685 46.2678 58.8097 46.1389C59.1509 46.0098 59.4908 45.877 59.8293 45.7407C60.1675 45.604 60.5045 45.4639 60.8398 45.3202C61.1752 45.1762 61.5088 45.0288 61.8408 44.8776C62.1728 44.7264 62.5031 44.5716 62.8318 44.4132C63.1605 44.2548 63.4875 44.0928 63.8127 43.9272C64.1377 43.7616 64.4609 43.5927 64.7824 43.42C65.0984 43.2532 65.4121 43.0829 65.7238 42.9089C66.0357 42.7348 66.3453 42.5571 66.6529 42.3759C66.9607 42.1944 67.2662 42.0095 67.5693 41.8208C67.8724 41.6321 68.1734 41.4401 68.472 41.2444C68.7707 41.0487 69.0672 40.8495 69.3611 40.6468C69.655 40.4438 69.9466 40.2376 70.2357 40.0282C70.5248 39.8184 70.8113 39.6054 71.0953 39.3889C71.3795 39.1725 71.6609 38.9528 71.9396 38.7298C72.2185 38.5067 72.4947 38.2803 72.7681 38.0509C73.0418 37.8212 73.3125 37.5884 73.5804 37.3524C73.8484 37.1163 74.1136 36.877 74.3759 36.6348C74.6384 36.3927 74.8978 36.1473 75.1543 35.8989C75.4107 35.6505 75.6642 35.3989 75.9148 35.1446C76.1656 34.8901 76.413 34.6327 76.6574 34.3725C76.9019 34.1122 77.1433 33.8491 77.3816 33.5831C77.6197 33.3171 77.8548 33.0483 78.0867 32.7768C78.3185 32.5052 78.5472 32.2309 78.7728 31.954C78.9982 31.677 79.2203 31.3973 79.439 31.1153C79.6578 30.8329 79.8732 30.5481 80.0853 30.261C80.2974 29.9735 80.5062 29.6837 80.7113 29.3915C80.9166 29.0993 81.1183 28.8046 81.3164 28.5077C81.5146 28.2106 81.7091 27.9112 81.9004 27.6096C82.0916 27.3081 82.2791 27.0042 82.4631 26.6981C82.647 26.3919 82.8273 26.0837 83.0041 25.7735C83.1808 25.4632 83.3537 25.1509 83.523 24.8364C83.6923 24.522 83.8578 24.2055 84.0195 23.8872C84.1814 23.5688 84.3394 23.2485 84.4935 22.9266C84.6478 22.6044 84.7982 22.2805 84.9447 21.955C85.0914 21.6292 85.2341 21.3018 85.3728 20.9729C85.5117 20.644 85.6466 20.3134 85.7775 19.9811C85.9086 19.6489 86.0355 19.3152 86.1586 18.98C86.2816 18.6448 86.4007 18.3081 86.5158 17.9701C86.5256 17.9379 86.5365 17.9061 86.5484 17.8747C86.5605 17.8433 86.5738 17.8124 86.5881 17.782C86.6023 17.7516 86.6177 17.7218 86.6343 17.6925C86.6509 17.6632 86.6685 17.6346 86.6873 17.6066C86.7058 17.5787 86.7255 17.5514 86.7463 17.5249C86.767 17.4984 86.7886 17.4727 86.8111 17.4477C86.8338 17.4228 86.8572 17.3988 86.8814 17.3756C86.9058 17.3524 86.931 17.3302 86.957 17.3088C86.983 17.2875 87.0097 17.2672 87.0373 17.2478C87.0648 17.2285 87.0929 17.2102 87.1218 17.1929C87.1507 17.1757 87.1802 17.1595 87.2101 17.1444C87.2402 17.1293 87.2709 17.1154 87.3019 17.1026C87.333 17.0897 87.3646 17.0781 87.3964 17.0676C87.4283 17.0571 87.4607 17.0478 87.4933 17.0397C87.5259 17.0316 87.5589 17.0247 87.592 17.019C87.6252 17.0134 87.6586 17.0089 87.692 17.0057C88.7144 16.8736 89.7388 16.7579 90.765 16.6587C91.7912 16.5595 92.8187 16.4767 93.8476 16.4105C94.8763 16.3443 95.906 16.2946 96.9365 16.2615C97.967 16.2284 98.9978 16.2118 100.029 16.2118C101.06 16.2118 102.09 16.2284 103.121 16.2615C104.151 16.2946 105.181 16.3443 106.21 16.4105C107.239 16.4767 108.266 16.5595 109.293 16.6587C110.319 16.7579 111.343 16.8736 112.366 17.0057C112.399 17.0089 112.432 17.0134 112.465 17.019C112.499 17.0247 112.532 17.0316 112.564 17.0397C112.597 17.0478 112.629 17.0571 112.661 17.0676C112.693 17.0781 112.725 17.0897 112.755 17.1026C112.787 17.1154 112.817 17.1293 112.847 17.1444C112.877 17.1595 112.907 17.1757 112.936 17.1929C112.964 17.2102 112.993 17.2285 113.02 17.2478C113.048 17.2672 113.074 17.2875 113.1 17.3088C113.127 17.3302 113.152 17.3524 113.176 17.3756C113.2 17.3988 113.224 17.4228 113.246 17.4477C113.269 17.4727 113.291 17.4984 113.311 17.5249C113.332 17.5514 113.352 17.5787 113.37 17.6066C113.389 17.6346 113.407 17.6632 113.423 17.6925C113.44 17.7218 113.455 17.7516 113.469 17.782C113.484 17.8124 113.497 17.8433 113.509 17.8747C113.521 17.9061 113.532 17.9379 113.542 17.9701C113.657 18.3081 113.776 18.6448 113.899 18.98C114.022 19.3152 114.149 19.6489 114.28 19.9811C114.411 20.3134 114.546 20.644 114.685 20.9729C114.824 21.3018 114.966 21.6292 115.113 21.955C115.259 22.2805 115.41 22.6044 115.564 22.9266C115.718 23.2485 115.876 23.5688 116.038 23.8872C116.2 24.2055 116.365 24.522 116.534 24.8364C116.704 25.1509 116.877 25.4632 117.053 25.7735C117.23 26.0837 117.41 26.3919 117.594 26.6981C117.778 27.0042 117.966 27.3081 118.157 27.6096C118.348 27.9112 118.543 28.2106 118.741 28.5077C118.939 28.8046 119.141 29.0993 119.346 29.3915C119.552 29.6837 119.76 29.9735 119.972 30.261C120.184 30.5481 120.4 30.8329 120.618 31.1153C120.837 31.3973 121.059 31.677 121.285 31.954C121.51 32.2309 121.739 32.5052 121.971 32.7768C122.202 33.0483 122.438 33.3171 122.676 33.5831C122.914 33.8491 123.155 34.1122 123.4 34.3725C123.644 34.6327 123.892 34.8901 124.143 35.1446C124.393 35.3989 124.647 35.6505 124.903 35.8989C125.16 36.1473 125.419 36.3927 125.681 36.6348C125.944 36.877 126.209 37.1163 126.477 37.3524C126.745 37.5884 127.016 37.8212 127.289 38.0509C127.563 38.2803 127.839 38.5067 128.118 38.7298C128.397 38.9528 128.678 39.1725 128.962 39.3889C129.246 39.6054 129.533 39.8184 129.822 40.0282C130.111 40.2376 130.402 40.4438 130.696 40.6468C130.99 40.8495 131.287 41.0487 131.585 41.2444C131.884 41.4401 132.185 41.6321 132.488 41.8208C132.791 42.0095 133.097 42.1944 133.404 42.3759C133.712 42.5571 134.022 42.7348 134.334 42.9089C134.645 43.0829 134.959 43.2532 135.275 43.42C135.596 43.5925 135.919 43.7616 136.244 43.9272C136.569 44.0927 136.896 44.2546 137.224 44.413C137.553 44.5712 137.883 44.7261 138.214 44.8772C138.546 45.0282 138.88 45.1757 139.215 45.3196C139.55 45.4634 139.886 45.6034 140.224 45.7399C140.563 45.8762 140.902 46.0091 141.243 46.1382C141.584 46.2671 141.927 46.3923 142.27 46.5137C142.614 46.6352 142.959 46.7528 143.306 46.8669C143.652 46.9807 144 47.0909 144.348 47.1973C144.697 47.3036 145.047 47.4059 145.398 47.5048C145.749 47.6034 146.101 47.6981 146.454 47.7891C146.807 47.88 147.161 47.9671 147.516 48.0503C147.871 48.1335 148.227 48.2128 148.584 48.2882C148.941 48.3636 149.298 48.4348 149.656 48.5024C150.015 48.57 150.374 48.6335 150.733 48.6932C151.093 48.7528 151.453 48.8085 151.814 48.8604C152.175 48.9122 152.537 48.96 152.899 49.0038C153.261 49.0475 153.623 49.0876 153.986 49.1235C154.349 49.1595 154.712 49.1913 155.075 49.2194C155.439 49.2471 155.803 49.2712 156.167 49.2913C156.531 49.3112 156.895 49.327 157.259 49.3391C157.624 49.3511 157.988 49.3591 158.353 49.3632C158.718 49.3671 159.082 49.3671 159.447 49.3632C159.811 49.3593 160.176 49.3512 160.54 49.3393C160.905 49.3272 161.269 49.3114 161.633 49.2915C161.997 49.2714 162.361 49.2473 162.724 49.2196C163.088 49.1915 163.451 49.1596 163.814 49.1239C164.177 49.088 164.539 49.0481 164.901 49.0044C165.263 48.9604 165.625 48.9126 165.986 48.861C166.346 48.8091 166.707 48.7534 167.066 48.6938C167.426 48.6341 167.785 48.5706 168.143 48.5032C168.502 48.4356 168.859 48.3641 169.216 48.2887C169.254 48.278 169.292 48.2686 169.331 48.2604C169.369 48.252 169.408 48.245 169.447 48.2393C169.486 48.2335 169.526 48.229 169.565 48.2257C169.604 48.2223 169.644 48.2204 169.683 48.2196C169.723 48.2188 169.762 48.2192 169.802 48.2212C169.841 48.2227 169.881 48.2259 169.92 48.2302C169.959 48.2345 169.998 48.2399 170.037 48.2466C170.076 48.2532 170.115 48.2612 170.153 48.2706C170.192 48.2798 170.23 48.2901 170.267 48.3018C170.305 48.3136 170.343 48.3264 170.379 48.3405C170.416 48.3544 170.453 48.3696 170.489 48.386C170.525 48.4022 170.56 48.4196 170.595 48.4384C170.63 48.4569 170.664 48.4766 170.697 48.4975C170.731 48.5182 170.764 48.5399 170.796 48.563C170.828 48.5858 170.86 48.6096 170.89 48.6346C170.921 48.6595 170.951 48.6852 170.98 48.7122C171.606 49.4602 172.219 50.2192 172.818 50.9891C173.418 51.7589 174.003 52.5389 174.575 53.3296C175.147 54.1202 175.704 54.9206 176.248 55.7309C176.791 56.5411 177.32 57.3608 177.834 58.1899C178.349 59.0188 178.848 59.8567 179.333 60.7036C179.818 61.5503 180.287 62.4053 180.741 63.2686C181.196 64.1319 181.635 65.0032 182.058 65.8821C182.482 66.761 182.889 67.6471 183.282 68.5405C183.47 68.9403 183.117 69.3637 182.952 69.5284L182.952 69.5755Z"   fill="#4D4D4D" >
</path>
<path d="M100.017 59.72C99.3573 59.7196 98.6982 59.7354 98.0394 59.7675C97.3806 59.7995 96.723 59.8476 96.0665 59.9118C95.4101 59.9761 94.7558 60.0565 94.1032 60.153C93.4507 60.2494 92.8011 60.3617 92.154 60.4901C91.507 60.6184 90.8636 60.7624 90.2237 60.9223C89.5839 61.0824 88.9484 61.2579 88.3171 61.4491C87.6859 61.6402 87.0597 61.8467 86.4384 62.0686C85.8173 62.2905 85.2021 62.5275 84.5925 62.7796C83.9829 63.0316 83.38 63.2986 82.7837 63.5803C82.1874 63.862 81.5984 64.1581 81.0165 64.4688C80.4347 64.7795 79.8607 65.1042 79.2948 65.443C78.729 65.7818 78.1717 66.1344 77.6232 66.5006C77.0746 66.8668 76.5353 67.2462 76.0054 67.6389C75.4756 68.0316 74.9556 68.4371 74.4456 68.8553C73.9356 69.2734 73.4361 69.7039 72.9472 70.1467C72.4583 70.5895 71.9805 71.0439 71.514 71.51C71.0474 71.9763 70.5926 72.4537 70.1495 72.9423C69.7064 73.4308 69.2756 73.9299 68.8569 74.4395C68.4383 74.9493 68.0325 75.4689 67.6394 75.9985C67.2463 76.5282 66.8664 77.0672 66.4997 77.6155C66.1332 78.1638 65.7803 78.7207 65.4409 79.2862C65.1016 79.8518 64.7764 80.4255 64.4653 81.0071C64.1543 81.5887 63.8577 82.1776 63.5755 82.7737C63.2933 83.3698 63.026 83.9725 62.7734 84.5819C62.5207 85.1911 62.2832 85.8063 62.0609 86.4272C61.8385 87.0481 61.6315 87.6743 61.44 88.3053C61.2483 88.9364 61.0723 89.5719 60.9118 90.2116C60.7514 90.8512 60.6068 91.4946 60.4778 92.1415C60.3491 92.7883 60.2362 93.438 60.1392 94.0905C60.0423 94.7428 59.9614 95.3971 59.8966 96.0536C59.8319 96.71 59.7833 97.3674 59.7507 98.0262C59.7183 98.685 59.702 99.3442 59.7019 100.004C59.7017 100.663 59.7178 101.323 59.7499 101.981C59.7822 102.64 59.8307 103.298 59.8952 103.954C59.9597 104.611 60.0403 105.265 60.137 105.917C60.2336 106.57 60.3463 107.219 60.4749 107.866C60.6034 108.513 60.7478 109.157 60.9079 109.797C61.0681 110.436 61.2439 111.072 61.4353 111.703C61.6267 112.334 61.8335 112.96 62.0556 113.581C62.2777 114.202 62.515 114.817 62.7673 115.427C63.0196 116.036 63.2868 116.639 63.5687 117.235C63.8507 117.832 64.1471 118.421 64.4579 119.002C64.7689 119.584 65.0939 120.158 65.4329 120.724C65.772 121.289 66.1247 121.846 66.4911 122.395C66.8575 122.943 67.2372 123.482 67.63 124.012C68.0228 124.542 68.4285 125.062 68.847 125.572C69.2654 126.082 69.696 126.581 70.139 127.069C70.582 127.558 71.0366 128.036 71.5029 128.502C71.9693 128.968 72.4468 129.423 72.9355 129.866C73.4243 130.309 73.9236 130.74 74.4335 131.158C74.9433 131.576 75.4631 131.982 75.9929 132.375C76.5227 132.768 77.0618 133.148 77.6103 133.514C78.1587 133.88 78.7158 134.233 79.2816 134.572C79.8472 134.911 80.4208 135.236 81.0027 135.547C81.5843 135.858 82.1734 136.154 82.7696 136.436C83.3659 136.718 83.9687 136.985 84.578 137.238C85.1874 137.49 85.8027 137.727 86.4238 137.949C87.0446 138.172 87.6708 138.378 88.3021 138.57C88.9331 138.761 89.5687 138.937 90.2085 139.097C90.8484 139.257 91.4917 139.402 92.1386 139.53C92.7857 139.659 93.4353 139.771 94.0876 139.868C94.7402 139.965 95.3945 140.045 96.0509 140.11C96.7073 140.174 97.365 140.223 98.0238 140.255C98.6825 140.287 99.3417 140.303 100.001 140.303C100.661 140.303 101.32 140.287 101.979 140.254C102.637 140.222 103.295 140.173 103.951 140.108C104.608 140.044 105.262 139.963 105.915 139.866C106.567 139.769 107.217 139.656 107.863 139.527C108.51 139.398 109.154 139.254 109.793 139.093C110.433 138.933 111.069 138.757 111.7 138.565C112.331 138.374 112.957 138.167 113.578 137.944C114.199 137.722 114.814 137.484 115.423 137.232C116.032 136.979 116.635 136.712 117.231 136.43C117.827 136.147 118.416 135.851 118.998 135.54C119.579 135.229 120.153 134.903 120.719 134.564C121.284 134.225 121.841 133.872 122.39 133.505C122.938 133.139 123.477 132.759 124.007 132.366C124.536 131.973 125.056 131.567 125.566 131.148C126.075 130.73 126.574 130.299 127.063 129.856C127.551 129.412 128.029 128.958 128.495 128.491C128.961 128.024 129.416 127.547 129.858 127.058C130.301 126.569 130.732 126.069 131.15 125.559C131.568 125.049 131.973 124.529 132.366 123.999C132.759 123.47 133.138 122.93 133.504 122.382C133.871 121.833 134.223 121.276 134.562 120.71C134.901 120.144 135.226 119.57 135.536 118.989C135.847 118.407 136.143 117.818 136.425 117.221C136.707 116.625 136.973 116.022 137.226 115.412C137.478 114.803 137.715 114.188 137.936 113.566C138.158 112.945 138.365 112.319 138.556 111.688C138.747 111.057 138.923 110.421 139.083 109.781C139.242 109.141 139.387 108.498 139.515 107.851C139.643 107.204 139.756 106.554 139.852 105.902C139.949 105.249 140.029 104.595 140.093 103.939C140.157 103.282 140.206 102.624 140.238 101.966C140.269 101.307 140.285 100.648 140.285 99.9882C140.284 99.3294 140.267 98.671 140.234 98.013C140.201 97.3549 140.152 96.6983 140.087 96.0426C140.022 95.387 139.94 94.7335 139.843 94.0819C139.746 93.4303 139.633 92.7815 139.503 92.1354C139.374 91.4895 139.23 90.8469 139.069 90.2081C138.908 89.5692 138.732 88.9344 138.541 88.3042C138.349 87.6739 138.142 87.0485 137.919 86.4284C137.697 85.8083 137.46 85.194 137.207 84.5854C136.955 83.977 136.687 83.3751 136.406 82.7796C136.124 82.1841 135.827 81.596 135.516 81.0151C135.206 80.4342 134.881 79.8614 134.542 79.2964C134.203 78.7315 133.85 78.1752 133.484 77.6274C133.118 77.0798 132.739 76.5414 132.346 76.0124C131.953 75.4833 131.548 74.9642 131.13 74.455C130.712 73.9457 130.282 73.4471 129.839 72.959C129.397 72.4709 128.943 71.9939 128.477 71.528C128.011 71.0623 127.534 70.6081 127.046 70.1655C126.558 69.7231 126.059 69.2928 125.55 68.8749C125.041 68.4569 124.522 68.0516 123.993 67.659C123.464 67.2665 122.925 66.8871 122.377 66.521C121.83 66.1547 121.274 65.8022 120.709 65.4633C120.144 65.1244 119.571 64.7996 118.99 64.4887C118.409 64.1779 117.821 63.8815 117.225 63.5995C116.63 63.3176 116.028 63.0504 115.419 62.7979C114.811 62.5455 114.197 62.308 113.576 62.0856C112.956 61.8632 112.331 61.6562 111.701 61.4645C111.071 61.2729 110.436 61.0967 109.797 60.936C109.158 60.7755 108.516 60.6307 107.869 60.5016C107.224 60.3725 106.575 60.2593 105.923 60.162C105.272 60.0647 104.618 59.9835 103.962 59.9182C103.307 59.853 102.65 59.8038 101.992 59.7708C101.334 59.7377 100.676 59.7208 100.017 59.72ZM124.079 99.9882C124.079 100.382 124.07 100.776 124.051 101.169C124.032 101.563 124.004 101.955 123.965 102.347C123.927 102.739 123.879 103.13 123.822 103.52C123.764 103.909 123.697 104.297 123.621 104.684C123.544 105.07 123.459 105.454 123.363 105.837C123.268 106.219 123.163 106.598 123.049 106.975C122.935 107.352 122.812 107.726 122.68 108.097C122.547 108.468 122.406 108.836 122.256 109.2C122.105 109.564 121.946 109.924 121.778 110.28C121.61 110.636 121.433 110.988 121.248 111.336C121.062 111.683 120.868 112.026 120.666 112.364C120.464 112.702 120.254 113.035 120.035 113.363C119.817 113.69 119.59 114.012 119.356 114.329C119.121 114.646 118.879 114.956 118.63 115.261C118.38 115.565 118.123 115.864 117.859 116.156C117.595 116.448 117.324 116.733 117.045 117.012C116.767 117.291 116.482 117.563 116.19 117.827C115.899 118.092 115.601 118.349 115.296 118.6C114.992 118.85 114.682 119.092 114.366 119.327C114.05 119.562 113.728 119.789 113.401 120.008C113.073 120.227 112.741 120.438 112.403 120.641C112.065 120.844 111.723 121.038 111.376 121.224C111.028 121.41 110.677 121.587 110.321 121.756C109.965 121.924 109.605 122.084 109.241 122.235C108.877 122.386 108.51 122.528 108.14 122.661C107.769 122.794 107.395 122.918 107.018 123.033C106.641 123.147 106.262 123.253 105.88 123.349C105.498 123.444 105.114 123.531 104.727 123.608C104.341 123.685 103.953 123.753 103.564 123.811C103.174 123.869 102.784 123.917 102.392 123.956C102 123.995 101.607 124.024 101.213 124.044C100.82 124.064 100.426 124.074 100.033 124.074C99.6386 124.074 99.245 124.065 98.8517 124.045C98.4581 124.026 98.0655 123.998 97.6736 123.959C97.2816 123.921 96.8907 123.873 96.5011 123.815C96.1114 123.758 95.7234 123.691 95.337 123.614C94.9507 123.538 94.5665 123.452 94.1843 123.356C93.8021 123.261 93.4226 123.156 93.0456 123.042C92.6687 122.928 92.2946 122.804 91.9238 122.672C91.5528 122.539 91.1853 122.398 90.8214 122.247C90.4575 122.097 90.0974 121.937 89.7411 121.769C89.3851 121.601 89.0333 121.424 88.6859 121.239C88.3384 121.053 87.9956 120.859 87.6577 120.657C87.3196 120.455 86.9868 120.244 86.6593 120.026C86.3318 119.807 86.0097 119.58 85.6931 119.346C85.3767 119.111 85.0661 118.869 84.7616 118.62C84.457 118.37 84.1587 118.113 83.8667 117.849C83.5747 117.584 83.2896 117.313 83.0109 117.034C82.7321 116.756 82.4605 116.471 82.1958 116.179C81.9312 115.888 81.6738 115.59 81.4238 115.285C81.1738 114.981 80.9314 114.67 80.6966 114.354C80.4618 114.038 80.2349 113.716 80.0159 113.389C79.797 113.061 79.5863 112.729 79.3835 112.391C79.1809 112.053 78.9867 111.711 78.8009 111.364C78.6151 111.016 78.4379 110.665 78.2693 110.308C78.1008 109.952 77.9411 109.593 77.7902 109.229C77.6394 108.865 77.4975 108.498 77.3646 108.127C77.2318 107.756 77.1081 107.382 76.9937 107.005C76.8792 106.629 76.7741 106.249 76.6782 105.867C76.5823 105.485 76.4958 105.101 76.4189 104.715C76.3419 104.328 76.2745 103.94 76.2165 103.551C76.1586 103.161 76.1103 102.77 76.0716 102.378C76.0328 101.986 76.0037 101.594 75.9843 101.2C75.9648 100.807 75.9549 100.413 75.9548 100.019C75.9547 99.6255 75.9642 99.2319 75.9835 98.8385C76.0027 98.4452 76.0315 98.0524 76.07 97.6604C76.1084 97.2684 76.1565 96.8776 76.2142 96.488C76.2719 96.0983 76.3391 95.7104 76.4159 95.3241C76.4926 94.9378 76.5788 94.5536 76.6743 94.1714C76.7699 93.7893 76.8749 93.4098 76.9892 93.0329C77.1034 92.6559 77.2267 92.2821 77.3593 91.9112C77.492 91.5403 77.6337 91.1727 77.7843 90.8089C77.9348 90.445 78.0943 90.0848 78.2626 89.7288C78.431 89.3727 78.6079 89.0212 78.7935 88.6737C78.9791 88.3262 79.1732 87.9835 79.3755 87.6456C79.578 87.3079 79.7886 86.9751 80.0073 86.6475C80.2261 86.32 80.4527 85.9981 80.6872 85.6817C80.9218 85.3653 81.164 85.0547 81.4138 84.7503C81.6636 84.4458 81.9208 84.1475 82.1853 83.8555C82.4497 83.5637 82.7212 83.2786 82.9997 82.9999C83.278 82.7214 83.5632 82.4499 83.855 82.1852C84.147 81.9208 84.445 81.6635 84.7495 81.4135C85.054 81.1637 85.3644 80.9214 85.6806 80.6868C85.9968 80.452 86.3187 80.2253 86.6462 80.0063C86.9737 79.7876 87.3064 79.5768 87.6443 79.3743C87.9819 79.1718 88.3245 78.9777 88.672 78.7919C89.0193 78.6062 89.371 78.4292 89.7271 78.2608C90.0831 78.0923 90.4431 77.9327 90.807 77.7819C91.1708 77.6311 91.5382 77.4894 91.9091 77.3567C92.28 77.224 92.6538 77.1005 93.0306 76.9862C93.4075 76.8717 93.787 76.7667 94.1691 76.671C94.5511 76.5753 94.9353 76.489 95.3216 76.4122C95.7079 76.3352 96.0958 76.2679 96.4855 76.2102C96.8751 76.1524 97.2659 76.1042 97.6579 76.0655C98.0499 76.0268 98.4425 75.9979 98.8361 75.9786C99.2294 75.9593 99.623 75.9497 100.017 75.9497C100.41 75.9501 100.804 75.96 101.196 75.9796C101.589 75.9992 101.982 76.0285 102.373 76.0674C102.765 76.1063 103.155 76.1547 103.544 76.2128C103.933 76.2707 104.321 76.3382 104.707 76.4153C105.092 76.4923 105.476 76.5787 105.858 76.6745C106.239 76.7702 106.618 76.8753 106.995 76.9897C107.371 77.104 107.745 77.2275 108.115 77.3602C108.486 77.4929 108.852 77.6346 109.216 77.7852C109.579 77.9359 109.939 78.0953 110.295 78.2636C110.65 78.4319 111.001 78.6088 111.349 78.7942C111.696 78.9798 112.038 79.1736 112.375 79.3758C112.713 79.5782 113.045 79.7885 113.372 80.0071C113.699 80.2256 114.021 80.452 114.337 80.6864C114.653 80.9206 114.963 81.1626 115.268 81.4122C115.572 81.6616 115.87 81.9184 116.161 82.1825C116.453 82.4465 116.738 82.7176 117.016 82.9958C117.294 83.2739 117.566 83.5587 117.83 83.8499C118.095 84.1413 118.352 84.4389 118.601 84.7428C118.851 85.0469 119.094 85.3569 119.328 85.6727C119.563 85.9885 119.79 86.3098 120.008 86.6368C120.227 86.9637 120.438 87.2958 120.641 87.6331C120.843 87.9704 121.037 88.3126 121.223 88.6592C121.409 89.0059 121.586 89.3571 121.755 89.7128C121.923 90.0682 122.083 90.4276 122.234 90.7909C122.385 91.1542 122.527 91.521 122.66 91.8913C122.793 92.2614 122.917 92.6348 123.032 93.0112C123.147 93.3876 123.252 93.7665 123.348 94.1479C123.445 94.5294 123.531 94.9131 123.609 95.2989C123.686 95.6846 123.754 96.0719 123.812 96.461C123.871 96.8503 123.919 97.2405 123.959 97.6319C123.998 98.0235 124.028 98.4157 124.048 98.8087C124.068 99.2014 124.078 99.5946 124.079 99.9882Z"   fill="#4D4D4D" >
</path>
</g>
<defs>
<clipPath id="clip-path-7nfSv-_ysi5Ak7caBif95">
<path d="M0 200L200 200L200 0L0 0L0 200Z" fill="white"/>
</clipPath>
</defs>
</svg>
