<svg xmlns="http://www.w3.org/2000/svg" xmlns:xlink="http://www.w3.org/1999/xlink" width="30" height="30" viewBox="0 0 30 30" fill="none">
<path d="M0 0L30 0L30 30L0 30L0 0Z"   fill="#FF0033" fill-opacity="0">
</path>
<path d="M7.04439 4.92188L7.11315 4.98501L15.6069 13.4794L23.7881 5.29814C23.8023 5.2839 23.8167 5.27 23.8314 5.25645C23.8462 5.24292 23.8613 5.22974 23.8767 5.21693C23.8921 5.20411 23.9078 5.19167 23.9238 5.1796C23.9398 5.16755 23.9561 5.15588 23.9726 5.14459C23.9892 5.13332 24.006 5.12246 24.0231 5.11199C24.0402 5.1015 24.0575 5.09144 24.0751 5.08181C24.0926 5.07218 24.1104 5.06297 24.1284 5.05418C24.1464 5.0454 24.1647 5.03705 24.1831 5.02917C24.2015 5.02126 24.2201 5.01379 24.2388 5.00678C24.2576 4.99977 24.2765 4.99321 24.2956 4.98709C24.3147 4.981 24.3339 4.97536 24.3533 4.97019C24.3726 4.96501 24.3921 4.96031 24.4117 4.95607C24.4313 4.95181 24.4509 4.94804 24.4707 4.94476C24.4905 4.94146 24.5103 4.93864 24.5302 4.93629C24.5501 4.93395 24.57 4.93208 24.59 4.9307C24.61 4.92933 24.63 4.92843 24.65 4.928C24.6701 4.92759 24.6901 4.92765 24.7101 4.92818C24.7302 4.92872 24.7502 4.92975 24.7701 4.93125C24.7901 4.93276 24.8101 4.93474 24.8299 4.9372C24.8498 4.93966 24.8696 4.9426 24.8894 4.94602C24.9091 4.94944 24.9288 4.95332 24.9483 4.95768C24.9679 4.96205 24.9873 4.96689 25.0066 4.97218C25.026 4.97747 25.0452 4.98323 25.0642 4.98944C25.0833 4.99567 25.1022 5.00234 25.1208 5.00945C25.1396 5.01658 25.1581 5.02416 25.1765 5.03218C25.1949 5.04019 25.213 5.04865 25.231 5.05755C25.2489 5.06644 25.2667 5.07576 25.2842 5.0855C25.3017 5.09525 25.319 5.1054 25.3359 5.11597C25.353 5.12654 25.3698 5.13751 25.3862 5.1489C25.4027 5.16029 25.4189 5.17205 25.4348 5.1842C25.4508 5.19637 25.4664 5.20891 25.4817 5.22182C25.497 5.23473 25.512 5.248 25.5267 5.26164C25.5414 5.27527 25.5558 5.28924 25.5698 5.30356C25.5838 5.31787 25.5974 5.33252 25.6107 5.3475C25.624 5.36248 25.637 5.37778 25.6496 5.39338C25.6622 5.40897 25.6744 5.42486 25.6861 5.44105C25.698 5.45724 25.7094 5.4737 25.7204 5.49044C25.7314 5.50718 25.742 5.52417 25.7522 5.54142C25.7624 5.55867 25.7722 5.57615 25.7815 5.59386C25.7909 5.61158 25.7998 5.62951 25.8083 5.64765C25.8168 5.66579 25.8249 5.68413 25.8325 5.70267C25.8401 5.7212 25.8473 5.73991 25.854 5.75877C25.8607 5.77766 25.8669 5.79669 25.8727 5.81587C25.8785 5.83505 25.8839 5.85436 25.8888 5.87379C25.8936 5.89323 25.898 5.91277 25.902 5.93242C25.9059 5.95206 25.9094 5.97179 25.9123 5.9916C25.9153 6.0114 25.9178 6.03127 25.9199 6.05122C25.9219 6.07114 25.9234 6.09111 25.9245 6.11113C25.9256 6.13113 25.9262 6.15115 25.9263 6.17119C25.9264 6.19123 25.926 6.21125 25.9251 6.23127C25.9243 6.25129 25.9229 6.27127 25.9211 6.29122C25.9193 6.31118 25.917 6.33108 25.9142 6.35092C25.9114 6.37077 25.9082 6.39053 25.9045 6.41022C25.9008 6.42991 25.8966 6.44949 25.8919 6.46896C25.8872 6.48845 25.8821 6.50782 25.8765 6.52706C25.8709 6.54629 25.8648 6.56538 25.8583 6.58433C25.8518 6.60327 25.8448 6.62205 25.8374 6.64067C25.83 6.65928 25.8221 6.67771 25.8138 6.69595C25.8055 6.71417 25.7968 6.73219 25.7876 6.75C25.7784 6.76782 25.7688 6.7854 25.7588 6.80277C25.7488 6.82011 25.7383 6.83721 25.7275 6.85407C25.7167 6.8709 25.7054 6.88747 25.6938 6.90378C25.6822 6.92009 25.6701 6.93612 25.6577 6.95186C25.6453 6.96758 25.6325 6.983 25.6194 6.99812L25.5569 7.06688L17.3744 15.2469L25.5563 23.4281C25.5705 23.4422 25.5844 23.4566 25.598 23.4714C25.6115 23.4862 25.6247 23.5012 25.6376 23.5166C25.6504 23.532 25.6628 23.5477 25.6749 23.5637C25.687 23.5797 25.6987 23.596 25.71 23.6125C25.7213 23.6291 25.7322 23.6459 25.7426 23.663C25.7531 23.6801 25.7632 23.6974 25.7728 23.715C25.7825 23.7325 25.7917 23.7503 25.8005 23.7683C25.8093 23.7863 25.8177 23.8046 25.8256 23.8229C25.8335 23.8414 25.841 23.86 25.848 23.8787C25.8551 23.8975 25.8616 23.9164 25.8677 23.9355C25.8739 23.9546 25.8795 23.9738 25.8847 23.9932C25.8899 24.0125 25.8946 24.032 25.8989 24.0516C25.9031 24.0712 25.9069 24.0909 25.9102 24.1106C25.9135 24.1304 25.9164 24.1502 25.9187 24.1701C25.9211 24.19 25.9229 24.21 25.9243 24.23C25.9257 24.25 25.9267 24.27 25.9271 24.29C25.9275 24.31 25.9274 24.3301 25.9269 24.3501C25.9264 24.3702 25.9254 24.3902 25.9239 24.4101C25.9224 24.4301 25.9204 24.4501 25.918 24.47C25.9155 24.4899 25.9126 24.5097 25.9092 24.5294C25.9058 24.5492 25.9019 24.5688 25.8975 24.5884C25.8932 24.608 25.8884 24.6274 25.8831 24.6467C25.8778 24.6661 25.872 24.6853 25.8658 24.7043C25.8596 24.7234 25.853 24.7423 25.8458 24.761C25.8387 24.7798 25.8312 24.7983 25.8231 24.8167C25.8152 24.835 25.8067 24.8532 25.7978 24.8712C25.7889 24.8892 25.7796 24.9069 25.7699 24.9244C25.7601 24.9419 25.75 24.9592 25.7394 24.9762C25.7288 24.9932 25.7179 25.01 25.7065 25.0265C25.6951 25.043 25.6833 25.0592 25.6712 25.0752C25.659 25.0911 25.6465 25.1067 25.6336 25.1221C25.6207 25.1374 25.6074 25.1524 25.5938 25.1671C25.5802 25.1818 25.5662 25.1962 25.5518 25.2102C25.5375 25.2242 25.5229 25.2379 25.5079 25.2512C25.4929 25.2645 25.4776 25.2774 25.462 25.29C25.4464 25.3026 25.4305 25.3148 25.4143 25.3266C25.3982 25.3384 25.3817 25.3499 25.3649 25.3609C25.3482 25.3719 25.3312 25.3825 25.314 25.3927C25.2967 25.4029 25.2793 25.4127 25.2615 25.4221C25.2438 25.4314 25.2259 25.4404 25.2077 25.4489C25.1896 25.4574 25.1712 25.4654 25.1527 25.4731C25.1342 25.4807 25.1155 25.4879 25.0966 25.4946C25.0777 25.5013 25.0586 25.5076 25.0395 25.5134C25.0203 25.5192 25.001 25.5245 24.9815 25.5294C24.9621 25.5343 24.9426 25.5387 24.9229 25.5426C24.9033 25.5466 24.8835 25.55 24.8637 25.553C24.8439 25.556 24.824 25.5585 24.8041 25.5605C24.7841 25.5626 24.7642 25.5641 24.7441 25.5652C24.7241 25.5663 24.7041 25.5668 24.6841 25.5669C24.664 25.5671 24.644 25.5667 24.6239 25.5658C24.6039 25.565 24.584 25.5637 24.564 25.5618C24.544 25.56 24.5241 25.5577 24.5043 25.555C24.4844 25.5522 24.4647 25.5489 24.445 25.5452C24.4253 25.5414 24.4057 25.5373 24.3862 25.5326C24.3667 25.5279 24.3473 25.5228 24.3281 25.5172C24.3089 25.5116 24.2898 25.5055 24.2708 25.499C24.2518 25.4925 24.2331 25.4855 24.2144 25.4781C24.1958 25.4707 24.1774 25.4628 24.1591 25.4545C24.1409 25.4462 24.1229 25.4374 24.1051 25.4282C24.0873 25.4191 24.0697 25.4095 24.0523 25.3995C24.035 25.3895 24.0178 25.379 24.001 25.3682C23.9841 25.3573 23.9675 25.3461 23.9512 25.3345C23.9349 25.3228 23.9189 25.3108 23.9031 25.2983C23.8874 25.2859 23.872 25.2732 23.8569 25.26L23.7881 25.1962L15.6069 17.015L7.11315 25.51C7.09903 25.5241 7.08458 25.5379 7.06979 25.5513C7.055 25.5648 7.03991 25.5779 7.0245 25.5905C7.00909 25.6033 6.99338 25.6156 6.97739 25.6275C6.96139 25.6395 6.94511 25.6511 6.92855 25.6622C6.912 25.6734 6.8952 25.6842 6.87813 25.6946C6.86106 25.705 6.84375 25.7149 6.82621 25.7244C6.80866 25.734 6.79088 25.7431 6.77289 25.7518C6.75493 25.7604 6.73675 25.7687 6.71837 25.7765C6.7 25.7843 6.68143 25.7917 6.66268 25.7986C6.64395 25.8056 6.62506 25.8121 6.60602 25.8181C6.58698 25.8241 6.56781 25.8296 6.54851 25.8347C6.52919 25.8399 6.50977 25.8445 6.49024 25.8487C6.47071 25.8528 6.45109 25.8565 6.43138 25.8598C6.41167 25.863 6.3919 25.8658 6.37205 25.868C6.35221 25.8703 6.33233 25.8721 6.31241 25.8735C6.29246 25.8748 6.27251 25.8757 6.25255 25.876C6.23257 25.8764 6.2126 25.8763 6.19264 25.8757C6.17268 25.8751 6.15275 25.8741 6.13285 25.8725C6.11292 25.871 6.09305 25.869 6.07323 25.8665C6.05342 25.864 6.03368 25.861 6.01399 25.8576C5.99432 25.8542 5.97474 25.8503 5.95525 25.8459C5.93577 25.8415 5.91641 25.8367 5.89715 25.8313C5.8779 25.826 5.85877 25.8203 5.83979 25.8141C5.8208 25.8078 5.80199 25.8012 5.78333 25.7941C5.76468 25.7869 5.74621 25.7794 5.7279 25.7713C5.7096 25.7633 5.69151 25.7549 5.67362 25.746C5.65573 25.7371 5.63806 25.7278 5.62062 25.7181C5.60318 25.7084 5.58597 25.6982 5.569 25.6877C5.55204 25.6772 5.53534 25.6662 5.5189 25.6549C5.50247 25.6435 5.48632 25.6318 5.47044 25.6197C5.45456 25.6075 5.43899 25.5951 5.42371 25.5822C5.40844 25.5693 5.39349 25.5561 5.37886 25.5425C5.36421 25.5289 5.34991 25.515 5.33594 25.5007C5.32196 25.4865 5.30833 25.4718 5.29507 25.4569C5.28179 25.442 5.26888 25.4268 5.25634 25.4112C5.2438 25.3957 5.23164 25.3798 5.21987 25.3637C5.20807 25.3476 5.19667 25.3312 5.18568 25.3145C5.17468 25.2978 5.1641 25.2809 5.15392 25.2637C5.14373 25.2466 5.13395 25.2291 5.12459 25.2115C5.11526 25.1938 5.10634 25.176 5.09785 25.1579C5.08935 25.1398 5.08129 25.1216 5.07368 25.1031C5.06606 25.0846 5.05888 25.066 5.05214 25.0472C5.04542 25.0284 5.03915 25.0094 5.03333 24.9903C5.02751 24.9712 5.02215 24.952 5.01725 24.9326C5.01237 24.9133 5.00794 24.8938 5.00398 24.8742C5.00001 24.8546 4.99652 24.835 4.99349 24.8152C4.99048 24.7955 4.98794 24.7757 4.98587 24.7558C4.9838 24.736 4.98221 24.7161 4.9811 24.6961C4.97997 24.6762 4.97932 24.6562 4.97916 24.6362C4.97901 24.6163 4.97933 24.5963 4.98013 24.5763C4.98093 24.5564 4.9822 24.5365 4.98394 24.5166C4.9857 24.4967 4.98793 24.4769 4.99065 24.4571C4.99334 24.4373 4.99652 24.4176 5.00017 24.3979C5.00382 24.3783 5.00793 24.3587 5.0125 24.3393C5.01709 24.3199 5.02214 24.3005 5.02765 24.2813C5.03316 24.2621 5.03912 24.2431 5.04555 24.2242C5.05198 24.2053 5.05885 24.1865 5.06618 24.1679C5.0735 24.1493 5.08126 24.131 5.08947 24.1128C5.09767 24.0945 5.1063 24.0765 5.11537 24.0587C5.12445 24.0409 5.13394 24.0234 5.14384 24.0061C5.15374 23.9887 5.16407 23.9716 5.17481 23.9548C5.18553 23.9379 5.19665 23.9213 5.20818 23.905C5.2197 23.8887 5.23161 23.8727 5.24389 23.857C5.2562 23.8412 5.26886 23.8258 5.28189 23.8106L5.34502 23.7419L13.8394 15.2469L5.34564 6.75314C5.33161 6.739 5.31793 6.72453 5.30459 6.70972C5.29125 6.69494 5.27828 6.67984 5.26566 6.66443C5.25306 6.64902 5.24082 6.63332 5.22895 6.61732C5.21709 6.6013 5.20562 6.58502 5.19453 6.56848C5.18345 6.55194 5.17278 6.53514 5.1625 6.51809C5.15221 6.50102 5.14234 6.48373 5.13288 6.46621C5.12343 6.44867 5.1144 6.43092 5.10579 6.41297C5.09719 6.395 5.08902 6.37685 5.08126 6.35851C5.07353 6.34015 5.06623 6.32163 5.05938 6.30293C5.05252 6.28422 5.04613 6.26536 5.04019 6.24636C5.03423 6.22736 5.02873 6.20822 5.0237 6.18894C5.01866 6.16968 5.01409 6.15031 5.00998 6.13082C5.00586 6.11132 5.00222 6.09175 4.99906 6.0721C4.99587 6.05243 4.99317 6.03271 4.99094 6.01292C4.9887 5.99314 4.98694 5.9733 4.98567 5.95342C4.98438 5.93354 4.98357 5.91365 4.98324 5.89374C4.9829 5.87382 4.98304 5.85391 4.98365 5.83401C4.98427 5.8141 4.98537 5.79422 4.98693 5.77436C4.98851 5.75451 4.99055 5.73471 4.99305 5.71495C4.99557 5.6952 4.99856 5.67551 5.00202 5.65588C5.00547 5.63627 5.0094 5.61675 5.01379 5.59732C5.01817 5.5779 5.02301 5.5586 5.02832 5.5394C5.03364 5.5202 5.03941 5.50115 5.04564 5.48224C5.05187 5.46332 5.05854 5.44455 5.06565 5.42596C5.07278 5.40735 5.08034 5.38892 5.08832 5.37068C5.09633 5.35246 5.10477 5.33442 5.11364 5.31657C5.12248 5.29873 5.13176 5.28113 5.14147 5.26375C5.15118 5.24634 5.16129 5.22919 5.17182 5.2123C5.18235 5.19538 5.19327 5.17873 5.20457 5.16235C5.2159 5.14596 5.22761 5.12986 5.2397 5.11404C5.25179 5.0982 5.26425 5.08266 5.27708 5.06743C5.28992 5.05219 5.3031 5.03728 5.31663 5.02269C5.33019 5.00808 5.34408 4.99381 5.35829 4.97989C5.37251 4.96594 5.38706 4.95235 5.40195 4.93911C5.41683 4.92586 5.43201 4.91298 5.4475 4.90046C5.46299 4.88794 5.47877 4.8758 5.49485 4.86405C5.51092 4.85229 5.52727 4.84092 5.54389 4.82995C5.56049 4.81897 5.57736 4.80839 5.59449 4.79822C5.61162 4.78804 5.62897 4.77828 5.64655 4.76892C5.66415 4.75958 5.68195 4.75067 5.69995 4.74217C5.71796 4.73368 5.73617 4.72562 5.75456 4.718C5.77296 4.71037 5.79154 4.70319 5.81029 4.69647C5.82904 4.68973 5.84793 4.68344 5.86698 4.6776C5.88602 4.67176 5.90519 4.66639 5.92449 4.66149C5.94378 4.65657 5.96319 4.65211 5.9827 4.64813C6.00221 4.64414 6.02181 4.64062 6.0415 4.63755C6.06116 4.63451 6.0809 4.63193 6.10071 4.62982C6.12051 4.62771 6.14035 4.62608 6.16024 4.62493C6.18012 4.62375 6.20002 4.62307 6.21995 4.62288C6.23987 4.62266 6.25978 4.62292 6.27968 4.62367C6.29958 4.62441 6.31946 4.62563 6.3393 4.62733C6.35914 4.62901 6.37893 4.63117 6.39866 4.6338C6.4184 4.63644 6.43807 4.63955 6.45766 4.64315C6.47725 4.64672 6.49674 4.65077 6.51614 4.65528C6.53555 4.65979 6.55484 4.66476 6.574 4.67019C6.59316 4.67562 6.61217 4.68151 6.63104 4.68786C6.64993 4.69418 6.66865 4.70097 6.6872 4.70822C6.70575 4.71544 6.72412 4.72312 6.74231 4.73124C6.76051 4.73935 6.7785 4.74789 6.79627 4.75688C6.81405 4.76584 6.83161 4.77524 6.84895 4.78506C6.86627 4.79487 6.88336 4.80508 6.90019 4.81571C6.91704 4.82633 6.93363 4.83736 6.94994 4.84878C6.96625 4.86021 6.98228 4.87202 6.99804 4.8842C7.01378 4.89639 7.02923 4.90895 7.04439 4.92188Z"   fill="#111111" >
</path>
</svg>
