<svg t="1770455310910" class="icon" viewBox="0 0 1024 1024" version="1.1"
    xmlns="http://www.w3.org/2000/svg" p-id="9109" width="256" height="256">
    <path
        d="M866.21 238.33l-62.49 32.52a348 348 0 0 0-223.34-151 8 8 0 0 0-9.43 6.47l-9 51.23a8 8 0 0 0 6.31 9.22A280 280 0 0 1 743 302.44l-60.25 31.37a8 8 0 0 0 0.31 14.34L837 419.92a8 8 0 0 0 11.26-5.86l29.51-167.25a8 8 0 0 0-11.56-8.48zM250.12 731.41l60.76-31.81a8 8 0 0 0-0.34-14.34l-154-71.38a8 8 0 0 0-11.24 5.88L116.18 787a8 8 0 0 0 11.59 8.46l61.74-32.31a348.66 348.66 0 0 0 231.91 152.31l11.67-67a280.77 280.77 0 0 1-182.97-117.05zM463 113.29c-11.61-9.35-27.38-17.47-46.87-24.11C379.85 76.81 332.22 70 282 70s-97.85 6.81-134.13 19.18C88.47 109.43 76 138.87 76 160v310c0 12.12 4.34 30.05 25 46.71 11.6 9.35 27.37 17.47 46.86 24.11C184.15 553.19 231.78 560 282 560s97.85-6.81 134.13-19.18C475.53 520.57 488 491.13 488 470V160c0-12.12-4.34-30.06-25-46.71z m-35 199.28c-3.14 3.55-14.9 12.15-42 19.79-28.84 8.15-65.78 12.64-104 12.64s-75.16-4.49-104-12.64c-27.07-7.64-38.83-16.24-42-19.79V226.4q5.69 2.31 11.87 4.42C184.15 243.19 231.78 250 282 250s97.85-6.81 134.13-19.18q6.28-2.15 11.87-4.41zM178 142.64c28.84-8.15 65.78-12.64 104-12.64s75.16 4.49 104 12.64c22.09 6.23 34 13.12 39.33 17.36-5.33 4.25-17.24 11.13-39.33 17.36-28.84 8.15-65.78 12.64-104 12.64s-75.16-4.49-104-12.64c-22.09-6.23-34-13.11-39.33-17.36 5.33-4.24 17.21-11.13 39.33-17.36z m208 344.72C357.16 495.51 320.22 500 282 500s-75.16-4.49-104-12.64c-27.07-7.64-38.83-16.24-42-19.79V381.4q5.69 2.31 11.87 4.42C184.15 398.19 231.78 405 282 405s97.85-6.81 134.13-19.18q6.28-2.15 11.87-4.41v86.16c-3.14 3.55-14.9 12.15-42 19.79z m536 19.93c-11.61-9.35-27.38-17.47-46.87-24.11C838.85 470.81 791.22 464 741 464s-97.85 6.81-134.13 19.18C547.47 503.43 535 532.87 535 554v310c0 12.12 4.34 30 25 46.71 11.6 9.35 27.37 17.47 46.86 24.11C643.15 947.19 690.78 954 741 954s97.85-6.81 134.13-19.18C934.53 914.57 947 885.13 947 864V554c0-12.12-4.34-30.06-25-46.71z m-35 199.28c-3.14 3.55-14.9 12.15-42 19.79-28.84 8.15-65.78 12.64-104 12.64s-75.16-4.49-104-12.64c-27.07-7.64-38.83-16.24-42-19.79V620.4q5.68 2.31 11.87 4.42C643.15 637.19 690.78 644 741 644s97.85-6.81 134.13-19.18q6.29-2.15 11.87-4.41zM637 536.64c28.84-8.15 65.78-12.64 104-12.64s75.16 4.49 104 12.64c22.09 6.23 34 13.12 39.33 17.36-5.33 4.25-17.24 11.13-39.33 17.36-28.84 8.15-65.78 12.64-104 12.64s-75.16-4.49-104-12.64c-22.09-6.23-34-13.11-39.33-17.36 5.33-4.24 17.21-11.13 39.33-17.36z m208 344.72C816.16 889.51 779.22 894 741 894s-75.16-4.49-104-12.64c-27.07-7.64-38.83-16.24-42-19.79V775.4q5.68 2.31 11.87 4.42C643.15 792.19 690.78 799 741 799s97.85-6.81 134.13-19.18q6.29-2.15 11.87-4.41v86.16c-3.14 3.55-14.9 12.15-42 19.79z"
        p-id="9110" fill="#515151"></path>
</svg>