<svg xmlns="http://www.w3.org/2000/svg" xmlns:xlink="http://www.w3.org/1999/xlink" width="500.0614284276962" height="502" viewBox="0 0 500.0614284276962 502" fill="none">
<rect x="0.05779683589935303" y="1" width="500" height="500"   fill="#000000" fill-opacity="0">
</rect>
<rect  x="115.05779683589935" y="136" width="30" height="365" rx="15"    fill="#333333" >
</rect>
<rect  x="355.05779683589935" y="1" width="30" height="365" rx="15"    fill="#333333" >
</rect>
<path     fill="#333333" fill-opacity="0" d="M235.058 487L235.058 361.5L235.058 236C235.058 227.716 241.764 220.926 250.012 221.7C264.581 223.067 278.884 226.428 292.46 231.695C310.659 238.756 327.195 249.105 341.124 262.151C355.053 275.198 366.102 290.687 373.64 307.733C381.178 324.779 385.058 343.049 385.058 361.5C385.058 379.951 381.178 398.221 373.64 415.267C366.102 432.313 355.053 447.802 341.124 460.849C327.195 473.895 310.659 484.244 292.46 491.305C278.902 496.565 264.619 499.924 250.071 501.295C241.823 502.072 235.058 495.284 235.058 487Z">
</path>
<path fill-rule="evenodd"  fill="rgba(51, 51, 51, 1)"  d="M235.058 361.5L235.058 487C235.058 495.284 241.823 502.072 250.071 501.295C264.619 499.924 278.902 496.565 292.46 491.305C310.659 484.244 327.195 473.895 341.124 460.849C355.053 447.802 366.102 432.313 373.64 415.267C381.178 398.221 385.058 379.951 385.058 361.5C385.058 343.049 381.178 324.779 373.64 307.733C366.102 290.687 355.053 275.198 341.124 262.151C327.195 249.105 310.659 238.756 292.46 231.695C278.884 226.428 264.581 223.067 250.012 221.7C241.764 220.926 235.058 227.716 235.058 236L235.058 361.5ZM265.058 468.487Q273.536 466.469 281.609 463.336Q292.606 459.07 302.478 452.891Q312.294 446.748 320.615 438.953Q328.882 431.21 335.356 422.135Q341.787 413.12 346.203 403.134Q350.596 393.201 352.83 382.678Q355.058 372.188 355.058 361.5Q355.058 350.812 352.83 340.322Q350.596 329.799 346.203 319.866Q341.787 309.88 335.356 300.865Q328.882 291.79 320.615 284.047Q312.294 276.252 302.478 270.109Q292.606 263.93 281.609 259.664Q273.536 256.531 265.058 254.513L265.058 468.487Z">
</path>
<path     fill="#333333" fill-opacity="0" d="M265.058 15L265.058 140.5L265.058 266C265.058 274.284 258.351 281.074 250.103 280.3C235.535 278.933 221.232 275.572 207.655 270.305C189.456 263.244 172.921 252.895 158.992 239.849C145.063 226.802 134.014 211.313 126.476 194.267C118.938 177.221 115.058 158.951 115.058 140.5C115.058 122.049 118.938 103.779 126.476 86.733C134.014 69.6867 145.063 54.1981 158.992 41.1515C172.921 28.1049 189.456 17.7557 207.655 10.6949C221.213 5.43463 235.497 2.07623 250.045 0.705475C258.292 -0.0716248 265.058 6.71573 265.058 15Z">
</path>
<path fill-rule="evenodd"  fill="rgba(51, 51, 51, 1)"  d="M265.058 140.5L265.058 15C265.058 6.71573 258.292 -0.0716248 250.045 0.705475C235.497 2.07623 221.213 5.43463 207.655 10.6949C189.456 17.7557 172.921 28.1049 158.992 41.1515C145.063 54.1981 134.014 69.6867 126.476 86.733C118.938 103.779 115.058 122.049 115.058 140.5C115.058 158.951 118.938 177.221 126.476 194.267C134.014 211.313 145.063 226.802 158.992 239.849C172.921 252.895 189.456 263.244 207.655 270.305C221.232 275.572 235.535 278.933 250.103 280.3C258.351 281.074 265.058 274.284 265.058 266L265.058 140.5ZM235.058 33.5134Q226.58 35.5315 218.507 38.6636Q207.51 42.9301 197.638 49.1086Q187.822 55.2521 179.5 63.0467Q171.233 70.7901 164.76 79.8645Q158.329 88.8796 153.913 98.8662Q149.52 108.799 147.286 119.322Q145.058 129.812 145.058 140.5Q145.058 151.188 147.286 161.678Q149.52 172.201 153.913 182.134Q158.329 192.12 164.76 201.135Q171.233 210.21 179.5 217.953Q187.822 225.748 197.638 231.891Q207.51 238.07 218.507 242.336Q226.58 245.469 235.058 247.487L235.058 33.5134Z">
</path>
<path    stroke="rgba(51, 51, 51, 1)" stroke-width="30"  stroke-linecap="round"  d="M15.0035 15.948L130.021 486.006">
</path>
<path    stroke="rgba(51, 51, 51, 1)" stroke-width="30"  stroke-linecap="round"  d="M370.194 16.1371L485.058 486.025">
</path>
<rect  x="235.05779683589935" y="1" width="30" height="500" rx="15"    fill="#333333" >
</rect>
</svg>
