<svg xmlns="http://www.w3.org/2000/svg"
    xmlns:xlink="http://www.w3.org/1999/xlink" width="500" height="500" viewBox="0 0 500 500" fill="none">
    <g filter="url(#filter_0_2)">
        <path fill-rule="evenodd" fill="rgba(0, 0, 0, 1)" d="M278.868 100.44L287.018 79L197.738 79C178.894 79 160.976 86.5471 147.988 100.2C15.1683 239.823 14.6677 256.078 137.048 388.45C150.991 403.531 176.286 398.602 182.968 379.18C182.968 379.163 182.988 379.147 182.988 379.13C188.888 361.98 197.738 336.25 197.738 336.25L205.108 314.82L219.868 271.94L227.238 250.5L234.618 229.07L241.988 207.63L249.368 186.19L256.738 164.75L264.118 143.32L271.488 121.88L272.018 120.34L275.921 109L278.868 100.44ZM244.194 109L197.738 109Q193.712 109 189.814 109.792Q185.975 110.572 182.397 112.092Q178.828 113.608 175.65 115.805Q172.434 118.029 169.724 120.877Q156.254 135.037 146.606 145.417Q135.384 157.49 126.8 167.159Q117.519 177.615 110.36 186.337Q102.937 195.382 97.3372 203.118Q91.7379 210.854 87.7378 217.586Q83.8941 224.055 81.4287 229.76Q79.1529 235.026 78.0026 239.757Q76.9503 244.085 76.7968 248.17Q76.6464 252.174 77.3485 256.295Q78.1021 260.718 79.8815 265.581Q81.8214 270.882 85.0367 276.872Q88.4204 283.175 93.3049 290.401Q98.2308 297.688 104.873 306.191Q111.311 314.432 119.74 324.296Q127.556 333.441 137.836 344.856Q145.613 353.492 156.152 364.917L159.415 355.432L169.369 326.492L176.739 305.064L191.501 262.176L198.867 240.748L206.253 219.302L213.617 197.878L221.001 176.426L228.367 154.998L235.753 133.552L243.117 112.128L244.194 109ZM287.018 250.5L286.238 271.94L286.238 422L402.238 422C402.238 422 413.938 422 413.938 401.13L413.938 359.38C413.938 359.306 414.037 359.245 414.228 359.19C426.318 355.674 437.338 348.841 437.338 336.25L437.338 271.94C437.338 258.076 432.542 244.636 423.758 233.91L419.788 229.07L417.597 226.393L409.596 216.62L406.936 213.37L408.682 209.397L413.517 198.397L431.6 157.255L454.528 105.09C457.658 97.9677 455.954 90.3421 451.355 85.1864C451.318 85.1446 451.281 85.103 451.243 85.0615C450.031 83.7266 448.623 82.5616 447.053 81.6192C444.302 79.9678 441.055 79 437.498 79L427.168 102.424L396.395 172.206L387.388 192.63L380.773 207.63L341.118 207.63C325.672 207.63 311.189 214.946 302.018 227.267C301.581 227.853 301.157 228.451 300.745 229.06C300.742 229.063 300.74 229.067 300.738 229.07L287.018 250.5ZM325.753 245.638L316.7 259.777L316.238 272.485L316.238 316.797L351.15 237.63L341.118 237.63Q338.799 237.63 336.557 238.192Q334.345 238.748 332.328 239.819Q330.31 240.89 328.61 242.412Q326.996 243.858 325.753 245.638ZM403.799 257.785L344.809 392L383.938 392L383.938 359.38Q383.938 354.268 385.627 349.443Q387.086 345.274 389.682 341.699Q393.006 337.121 397.775 334.052Q401.516 331.644 405.852 330.383Q406.638 330.154 407.338 329.916L407.338 271.94Q407.338 266.735 405.589 261.835Q404.837 259.729 403.799 257.785Z">
        </path>
        <path fill="rgba(0, 0, 0, 0.2)" d="M287.018 86L256.738 86L256.738 79L256.738 86L227.238 86L227.238 79L227.238 86L197.738 86L197.738 86L197.738 86Q191.4 86 185.235 87.2523Q179.12 88.4947 173.405 90.9226Q167.68 93.355 162.574 96.8851Q157.407 100.457 153.063 105.024L153.063 105.024L153.063 105.024Q139.501 119.28 129.762 129.757Q118.361 142.024 109.602 151.89Q100.025 162.679 92.5834 171.745Q84.7174 181.33 78.7078 189.632Q72.4981 198.21 67.9661 205.837Q63.368 213.576 60.3167 220.636Q57.266 227.695 55.654 234.323Q54.0536 240.905 53.8128 247.307Q53.5727 253.691 54.6745 260.159Q55.7803 266.65 58.2807 273.484Q60.782 280.321 64.7704 287.751Q68.7077 295.086 74.2474 303.282Q79.616 311.224 86.7449 320.35Q93.4937 328.99 102.252 339.239Q110.262 348.612 120.742 360.249Q129.681 370.174 142.184 383.699L137.044 388.451L142.184 383.699L137.044 388.451L142.184 383.699Q144.108 385.779 146.449 387.238Q148.684 388.63 151.208 389.401Q153.669 390.153 156.267 390.274Q158.835 390.394 161.362 389.89Q163.885 389.387 166.185 388.299Q168.505 387.2 170.44 385.579Q172.424 383.917 173.893 381.793Q175.437 379.561 176.351 376.904L182.97 379.181L176.35 376.906L176.351 376.904L176.369 376.852L182.988 379.13L176.369 376.853L182.988 379.13L176.369 376.853L181.164 362.914L191.119 333.973L197.738 336.25L191.118 333.974L198.488 312.544L198.489 312.542L205.869 291.102L212.488 293.38L205.869 291.102L213.249 269.662L219.868 271.94L213.248 269.664L220.618 248.224L220.619 248.221L227.999 226.791L234.618 229.07L227.998 226.794L235.368 205.354L235.369 205.352L242.749 183.912L249.368 186.19L242.748 183.914L250.118 162.474L250.119 162.471L257.499 141.041L264.118 143.32L257.498 141.044L264.868 119.604L264.869 119.602L272.249 98.1617L272.325 97.9527L280.475 76.5127L287.018 79L287.018 86ZM287.018 72L293.561 81.4873L285.411 102.927L278.868 100.44L285.487 102.718L278.107 124.158L271.488 121.88L278.108 124.156L270.738 145.596L270.736 145.599L263.356 167.029L256.738 164.75L263.358 167.026L255.988 188.466L255.987 188.468L248.607 209.908L241.988 207.63L248.608 209.906L241.238 231.346L241.236 231.349L233.856 252.779L227.238 250.5L233.858 252.776L226.488 274.216L226.487 274.218L219.107 295.658L219.107 295.658L211.727 317.098L205.108 314.82L211.727 317.096L204.357 338.527L204.357 338.527L194.402 367.468L189.607 381.407L189.607 381.407L189.607 381.408L189.589 381.459L182.97 379.181L189.59 381.457L189.589 381.459Q188.048 385.939 185.407 389.757Q182.864 393.434 179.432 396.31Q176.119 399.086 172.174 400.953Q168.315 402.779 164.099 403.62Q159.893 404.458 155.616 404.259Q151.261 404.056 147.118 402.791Q142.838 401.483 139.045 399.12Q135.106 396.666 131.905 393.203L131.905 393.203L131.905 393.203Q119.338 379.61 110.339 369.618Q99.7367 357.845 91.6091 348.334Q82.6505 337.851 75.7121 328.969Q68.2868 319.463 62.6485 311.122Q56.7097 302.335 52.4353 294.373Q47.9763 286.066 45.133 278.295Q42.1936 270.261 40.8733 262.509Q39.5281 254.613 39.8227 246.781Q40.1165 238.968 42.0504 231.015Q43.9433 223.231 47.4656 215.082Q50.8734 207.197 55.9305 198.686Q60.786 190.514 67.3671 181.423Q73.6259 172.776 81.7616 162.864Q89.3751 153.587 99.1323 142.596Q107.997 132.61 119.508 120.226Q129.302 109.69 142.919 95.3748L147.991 100.199L142.919 95.3748L147.991 100.199L142.919 95.3748Q148.258 89.7624 154.612 85.3693Q160.892 81.0276 167.931 78.0372Q174.947 75.0564 182.448 73.5326Q189.992 72 197.738 72L197.738 79L197.738 72L197.738 79L197.738 72L227.238 72L227.238 72L256.738 72L256.738 72L287.018 72ZM294.018 79L294.018 121.88L287.018 121.88L294.018 121.88L294.018 143.31L287.018 143.31L294.018 143.31L294.018 164.75L287.018 164.75L294.018 164.75L294.018 186.19L287.018 186.19L294.018 186.19L294.018 207.63L287.018 207.63L294.018 207.63L294.018 229.06L287.018 229.06L294.018 229.06L294.018 250.5L280.018 250.5L280.018 229.06L280.018 229.06L280.018 207.63L280.018 207.63L280.018 186.19L280.018 186.19L280.018 164.75L280.018 164.75L280.018 143.31L280.018 143.31L280.018 121.88L280.018 121.88L280.018 79L294.018 79ZM286.238 415L315.238 415L315.238 429L286.238 429L286.238 415ZM279.238 422L279.238 400.56L286.238 400.56L279.238 400.56L279.238 379.13L286.238 379.13L279.238 379.13L279.238 357.69L286.238 357.69L279.238 357.69L279.238 336.25L286.238 336.25L279.238 336.25L279.238 314.81L286.238 314.81L279.238 314.81L279.238 293.38L286.238 293.38L279.238 293.38L279.238 271.94L279.242 271.685L280.023 250.245L294.013 250.755L293.233 272.195L286.238 271.94L293.238 271.94L293.238 293.38L293.238 293.38L293.238 314.81L293.238 314.81L293.238 336.25L293.238 336.25L293.238 357.69L293.238 357.69L293.238 379.13L293.238 379.13L293.238 400.56L293.238 400.56L293.238 422L279.238 422ZM279.833 419.176L431.093 76.1755L443.903 81.8245L292.643 424.824L279.833 419.176ZM281.123 246.726L294.843 225.296L294.939 225.148L294.939 225.148Q298.8 219.441 303.927 214.849Q308.982 210.323 314.978 207.14Q320.973 203.956 327.554 202.305Q334.23 200.63 341.121 200.63L341.121 207.63L341.121 200.63L344.238 200.63L344.238 207.63L344.238 200.63L373.238 200.63L373.238 207.63L373.238 200.63L402.238 200.63L402.238 214.63L373.238 214.63L373.238 214.63L344.238 214.63L344.238 214.63L341.121 214.63L341.121 214.63Q335.96 214.63 330.961 215.884Q326.033 217.121 321.543 219.505Q317.052 221.889 313.267 225.279Q309.428 228.716 306.536 232.992L300.738 229.07L306.536 232.992L300.738 229.07L306.633 232.844L292.913 254.274L281.123 246.726ZM315.238 415L344.238 415L344.238 422L344.238 415L373.238 415L373.238 422L373.238 415L402.238 415L402.238 422L402.238 415L402.238 422L402.238 415Q401.976 415 401.856 415.015Q401.932 415.006 402.071 414.964Q402.767 414.757 403.429 414.167Q404.696 413.037 405.553 410.745Q406.938 407.039 406.938 401.13L413.938 401.13L406.938 401.13L413.938 401.13L406.938 401.13L406.938 359.38L413.938 359.38L406.938 359.38L413.938 359.38L406.938 359.38Q406.938 358.165 407.343 357.02Q407.686 356.05 408.29 355.216Q409.067 354.146 410.184 353.416Q411.13 352.798 412.276 352.465L414.23 359.187L412.276 352.465L414.23 359.187L412.276 352.465Q416.526 351.229 419.876 349.597Q423.366 347.897 425.717 345.846Q428.018 343.839 429.155 341.544Q430.338 339.157 430.338 336.25L437.338 336.25L430.338 336.25L430.338 316.5L437.338 316.5L430.338 316.5L430.338 293.38L437.338 293.38L430.338 293.38L430.338 271.94L437.338 271.94L430.338 271.94L437.338 271.94L430.338 271.94Q430.338 267.364 429.554 262.857Q428.776 258.382 427.248 254.104Q425.72 249.827 423.487 245.872Q421.237 241.888 418.338 238.348L423.754 233.913L418.338 238.348L414.372 233.505L414.371 233.504L396.821 212.064L407.655 203.196L425.205 224.636L419.788 229.07L425.204 224.635L429.169 229.477L429.169 229.477Q432.834 233.953 435.678 238.988Q438.5 243.988 440.432 249.395Q442.364 254.802 443.347 260.458Q444.338 266.156 444.338 271.94L444.338 271.94L444.338 271.94L444.338 293.38L444.338 293.38L444.338 316.5L444.338 316.5L444.338 336.25L444.338 336.25Q444.338 342.435 441.7 347.759Q439.324 352.555 434.919 356.397Q427.931 362.492 416.185 365.908L416.185 365.908L416.185 365.908Q417.042 365.659 417.842 365.136Q418.884 364.455 419.623 363.436Q420.209 362.628 420.542 361.686Q420.938 360.567 420.938 359.38L420.938 359.38L420.938 359.38L420.938 401.13L420.938 401.13L420.938 401.13Q420.938 409.569 418.667 415.646Q416.598 421.181 412.747 424.615Q411.12 426.067 409.243 427.071Q407.702 427.896 406.061 428.384Q404.83 428.75 403.625 428.903Q402.865 429 402.238 429L402.238 429L402.238 429L373.238 429L373.238 429L344.238 429L344.238 429L315.238 429L315.238 415ZM308.83 419.183L448.122 102.274L454.53 105.091L448.122 102.274C451.493 94.6051 445.875 86 437.498 86L437.498 72C455.982 72 468.376 90.9863 460.938 107.908L460.938 107.908L321.646 424.817L308.83 419.183ZM395.487 205.779L430.747 77.1494L444.249 80.8506L408.989 209.481L395.487 205.779ZM279.238 422L286.238 422L286.238 429L279.238 429L279.238 422ZM294.018 79L287.018 79L287.018 72L294.018 72L294.018 79ZM437.498 72L437.498 79L431.093 76.1755L432.934 72L437.498 72Z">
        </path>
    </g>
    <defs>
        <filter id="filter_0_2" x="34.52811813354492" y="72" width="438.8476753234863" height="367" filterUnits="userSpaceOnUse" color-interpolation-filters="sRGB">
            <feFlood flood-opacity="0" result="feFloodId_0_2"/>
            <feColorMatrix in="SourceAlpha" type="matrix" values="0 0 0 0 0 0 0 0 0 0 0 0 0 0 0 0 0 0 127 0" result="hardAlpha_0_2"/>
            <feOffset dx="0" dy="5"/>
            <feGaussianBlur stdDeviation="2.5"/>
            <feComposite in2="hardAlpha_0_2" operator="out"/>
            <feColorMatrix type="matrix" values="0 0 0 0 0 0 0 0 0 0 0 0 0 0 0 0 0 0 0.25 0"/>
            <feBlend mode="normal" in2="feFloodId_0_2" result="dropShadow_1_0_2"/>
            <feBlend mode="normal" in="SourceGraphic" in2="dropShadow_1_0_2" result="shape_0_2"/>
        </filter>
    </defs>
</svg>