<svg xmlns="http://www.w3.org/2000/svg" xmlns:xlink="http://www.w3.org/1999/xlink" width="500" height="500" viewBox="0 0 500 500" fill="none">
<path d="M452.867 250C453.134 280.567 463.201 296.467 459.734 326.333C456.001 358.5 456.101 385.733 434.801 405.066C412.601 425.199 379.934 408.833 351.033 424.999C322.6 440.899 320.133 474.899 291.467 485.266C263.8 495.266 238.767 488.533 210.167 475.966C182.2 463.666 177.3 438.666 150.067 423.099C122.7 407.466 88.3001 419.366 73.6334 397.999C58.2667 375.599 74.9334 347.4 75.0334 313.667C75.1334 288.2 81.3667 273.7 74.1334 250C63.8667 216.367 27.8 198.667 31.3333 170.4C34.4667 145.267 63.8 132.367 90.8667 116.467C115.4 102.067 133.333 105.333 160.333 94.7001C184.033 85.3668 194.3 76.8335 217.633 66.5C245.067 54.3667 261.833 34.5333 287.3 38.5333C312.567 42.5 317.867 76.0668 344.467 86.3668C376.634 98.8335 410.367 77.0668 434.201 95.4335C455.934 112.2 454.534 142 458.401 174.133C462.001 203.833 452.601 219.667 452.867 250Z"   fill="#0095FF" >
</path>
<path d="M356.066 143.934L250 250L143.934 143.934C122.956 164.912 108.67 191.639 102.882 220.736C97.0944 249.834 100.065 279.994 111.418 307.403C122.771 334.811 141.997 358.238 166.664 374.72C191.332 391.203 220.333 400 250 400C279.667 400 308.668 391.203 333.336 374.72C358.003 358.238 377.229 334.811 388.582 307.403C399.935 279.994 402.906 249.834 397.118 220.736C391.33 191.639 377.044 164.912 356.066 143.934Z" stroke="rgba(255, 255, 255, 1)" stroke-width="10" stroke-linejoin="round"  >
</path>
<path    stroke="rgba(255, 255, 255, 1)" stroke-width="10"  stroke-linecap="round"  d="M250.006 250C199.997 250 200.005 325 251.006 325C302.006 325 302.988 398.64 252.006 400L239.006 399.6">
</path>
</svg>
