<svg xmlns="http://www.w3.org/2000/svg" xmlns:xlink="http://www.w3.org/1999/xlink" width="67.4351806640625" height="117.43516540527344" viewBox="0 0 67.4351806640625 117.43516540527344" fill="none">
<path     fill="#000000"  d="M7.62132 3.38971L64.0455 59.8139C65.9354 61.7038 64.5969 64.9352 61.9242 64.9352L45.0092 64.9352C42.7423 64.9352 41.2944 67.3528 42.3644 69.3512L45.0418 74.3518L49.4918 82.8768L52.1418 88.0684L54.525 92.8768L56.65 97.2934L58.5168 101.31L60.125 104.935L60.8334 106.602C61.5584 108.352 60.5084 110.768 57.675 113.877L57.5535 114.004C56.9873 114.599 56.2022 114.935 55.3813 114.935L50.1875 114.935C49.0512 114.935 48.0124 114.293 47.5042 113.277L29.3614 76.9912C28.4457 75.1597 26.0047 74.7636 24.5568 76.2116L7.62132 93.1471C5.73143 95.037 2.5 93.6985 2.5 91.0257L2.5 5.51103C2.5 2.83831 5.73143 1.49981 7.62132 3.38971Z">
</path>
<path   fill="rgba(255, 255, 255, 1)"  d="M9.38909 1.62194L65.8132 58.0461C69.278 61.5109 66.8241 67.4352 61.9242 67.4352L45.0092 67.4352C44.6314 67.4352 44.3901 67.8381 44.5684 68.1712L47.2458 73.1717L51.708 81.7199L54.3685 86.9318L56.765 91.7666L58.9028 96.2095L60.7839 100.257L62.4102 103.921L63.1342 105.624Q64.0926 107.937 62.8817 110.726Q61.9279 112.922 59.5226 115.561L59.3637 115.729Q58.5851 116.546 57.5476 116.991Q56.51 117.435 55.3813 117.435L50.1875 117.435Q48.6251 117.435 47.296 116.614Q45.9669 115.792 45.2682 114.395L27.1254 78.1093C26.9727 77.804 26.5659 77.738 26.3246 77.9793L9.38909 94.9148C5.92429 98.3796 0 95.9257 0 91.0257L0 5.51103C0 0.611051 5.92428 -1.84287 9.38909 1.62194ZM5.85355 5.15747C5.53857 4.84249 5 5.06557 5 5.51103L5 91.0257C5 91.4712 5.53857 91.6943 5.85355 91.3793L22.7891 74.4438C25.4436 71.7893 29.9186 72.5155 31.5975 75.8732L49.7403 112.159Q49.8038 112.286 49.9246 112.361Q50.0454 112.435 50.1875 112.435L55.3813 112.435Q55.5955 112.435 55.7433 112.28L55.8274 112.193Q57.6728 110.168 58.2955 108.734Q58.5233 108.209 58.5518 107.845Q58.5662 107.661 58.5326 107.58L57.8398 105.949L56.2497 102.364L54.3972 98.3773L52.285 93.987L49.9151 89.205L47.2756 84.0336L42.8378 75.5318L40.1604 70.5313C38.1988 66.8674 40.8532 62.4352 45.0092 62.4352L61.9242 62.4352C62.3696 62.4352 62.5927 61.8966 62.2777 61.5816L5.85355 5.15747Z">
</path>
</svg>
