<svg xmlns="http://www.w3.org/2000/svg" xmlns:xlink="http://www.w3.org/1999/xlink" width="200" height="200" viewBox="0 0 200 200" fill="none">
<path     fill="#000000"  d="M71.788 46.788L128.212 103.212C130.102 105.102 128.764 108.333 126.091 108.333L109.176 108.333C106.909 108.333 105.461 110.751 106.531 112.75L109.208 117.75L113.658 126.275L116.308 131.467L118.692 136.275L120.817 140.692L122.683 144.708L124.292 148.333L125 150C125.725 151.75 124.675 154.167 121.842 157.275L121.72 157.403C121.154 157.997 120.369 158.333 119.548 158.333L114.354 158.333C113.218 158.333 112.179 157.691 111.671 156.675L93.5281 120.39C92.6124 118.558 90.1714 118.162 88.7235 119.61L71.788 136.545C69.8981 138.435 66.6667 137.097 66.6667 134.424L66.6667 48.9093C66.6667 46.2366 69.8981 44.8981 71.788 46.788Z">
</path>
<path   fill="rgba(255, 255, 255, 1)"  d="M73.5558 45.0202L129.98 101.444C133.445 104.909 130.991 110.833 126.091 110.833L109.176 110.833C108.798 110.833 108.557 111.236 108.735 111.569L111.412 116.57L115.875 125.118L118.535 130.33L120.932 135.165L123.069 139.608L124.951 143.655L126.577 147.32L127.301 149.022Q128.259 151.335 127.048 154.124Q126.095 156.32 123.689 158.959L123.53 159.127Q122.752 159.944 121.714 160.389Q120.677 160.833 119.548 160.833L114.354 160.833Q112.792 160.833 111.463 160.012Q110.134 159.191 109.435 157.793L91.292 121.508C91.1394 121.202 90.7326 121.136 90.4913 121.378L73.5558 138.313C70.091 141.778 64.1667 139.324 64.1667 134.424L64.1667 48.9093C64.1667 44.0093 70.091 41.5554 73.5558 45.0202ZM70.0202 48.5557C69.7053 48.2408 69.1667 48.4638 69.1667 48.9093L69.1667 134.424C69.1667 134.869 69.7053 135.093 70.0202 134.778L86.9557 117.842C89.6103 115.188 94.0853 115.914 95.7642 119.271L113.907 155.557Q113.971 155.684 114.091 155.759Q114.212 155.833 114.354 155.833L119.548 155.833Q119.762 155.833 119.91 155.678L119.994 155.591Q121.839 153.566 122.462 152.132Q122.69 151.608 122.718 151.243Q122.733 151.059 122.699 150.978L122.006 149.347L120.416 145.762L118.564 141.776L116.452 137.385L114.082 132.603L111.442 127.432L107.005 118.93L104.327 113.93C102.365 110.266 105.02 105.833 109.176 105.833L126.091 105.833C126.536 105.833 126.759 105.295 126.444 104.98L70.0202 48.5557Z">
</path>
</svg>
